<?xml version="1.0" encoding="UTF-8"?>
<svg id="Layer_1" xmlns="http://www.w3.org/2000/svg" version="1.1" viewBox="0 0 129.05 133.75">
  <!-- Generator: Adobe Illustrator 29.8.1, SVG Export Plug-In . SVG Version: 2.1.1 Build 2)  -->
  <defs>
    <style>
      .st0 {
        fill: none;
        stroke: #010101;
        stroke-miterlimit: 10;
      }
    </style>
  </defs>
  <path class="st0" d="M54.94,3.84l-1.97,7.88c6.58-.98,20.34,4.83,25.55,1.42.93-.61-.54-5.11,4.41-3.4,1.45,1.1,5.77,18.18,7.92,21.11,2.53,3.44,14.57,12.08,18.27,16.23-9.63,18.02,17.55,11.39,19.83,21.69,1.13,5.1-8.06,4.04-11.79,8.15-3.36,3.7-5.72,10.78-.24,13.82-4.67,2.71-15.53,9.97-18.07,14.39-2.82,4.9-1.04,13.47-3.71,17.33-3.43,4.95-20.48-.75-18.21,11.29-8.66-2.39-18.28-5.68-26.93-2.07l-2.1-1.93c-.19-11.39-11.67-12.97-4.93-28.01-9.43,4.03-19.95-10.95-25.38-11.77-3.82-.57-7.22,9.86-14.1,3.21-6.58-6.36-3.35-14.01,5.47-15.49C-.99,65.25,2.41,43.63,5.07,28.84l-4.1-3.09c12.26-3.98,21.43,7.93,33.98,5.97l-7.99-11.97c9.49,1.65,9.21-13.53,14.29-19.75l13.68,3.85h0Z"/>
</svg>