<?xml version="1.0" encoding="UTF-8"?>
<svg id="Layer_1" xmlns="http://www.w3.org/2000/svg" version="1.1" viewBox="0 0 146.52 149.57">
  <!-- Generator: Adobe Illustrator 29.8.1, SVG Export Plug-In . SVG Version: 2.1.1 Build 2)  -->
  <defs>
    <style>
      .st0 {
        fill: none;
        stroke: #010101;
        stroke-miterlimit: 10;
      }
    </style>
  </defs>
  <path class="st0" d="M108.11,17.77c-.49.86-3.39-.06-3.16,3.47.29,4.52,3.38,12.49,5.59,16.68,3.61,6.85,9.62,10.04,13.26,14.74,1.89,2.43,1.62,6.46,3.19,8.4,4.71,5.81,14.34,9.29,18.01,14.39,5.82,8.08-14.94,9.9-20.81,13.31-7.62,4.43-2.48,8.5-3.26,9.61-.41.58-8.1,1.7-10.37,2.75-8.51,3.91-12.05,10.55-22.36,5.11-9.68-5.1-10.67-17.62-27.3-12.89l-1.78,8.99c8.6.29,6.49,4.86,8.98,7.91,3.02,3.69,6.8,2.33,7.08,9.26.22,5.21-2.89,7.3-3.27,9.98s1.81,6.42,1.14,9.63c-.15.72-10.82,8.78-11.52,8.99-13.55,4.18-36.7-6.43-50.62-7.6l2-11.98-11.99,3.97c2.43-5.41,9.25-7.98,11.47-13.51,1.18-2.92,4.68-24.47,4.47-27.38-.52-7.21-9.38-14.46,6.05-19.13-2.82-5.72-7.4-14.39-6.14-20.87.39-2.01,4.13-.45,5.48-1.6,3.02-2.58,3.06-8.73,10.61-7.57l.04-5.88c-3.11.4-6.35-1.93-9.11-1.89-2.51.04-7.78,6.55-8.88.82-.75-3.93,5.86-5.28,8.09-7.95,1.5-1.8,1.36-5.03,2.57-6.34,8.7-9.51,26.21-7.02,36.28-.66,3.29-.7,4.78-13.18,7.58-15.52,3.19-2.67,9.94-.3,13.92-.87,2.81-.4,5.63-3.71,8.61-3.64,3.62.09,4.85,4.01,7.1,4.93,5.64,2.31,15.8.44,9,12.34h.05Z"/>
</svg>