<?xml version="1.0" encoding="UTF-8"?>
<svg id="Layer_1" xmlns="http://www.w3.org/2000/svg" version="1.1" viewBox="0 0 853.23 1717.8">
  <!-- Generator: Adobe Illustrator 29.8.1, SVG Export Plug-In . SVG Version: 2.1.1 Build 2)  -->
  <defs>
    <style>
      .st0 {
        stroke: #000;
      }

      .st0, .st1, .st2, .st3, .st4 {
        fill: none;
        stroke-miterlimit: 10;
        stroke-width: .05px;
      }

      .st1 {
        display: none;
      }

      .st1, .st2, .st4 {
        stroke: red;
      }

      .st3 {
        stroke: #020202;
      }

      .st4 {
        opacity: .05;
      }
    </style>
  </defs>
  <g>
    <path class="st0" d="M-647.14,467.18c7.39,1.49,25.06,19.56,28.61,27.45,1.52,3.35,7.53,67.19,7.41,73.49-.67,38.15-16.1,92.42-16.02,132.63.06,22.49,10.01,56.15,11.2,78.69,6.38,120.07-1.46,339.4,45.21,444.61,30.16,68.01,137.98,74.12,173.42,143.92.79,19.32-18.91,46-17.29,63.23,2.1,22.26,28.08,50.02,29.65,70.38,2.6,34.08-22.96,91.64-24.88,127.73-.65,12.16,13.76,76.09,2.33,77.38-62.48-24.62-129.16-72.32-191.33-93.26-19.16-6.45-119.69-16.34-124.4-26.79-4.6-29.18-.43-61.6-2.32-90.08-1.17-17.55-8.52-39.64-9.82-57.13-22.09-303.79-36.15-579.92-103.37-881.24-3.98-17.84-17.21-34-17.45-53.22l209.05-37.8h0l-.02-.02Z"/>
    <line class="st1" x1="-1099.3" y1="716.99" x2="-318.21" y2="1410.47"/>
    <circle class="st2" cx="-759.81" cy="1018.41" r="4.96"/>
  </g>
  <g>
    <path class="st0" d="M558.84,271.44l.34-51.91,51.16,26.57c.36,15.1-11.56,35.73-7.1,49.98,5.37,17.16,53.26,33.32,53.15,77.12-.09,42.3-39.29,27.48-65.68,47.7l25.23,26.69c-8.62,18.59-10.28,45.59-17.91,63.05-1.08,2.46-29.97,41.22-31.99,42.98-14.34,12.53-36.79-.44-35.66,34.23,9.73,3.27,22.59,2.39,31.53,6.57,3.63,1.7,1.23,9.74,4.77,11.35,4.61,2.09,43.22,4.44,49.07,3.56,30.03-4.48,12.82-32.12,11.17-48.45-4-39.34,2.93-24.09,14.34-34.2,3.27-2.89-4.61-15.81,2.56-24.69,4.59-5.66,19.24-8.01,26.67-12.55,6.24-3.82,9.25-10.4,14.57-13.78,4.66-2.97,12.95,2.5,19.46-6.33,30.88-41.89-8.91-56.46-18.26-81.38-7.05-18.86,6.23-86.73,19.25-98.75,14.56-13.47,59.15,17.01,79.56,9.36,7.67,2.77,22.07,45.12,24.85,48.81,3.04,4.05,14.54,8.05,20.32,14.12,20.05,21.13.64,43.82-.73,65.32-1.24,19.5,5.92,47.19,1.05,68.44-2.85,6.82-44.11,2.06-41.69,23.35-.02,4.54,29.88,11.48,22.72,40.58-3.85,15.64-24.63,47.01-42.47,30.83,1.69,7.34,5.65,11.11,6,19.81.25,5.9-7.07,61.5-8.4,64.48-6.99,15.49-27.79,2.29-28.66,15.96,19.96,34.11,25.34,75.76,64.71,91.26-11.88,10.28-14.32,26.62-22.93,37.17-29.52,36.24-48.54,24.05-53.11,86.17-4.63,63.04,3.43,49.88,43.1,79.4,26.34,19.59,51.31,41.34,77.51,60.98l-28.7,38.33-25.45-21.93c.61-28.99-14.66-17.64-37.16-27.32l-4.14,19.97-13.87-8.02-5.92,29.77c51.15,12.82,46.24,33.36,31.3,76.23-33.39-4.74-28.36,43.16-41.49,49.41-5.07,2.42-17.26-.52-24.95,1.41-13.48,3.4-43.96,19.19-54.99,8.22-6.37-6.35-16.23-33.19-22.38-41.47-6.15-8.28-17.15-12.3-24.8-22.57-12.51-16.83-18.86-43.45-29.26-58.37-14.4-20.68-76.69-77.18-88.15-32.15-.91,3.53-2.67,62.87-1.65,66.02,1.41,4.42,23.91,24.13,30.91,36.25,1.94,3.33,22.49,34.73,6.33,33.53-13.28-1.01-41.95-40.7-66.77-3.31-37.05-78.83-55.75,28.14-106.48,24.97.58-19.69,20.7-18.19,27.54-33.55,10.51-23.63-10.51-22.64-1.22-44.25-10.21-4.59-19.54,2.65-28.85,2.15-9.31-.5-24.05-16.81-16.8,9.42,10.72,3.63,26.92,10.79,22.45,25.29-15.9-15.01-31.57-34.15-54.71-37.15l1.77,15.23c-46.36,8.95,2.96,40.11,4.42,51.85,1.37,11.09-7.35,24.95-1.68,37.73-5.4,2.77-25.9-24.93-38.63-28.4-9.16-2.5-60.19-.01-66.23,5.22-18.7,27.1,9.26,33.84,23.15,47.97,5.53,5.6,3.36,12.8,14.91,21.48,8.45,6.33,24.93,11.4,34.45,19.22l34.07-23.45c-5.34,15.64-15.03,52.93-24.43,64.29-7.26,8.78-15.48,3.22-19.71,6.02-3.82,2.54-4.25,12.77-9.33,15.11-9.52,4.36-56.71-10.79-72.93-12.29-11.89-1.08-47.8-1.37-61.2-1.21-30.67.37-61.89,21.6-84.86,21.7-15.33.08-70.06-24.41-79.56-36.03-17.52-21.45.95-62.6,27.95-51.82,3.54-8.66,6.19-15.76,13.27-22.52,22.43-21.42,45.16-9.18,38.76-48.98,16.04-2.95,41.82-3.83,40.81-23.24l-31.9,3.83-8.2-61.69,10.47-2.53-1.98-13.66c20.9.25,43.71,10.83,56.46-9.15,14.69,13.67,6.6,37.32,21.41,50.5,14.82,13.17,31.4,9.89,47.91,15.82,9.08,3.26,14.93,12.39,23.47,14.84,15.93,4.56,34.57-3.57,46.71-13.72-22.34-3.59-45.23-10.26-65.53-21.41-42.12-23.13-27.72-44.07-33.53-85.75-1.03-7.39-7.26-12.9-8.54-20.2-4.23-24.13,4.65-47.83,17.56-68.21,19.8-1.5,40.87,16.2,55.29,19.23,20.13,4.25,55.12-10.98,63.52-6.84,10.45,5.7,10.22,26.08,17.63,31.4,3.81,2.73,13.47-.28,23.28,6.25,29.4,19.54,51.34,55.93,78.26,74.18,7.67,5.18,25.1,13.88,31.02,3.63l9.44-41.5c-20.22,1.13-23.13-23.61-28.54-26.12-4.08-1.9-14.69,2.06-23.95-1.32-6.39-2.32-62.97-35.02-74.25-41.78-23.89-14.3-32.2-39.97-69.89-32.96l-3.35,14.18c-20.32-.78-14.89-18.05-17.68-22.57-8.04-13.03-23.88-28.05-22.74-47.83.4-6.88,9.48-9.75,11.51-16.35,3.54-11.57-5.01-20.86-3.38-31.31,1.62-10.45,14.74-26.38,15.04-33.96s-20.27-12.96-13.8-25.88l82.7,29.84,19.78,1.25,3.94-16.69c-17.41-13.44-35.68-20.05-41.93-42.98l-62.44-.47c-16.23-11.1,3.97-52.23,19.59-52.85,18.44-.72,20.95,16.51,38.67,18.79,4.74.61,56.61-.64,63.29-1.14,22.22-1.66,63.13-6.69,62.16-35.06-.23-6.6-11.28-10.16-13.75-16.46-3.09-7.88,2.78-19.29-5.22-26.78-10.09-4.54-31.34,20.25-39.25,25.51-11.79,7.8-28.72-.66-31.37,27.54-27.49-33.89,6.04-36.58,20.78-52.07,19.35-20.34,18.91-38,29.25-58.52,13.99-27.8,30.29-54.72,41.89-83.69l47.77,20.16c8.05-6.2,25.11-125.23-15.87-122.06l-62.19,59.2c-27.75-44.8-67.88-75.4-58.59-133.93,4.14-26.05,13.48-64.24,44.45-64.06,9.11.05,15.32,7.53,24.75,5.56,18.19-3.78,43.45-52.33,45.6-71.2l-14.01-5.7c19.77-24.67,55.68-26.41,54.76-64.18l119.14,128.38.09-.06h0Z"/>
    <line class="st1" x1="602.73" y1="149.43" x2="338.29" y2="1440"/>
    <circle class="st2" cx="583.5" cy="243.12" r="4.96"/>
  </g>
  <g>
    <path class="st0" d="M1157.77,259.34c-7.28,7.21-17.5,40.79-17.5,52.02.07,37.2,46.5,96.32,9.48,121.88-53.91,37.18-82.52-26.23-114.83-58.46-19.93,2.56-37.35,6.69-32.57,29.46l-39.31,9.42c-27.82-5.59-35.1-37.27-69.97-15.21l-6.87-11.79,9.27-15.31-19.74-21.2c27.66-12.18,20.79-48.46,30.48-61.3,3.24-4.28,12.01-5.77,15.65-9.97,4.93-5.67,4.33-15.12,8.58-17.94,5.91-3.9,18.67-.84,22.44-7.99,4.36-8.3,11.9-54.89,10.85-65.24-2.86-28.23-50.71-102.08-81.04-112.48,10.73-11.61,24.73-4.56,38.69-12.18,11.55-6.31,8.66-21.71,11.95-23.32,8.53-4.17,21.97-.07,25.38-3.11,1.1-.96,5.75-21.35,13.77-24.75,21.69,11.51,35.75,7.23,55.58,26.31l25.52-19.2c15.61,18.27,23.8-3.22,41.54-4.39,20.18-1.36,45.64,19.65,60.42,18.81,1.68-.09,30.7-9.56,31.98-10.67,5.18-4.52-3.01-20.37,18.65-19.17,19.45,1.05,30.73,29.75,53.96,28.47,13.39,8.32-13.51,70.51-15.17,82.47-1.31,9.46,4.63,18.95,4.17,29.29-.72,15.65-32.43,71.12-44.03,84-14.96,16.62-37.94,22.24-47.33,31.49v.05Z"/>
    <line class="st2" x1="1066.28" y1="-50.38" x2="1062.75" y2="449.51"/>
    <circle class="st2" cx="1065.67" cy="36.43" r="4.96"/>
    <circle class="st2" cx="1063.4" cy="394.7" r="4.96"/>
  </g>
  <g>
    <path class="st0" d="M2253.48,1075.54c-.38,26.33,46.74,41.93,50.64,58.95,4.35,19.06-17.96,42.98-11.93,62.66l-5.16,4.88c-7.93-6.56-34.86-9.03-36.98,2.4-.53,25.38,16.67,33.35,24,53.74-25.3-1.9-36.32,13.5-56.53,22.21-8.06,3.47-20.66,2.13-25.25,5.36-7.22,5.05-2.61,25.07-12.29,27.01-42.67-12.16-77.15-1.91-114.85,16.27l30.41,35.65c-14.76-4.29-26.42-12.72-41.99-17.07-8.09-2.26-13.85.52-20.65-.33-12.19-1.56-19.39-13.67-39.09,1.91v-15.33s-15.26.01-15.26.01l5.03,15.21-20.33-5.17,10.24-20.24c-13.44-.21-33.9-5.82-30.77-22.79.54-2.98,12.18-4.96,16.89-14.11,21.29-41.45,9.83-84.97,80.38-75.03,5.95-17.12-10.43-23.73-13.63-33.85-3.61-11.44,6.25-40.88,3.92-55.32-1.58-9.81-25.16-17.61-15.43-27.95,6.82-7.24,22.79,27.53,35.56,5.14l3.06,15.62c15.8-3.96,26.92,7.23,40.59,9.48,6.31,1.04,56.98-7.54,64.83-9.38,5.17-1.21,4.84-10.35,8.69-12.58,8.34-4.84,19.89-2.01,29.27-6.54,17.01-8.2,30.58-29,56.63-20.75h.03s0-.03,0-.03Z"/>
    <line class="st2" x1="2131.93" y1="1047.24" x2="2131.06" y2="1376.98"/>
  </g>
  <g>
    <path class="st0" d="M2619.99,736.6c12.71,7.52,45.95-16.2,57.63-24.24l2.51,15.31c9.06,2.93,11.96-7.66,18.48-8.86,6.83-1.25,18.17,5.17,29.45,3.9,13.3-1.49,25.03-19.03,36.14,5.32,8.1,17.74-8.88,26.61-11.32,43.89-.73,5.19,4.93,14.6,3.39,16.71-.89,1.19-12.56,2.08-17.36,5.81-12.45,9.72-1.58,18.02-28.42,11.89-46.99,72.98,56.63,47.23,86.43,61.62,4.63,2.23,21.06,27.2,23.01,33.03,8.89,26.81-5.27,17.56-13.47,27.92-2.89,3.63-11.85,31.41-14.43,35.33-3.32,5.06-12.3.88-16.21,6.07-3.04,4.02-12.11,35.49-15.07,37.62-18.4-14.66-55.87-27.06-71.72-2.76-5.09,7.8.84,17.72-4.13,20.59-10.68,6.16-40.84-.95-56.46,12.38l-5.73-17.33c-16.22-8.04-71.06-79.99-80.52-82.79-10.89-3.19-20.12,3.49-31.88,2.16-35.03-3.96-45.12-27.39-88.29-4.56-7.85,4.15-14.25,14.83-15.98,15.21-27.92,6.01-55.88-11.33-82.65-.19-8.61-6.36-17.79-80.23-15.16-93.92,1.52-7.94,9.92-14.16,9.96-20.55.04-6.39-13.78-25.52-13.51-41.84.57-34.19,26.14-14.44,35.92-17.12,7.67-2.09,9.14-17.37,16.78-19.43,13.2-3.58,25.77,16.82,40.04-15.53,15.74,18.32,26.78,29.61,48.25,10.21-3.12,22.53,49.54,14.54,63.27,10.63,6.04-1.72.31-11.97,6.05-16.05,6.51-4.59,24.2-3.12,30.11-14.38l-2.43-25.77c2.2-2.23,56.09,10.72,61.38,12.54,12.77,4.39,13.05,15.44,15.92,17.13v.08s0,0,0,0Z"/>
    <line class="st2" x1="2571.72" y1="681.63" x2="2570.76" y2="1041.49"/>
  </g>
  <g>
    <path class="st0" d="M1458.13,514.34l-5.07,20.05c16.76-2.45,51.76,12.44,65.05,3.79,2.37-1.55-1.34-13.01,11.25-8.63,3.68,2.81,14.57,46.33,20.02,53.8,6.42,8.78,37.02,30.86,46.41,41.45-24.64,45.82,44.61,29.12,50.34,55.36,2.84,12.99-20.55,10.23-30.08,20.67-8.58,9.4-14.64,27.41-.7,35.19-11.91,6.87-39.61,25.28-46.11,36.52-7.21,12.46-2.74,34.29-9.56,44.1-8.77,12.58-52.14-2.05-46.44,28.62-22.03-6.14-46.51-14.59-68.56-5.45l-5.33-4.93c-.41-29-29.63-33.1-12.36-71.35-24.04,10.2-50.72-28.02-64.54-30.14-9.72-1.48-18.45,25.06-35.92,8.08-16.71-16.24-8.43-35.7,14.03-39.4-25.25-31.74-16.45-86.77-9.57-124.41l-10.42-7.9c31.24-10.05,54.51,20.34,86.48,15.43l-20.26-30.53c24.15,4.27,23.54-34.39,36.52-50.19l34.81,9.9h0l.02-.03Z"/>
    <line class="st2" x1="1477.23" y1="499.49" x2="1476.24" y2="872.36"/>
    <circle class="st2" cx="1476.24" cy="825.86" r="4.96"/>
    <circle class="st2" cx="1477.23" cy="546.37" r="4.96"/>
  </g>
  <g>
    <path class="st0" d="M1595.1,86.03c12.34-7.12,26.23-1.36,31.95,11.64,1.39,3.19-2.55,58.94-14.24,58.45-16.67-11.83-38.93-18.56-57.98-8.45-8.23,12.79,17.53,61.51,29.58,67.96,4.53,2.43,10.78-3.31,14.16-1.36,12.61,7.14,29.74,47.54,36.68,60.16-17.21-1.37-23,23.67-30.65,27.95-18.28,10.24-143.57,4.63-157.91-10.58-4.93-5.21-3.68-15.01-5.79-16.9-1.4-1.25-34.1-6.41-37.24-6.13-18.8,1.66-20.08,34.12-65.67,29.92-32.23-2.96-38.53-18.28-59.05-38.15-4.42-4.26-14.04-6.89-14.87-8.16-.84-1.28.84-29.99,1.18-31.52,1.68-7.69,11.49-13.13,12.43-21.71.76-6.95-5.31-14.86-2.99-23.76,2.32-8.91,15.59-14.12,19.92-21.26,37.62-62.38,30.65-65.43,101.98-96.64,11.01-4.81,27.51-5.45,35.34-10.42,9.28-5.88,13.65-28.53,24.1-31.94,4.26-1.39,52.9-4.72,57.38-3.26,10.35,3.39,70.23,38.3,76.57,46.16,7.46,9.21,5.43,17.35,5.12,27.97h0v.03Z"/>
    <line class="st2" x1="1458.22" y1="-12.02" x2="1457.31" y2="332.56"/>
    <circle class="st2" cx="1458.22" cy="25.51" r="4.96"/>
    <circle class="st2" cx="1457.31" cy="286.16" r="4.96"/>
  </g>
  <g>
    <path class="st0" d="M2412.65,82.47c-4.63,5.04-17.16,5.36-19.62,18.37-3.06,16.17,26.19,40.44-25.72,40.02-6.22,17.73,24.25,11.9,27.54,26.61-3.62,50.44-38.69,26.06-66.26,31.59-2.12.42-26.39,22.29-34.06,26.37-4.53,2.42-41.71,19.7-44.15,20.03-9.58,1.3-27.14-11.23-39.82-3.81-13.19,10.54-14.95,42.03-17.77,44.09-2.83,2.06-13.92-2.28-20.06.81-12.14,6.12-7.16,26.16-8.41,26.89-2.89,1.69-11.89-1.61-17.78,3.76-7.87,7.19-19.74,49.59-34.48,60.48-1.94,18.46,24.1,32.49,26.42,36.76,1.82,3.34-5.75,11.3-6.02,16.78-.49,10.27,9.07,18.9,5.72,41.52-4.47,30.3-9.44,22.05-27.52,32.1-3.7,2.07-4.63,8.96-11.6,11.2-18.98,6.12-51.74-9.8-63.07-3.33l-7.14,22.62c-16.07.38-11.01-20.41-25.72-23.47-20.65-4.27-30.8,20.47-50.18,15.51,1.63-35.9-33.09-25.94-21.66,7.3l-44.84,14.46c-30.03-1.93-48.4-108.12-34.66-130.92,1.89-3.15,44.12-23.14,58.99-43.03,7.15-9.59,34.77-53.79,38.85-62.15,7.54-15.44-8.3-18.64,26.91-14.37-1-19.41,11.41-11.14,20.08-17.55,6.78-5.05,10.87-20.54,18.86-28.35,15.67-15.35,52.47-7.92,75.31-12.99-2.45-30.44,22.02-55.03-1.13-87.07l31.43-4.73c7.22-14.83-26.35-38.87-17.98-50.26,8.37-11.38,4.04,7.31,19.72,7.73,17.36.47,13.22-9.29,16.9-9.28,9.78,0,23.02,16.56,27.38-3.72l-7.36-19.08c21.3-12.86,37.84-22.62,62.73-28.47,8.4-1.98,19.39,2.6,28.46.82,26.07-5.14,6.07-11.98,48.24-4.65,14.71,2.57,22.7-8.13,33.73,14.23,7.77-2.33,12.91-17.82,18.36-18.55,6.99-.95,57.94,4.89,63.84,7.64,17.87,8.28,6.52,28.54-2.38,38.23l-.07-.11h0Z"/>
    <line class="st2" x1="2149.04" y1="14.41" x2="2091.12" y2="564.73"/>
  </g>
  <g>
    <path class="st0" d="M2679.87,1594.58c-1.25,2.19-8.63-.18-8.07,8.81.71,11.51,8.52,31.83,14.12,42.51,9.15,17.47,24.43,25.63,33.66,37.62,4.8,6.2,4.08,16.46,8.07,21.41,11.95,14.83,36.45,23.75,45.76,36.76,14.76,20.61-38.11,25.11-53.08,33.75-19.43,11.23-6.37,21.63-8.37,24.45-1.05,1.47-20.64,4.27-26.42,6.93-21.69,9.9-30.75,26.78-56.97,12.86-24.61-13.05-27.05-44.94-69.42-33.01l-4.59,22.88c21.9.8,16.49,12.42,22.81,20.2,7.66,9.42,17.3,5.98,17.96,23.63.52,13.27-7.41,18.57-8.39,25.39s4.57,16.36,2.84,24.53c-.39,1.83-27.61,22.28-29.39,22.81-34.53,10.55-93.4-16.62-128.84-19.69l5.17-30.49-30.56,10.03c6.22-13.76,23.61-20.26,29.3-34.32,3.02-7.43,12.08-62.27,11.57-69.69-1.28-18.36-23.79-36.88,15.53-48.67-7.14-14.58-18.74-36.69-15.49-53.18,1.01-5.12,10.52-1.12,13.96-4.04,7.71-6.55,7.85-22.21,27.07-19.2l.14-14.97c-7.92,1-16.16-4.96-23.18-4.87-6.39.08-19.85,16.63-22.62,2.03-1.88-10.01,14.96-13.4,20.65-20.19,3.83-4.57,3.5-12.8,6.59-16.13,22.22-24.16,66.78-17.7,92.38-1.44,8.38-1.76,12.26-33.53,19.41-39.47,8.14-6.78,25.31-.7,35.45-2.12,7.16-1,14.36-9.41,21.95-9.21,9.22.25,12.32,10.24,18.04,12.6,14.35,5.92,40.23,1.23,22.83,31.48h.13s0,0,0,0Z"/>
    <line class="st2" x1="2572.09" y1="1541.84" x2="2571.38" y2="1809.2"/>
  </g>
  <g>
    <path class="st0" d="M1336.56,1098c-2.04-17.63,24.34-9.31,37.5-9.19,33.71,28.4,54.62,75.84,103.69,74.63,6.47-.16,34.83-19.08,61.05-17.64,3.08.16,43.08,19.9,29.55-6.44-2.99-5.81-25.12-21.66.93-16.24,17.73,7.76,12.72,32.22,17.98,48.17,3.86,11.77,21.5,14.44,8.42,31.39-9.66,12.5-25.43,7.44-36.91,14.03-17.14,9.83-7.03,8.89-32.51,18.3-32.57,12.01-29.41,49.27-32.37,78.92l45.82,62.25-.1,7.59c-24.2-6.02-25.27,32.32-19.89,47.79,3.16,9,15.54,4.7,14.58,13.3-12.9-2.76-19.71,10.23-27.99,12.71-26.35,7.85-36.64-11.48-56.39-12.52-16.27-.86-53.33,3.45-48.57,24.75l-19.2-.61-26.02-50.15,20.42.05c-.88-34.27-11.65-72.85,18.13-96.94l22.79,10.4c-.3-40.69-41.25-18.16-63.6-20.06-34.29-2.89-7.31-28.97-9.25-43.97-1.5-11.49-25.32-5.03-18.39-35.24,4.1-17.84,29.27-25.46,30.55-46.39,2.18-36.53-53.98-56.64-35.31-98.99l15.1,10.17v-.08s-.02,0-.02,0Z"/>
    <line class="st2" x1="1443.8" y1="1055.8" x2="1442.58" y2="1514.12"/>
  </g>
  <g>
    <path class="st3" d="M-257.86,1704.76c-1.19.06-2.37,0-3.54-.23-6.1-1.09-10.96-5.92-14.44-14.36-7.88-19.09-8.94-37.9-10.08-57.82-.42-7.23-.84-14.7-1.62-22.11l-61.12-138.43c-.83-2.66.1-4.71,1-6.69.86-1.91,1.69-3.71,1.01-6.01-.22-.73-3.45-4.82-6.05-8.11-2.42-3.06-4.7-5.97-5.63-7.39-10.75-16.75-22.23-46.05-28.13-62.04-1.74-4.73-3.2-10.73-4.72-17.07-2.91-12.01-6.2-25.62-12.25-32.53-2.2-2.53-4.68-3.81-7.07-5.05-3.88-2.02-7.9-4.11-10.88-11.33-7.63-18.42-8.71-40.69-9.76-62.22-.43-8.92-.85-17.36-1.72-25.37-9.49-21-18.62-42.61-27.42-63.5-10.61-25.16-21.57-51.18-33.3-76.3-1.44-3.08-3.21-6.07-4.94-8.97-2.48-4.16-5.04-8.46-6.67-13.16-1.32-3.82-2.03-7.74-2.72-11.55-.52-2.9-1.06-5.9-1.87-8.76-1.02-3.6-2.67-7.25-4.27-10.78-2.06-4.53-4.19-9.21-5-13.89-.47-2.72-.51-5.73-.54-8.62-.05-3.68-.1-7.5-1.05-10.61-1.24-4.06-6.03-11.96-10.67-19.58-3.18-5.24-6.19-10.18-7.92-13.68-13.21-26.66-24.23-50.76-32.75-71.6-6.3-15.43,1.83-19.36,11.25-23.9,2.4-1.16,4.89-2.36,7.28-3.81,46.02-27.96,73.67-78.63,100.4-127.63,12.6-23.1,24.51-44.9,38.25-64.63,4.2-11.3,8.48-22.38,12.62-33.11,17.18-44.51,33.4-86.53,41.88-136.15,3.23-18.92,7.38-37,11.38-54.5,3.24-14.2,6.61-28.89,9.44-43.8,7.67-40.57,14.97-89.25,20.06-133.54.49-4.21.72-10,.99-16.69.69-16.79,1.54-37.69,7.06-45.49,6.8-9.65,16.15-8.5,26.05-7.29,5.71.7,11.61,1.42,17.15-.01.6-1.84,1.88-3.15,3.14-4.41.83-.84,1.62-1.64,2.18-2.57,3.15-5.21,4.06-18.42,4.8-29.03.33-4.78.64-9.29,1.11-12.43,1.14-7.65,4.08-14.16,6.93-20.44,1.85-4.11,3.78-8.34,5.15-12.84.84-2.76,1.31-5.4,1.76-7.95,1.33-7.5,2.49-13.99,12.67-17.92,22.44-8.66,34.61-5.78,50.03-2.13,6.48,1.53,13.18,3.12,21.48,4.08,13.78,1.6,28.01-2.11,43.49-11.32,15.93-9.47,17.7-24.83,19.57-41.09.43-3.69.87-7.52,1.48-11.22.54-3.21,5.1-27.07,6.27-28.9,3.41-5.34,22.06-4.24,27.53-1.3,1.18.64,2.17,1.54,3.12,2.42,1.04.96,2.04,1.87,3.1,2.24,1.45.5,3.69.8,6.06,1.12,6.11.81,13.73,1.83,14.98,7.14,1.27,5.4-2.25,9.38-5.64,13.25-1.71,1.93-3.31,3.76-4.36,5.73-1.2,8.88-.69,19.07-.19,28.93.52,10.34,1.06,21.01-.42,30.05-.68,4.14-2.52,7.86-4.3,11.45-1.41,2.84-2.74,5.54-3.53,8.39-2.21,8.17-.02,33.8,2.04,43.41,1.37,6.41,4.72,10.22,8.28,14.24,2.82,3.2,5.75,6.52,7.73,11.29,16.07,38.71-.78,83.26-14.32,119.07l-.23.63c.07,3.81.17,7.65.28,11.47.22,8.39.44,17.07.37,25.56-.09,12.7-.34,25.65-.58,38.18-.29,15.5-.58,31.54-.62,47.24-.02,6.43.28,13.12.56,19.58.73,16.89,1.49,34.35-2.86,50.57-1.03,3.79-2.92,8.52-4.93,13.51-3.33,8.28-6.78,16.82-6.92,22.73-.07,2.56,2.45,9.22,4.68,15.1,1.64,4.35,3.19,8.44,3.83,11.08,4.06,16.95,3.48,38.41,2.96,57.32-.09,3.21-.17,6.33-.23,9.34-.29,14.62-.94,29.49-1.58,43.86-1.53,34.4-3.1,69.97.32,104.98.46,4.67,1.16,9.02,1.85,13.24,1.44,8.88,2.79,17.27,1.79,27.59-.97,10.07-3.08,20.44-5.12,30.45-2.32,11.39-4.7,23.17-5.53,34.81-.84,11.89-.67,23.48-.5,34.69.23,15.83.47,32.2-2.16,49.43-1.82,11.97-11.46,72.45-21.97,86.95-.95,1.32-2.2,2.55-3.4,3.75-1.35,1.34-2.74,2.72-3.68,4.18-3.17,4.96-4.53,12.26-5.85,19.3-.61,3.22-1.17,6.27-1.9,9-2.86,10.72-5.6,21.99-8.26,32.9-4.66,19.16-9.48,38.96-15.26,57.2-3.88,12.27-9.03,24.41-14.01,36.15-5.7,13.45-11.59,27.34-15.65,41.56-3.62,12.71-3.22,18.61-2.64,26.78.26,3.71.55,7.91.54,13.44-.01,4.02-.02,8.13-.05,12.3-.14,24.37-.32,52,3,75.97.49,3.53,1.53,6.36,2.53,9.11,1.58,4.32,3.22,8.79,2.58,15.78-.67,7.15-5.3,14.15-9.77,20.92-2.65,4-5.15,7.77-6.67,11.35-1.44,3.4-2.34,7.65-3.2,11.78-.66,3.1-1.32,6.31-2.23,9.17-.78,2.46-2.53,6.46-4.37,10.67-2.39,5.48-4.88,11.15-5.13,13.3-.34,2.83.42,6.13,1.3,9.93,1.26,5.46,2.68,11.64,1.15,18.24-.41,1.79-1.38,3.29-2.23,4.63-.95,1.48-1.77,2.75-1.78,4.16-.03,4.11,1.63,9.46,3.26,14.65,1.27,4.08,2.48,7.91,2.93,11.27,2.1,15.21-2.13,18.61-8.56,23.74-2.45,1.96-5.23,4.18-8.19,7.43-5.7,6.3-18.98,28.2-20.83,36.42-1.13,5.03-1.23,10.76-1.35,16.3-.1,5.13-.21,10.43-1.13,15.08-1.41,7.15-14.88,34.34-19.46,39.32-5.26,5.71-15.03,14.63-24.87,15.09l-.02-.02v-.06Z"/>
    <line class="st4" x1="-232.69" y1="-154.19" x2="-237.87" y2="1796.7"/>
    <circle class="st2" cx="-233.36" cy="122.06" r="4.96"/>
  </g>
</svg>