<?xml version="1.0" encoding="UTF-8"?>
<svg id="Layer_1" xmlns="http://www.w3.org/2000/svg" version="1.1" viewBox="0 0 1162.2 1480.92">
  <!-- Generator: Adobe Illustrator 29.8.1, SVG Export Plug-In . SVG Version: 2.1.1 Build 2)  -->
  <defs>
    <style>
      .st0 {
        fill: none;
        stroke: #010101;
        stroke-miterlimit: 10;
      }
    </style>
  </defs>
  <path class="st0" d="M1159.44,171.33c4.95,8.51,2.63,41.43-1.99,51.73-1.96,4.39-59.08,65.6-65.33,70.95-37.84,32.42-104.2,64.4-143.4,99.35-21.91,19.55-46.15,58.45-67.13,79.16-111.71,110.32-332.68,292.81-394.95,429.6-40.26,88.41,47.25,198.99,9.81,294.11-18.19,17.52-61.31,21.41-76.74,37.94-19.92,21.35-24.5,70.79-43.02,89.97-31.02,32.08-109.39,57.02-146.29,86.44-12.43,9.91-62.37,79.4-73.54,69.36-30.12-82.36-41.36-188.82-74.81-267.68-10.31-24.3-87.81-131.03-81.69-144.7,24.5-29.79,59.78-53.83,85.95-80.36,16.13-16.36,31.32-42.69,47.28-59.12C411.06,643.15,668.5,390.03,904.46,63.17,918.42,43.82,922.74,16.89,941.3,0l218.14,171.36h0v-.03Z"/>
</svg>