<?xml version="1.0" encoding="UTF-8"?>
<svg id="Layer_1" xmlns="http://www.w3.org/2000/svg" version="1.1" viewBox="0 0 547.61 1708.04">
  <!-- Generator: Adobe Illustrator 29.8.1, SVG Export Plug-In . SVG Version: 2.1.1 Build 2)  -->
  <defs>
    <style>
      .st0 {
        fill: none;
        stroke: #020202;
        stroke-miterlimit: 10;
      }
    </style>
  </defs>
  <path class="st0" d="M319.89,1708.01c-1.19.06-2.38,0-3.56-.22-6.13-1.08-11.02-5.92-14.54-14.38-7.96-19.15-9.08-38.04-10.28-58.04-.44-7.26-.88-14.76-1.69-22.2l-61.75-138.85c-.84-2.67.09-4.73.99-6.72.86-1.92,1.69-3.73,1-6.04-.22-.73-3.48-4.83-6.1-8.13-2.44-3.07-4.74-5.98-5.67-7.41-10.84-16.79-22.45-46.19-28.42-62.23-1.76-4.75-3.24-10.77-4.79-17.13-2.95-12.05-6.29-25.71-12.39-32.64-2.22-2.53-4.71-3.81-7.11-5.05-3.9-2.02-7.94-4.11-10.96-11.35-7.71-18.48-8.86-40.84-9.97-62.46-.46-8.96-.9-17.43-1.79-25.47-9.59-21.06-18.81-42.74-27.71-63.7-10.72-25.24-21.8-51.34-33.65-76.54-1.45-3.09-3.24-6.09-4.98-8.99-2.5-4.17-5.08-8.48-6.73-13.2-1.34-3.83-2.06-7.77-2.76-11.59-.53-2.91-1.08-5.92-1.9-8.79-1.03-3.61-2.7-7.27-4.32-10.81-2.08-4.54-4.23-9.24-5.06-13.94-.48-2.73-.53-5.75-.57-8.66-.06-3.7-.12-7.53-1.08-10.65-1.26-4.07-6.09-11.99-10.77-19.63-3.21-5.25-6.24-10.21-7.99-13.72-13.34-26.74-24.47-50.91-33.08-71.82-6.37-15.48,1.79-19.45,11.23-24.03,2.41-1.17,4.9-2.38,7.3-3.85,46.14-28.2,73.77-79.16,100.49-128.44,12.59-23.23,24.49-45.16,38.24-65.01,4.19-11.36,8.46-22.5,12.59-33.28,17.13-44.74,33.31-86.99,41.69-136.84,3.19-19.01,7.31-37.18,11.28-54.76,3.22-14.27,6.56-29.03,9.36-44.01,7.59-40.76,14.8-89.67,19.79-134.16.48-4.23.7-10.04.95-16.76.65-16.86,1.45-37.85,6.97-45.7,6.8-9.71,16.2-8.58,26.14-7.39,5.74.69,11.66,1.4,17.22-.06.6-1.85,1.88-3.17,3.14-4.44.83-.85,1.62-1.65,2.18-2.59,3.15-5.24,4.03-18.51,4.74-29.17.32-4.8.62-9.33,1.08-12.49,1.12-7.69,4.06-14.23,6.9-20.55,1.85-4.13,3.77-8.39,5.14-12.91.84-2.77,1.3-5.43,1.75-7.99,1.32-7.54,2.46-14.06,12.68-18.03,22.51-8.76,34.74-5.9,50.24-2.27,6.51,1.52,13.24,3.1,21.58,4.04,13.84,1.57,28.12-2.19,43.64-11.48,15.97-9.55,17.71-24.98,19.54-41.32.42-3.71.85-7.55,1.46-11.27.53-3.23,5.05-27.2,6.22-29.04,3.41-5.37,22.14-4.32,27.64-1.38,1.19.64,2.18,1.54,3.14,2.42,1.05.96,2.05,1.87,3.12,2.24,1.46.5,3.71.79,6.09,1.11,6.14.8,13.79,1.8,15.06,7.13,1.29,5.42-2.23,9.43-5.63,13.32-1.71,1.94-3.31,3.78-4.36,5.77-1.18,8.92-.64,19.15-.11,29.05.55,10.38,1.12,21.1-.34,30.18-.67,4.16-2.51,7.9-4.29,11.51-1.41,2.86-2.74,5.57-3.52,8.44-2.2,8.21.07,33.94,2.16,43.59,1.39,6.43,4.77,10.25,8.35,14.28,2.84,3.21,5.79,6.53,7.79,11.32,16.24,38.83-.56,83.62-14.06,119.61l-.23.63c.08,3.83.19,7.68.31,11.52.24,8.43.49,17.14.44,25.67-.06,12.75-.27,25.76-.48,38.34-.25,15.57-.5,31.68-.5,47.44,0,6.46.32,13.17.61,19.66.78,16.96,1.59,34.49-2.74,50.79-1.02,3.81-2.91,8.56-4.91,13.58-3.32,8.32-6.76,16.91-6.89,22.85-.06,2.57,2.49,9.25,4.74,15.15,1.66,4.36,3.23,8.47,3.88,11.12,4.12,17.01,3.6,38.56,3.13,57.56-.08,3.22-.15,6.36-.21,9.38-.25,14.68-.87,29.62-1.47,44.05-1.44,34.55-2.93,70.28.6,105.42.47,4.69,1.19,9.06,1.89,13.29,1.47,8.91,2.85,17.34,1.87,27.7-.95,10.12-3.04,20.53-5.06,30.59-2.3,11.44-4.66,23.28-5.46,34.97-.81,11.94-.61,23.58-.41,34.84.27,15.9.56,32.34-2.04,49.65-1.8,12.03-11.32,72.79-21.83,87.38-.95,1.33-2.2,2.57-3.4,3.77-1.35,1.35-2.74,2.74-3.68,4.21-3.17,4.99-4.52,12.32-5.82,19.4-.6,3.24-1.16,6.3-1.88,9.04-2.84,10.77-5.57,22.1-8.21,33.06-4.63,19.25-9.42,39.15-15.17,57.48-3.86,12.33-9,24.54-13.97,36.34-5.69,13.52-11.57,27.49-15.61,41.78-3.6,12.77-3.18,18.7-2.58,26.9.27,3.73.57,7.94.58,13.5,0,4.04,0,8.16-.02,12.35-.08,24.47-.18,52.22,3.22,76.28.5,3.54,1.55,6.38,2.57,9.14,1.6,4.33,3.26,8.82,2.63,15.84-.65,7.18-5.28,14.22-9.76,21.03-2.65,4.02-5.15,7.82-6.67,11.42-1.44,3.42-2.33,7.69-3.18,11.84-.65,3.11-1.31,6.34-2.21,9.21-.78,2.47-2.52,6.49-4.36,10.73-2.39,5.51-4.87,11.21-5.12,13.37-.33,2.84.44,6.15,1.33,9.97,1.28,5.48,2.72,11.68,1.2,18.31-.41,1.8-1.38,3.31-2.23,4.66-.95,1.49-1.77,2.77-1.78,4.18-.02,4.13,1.66,9.5,3.31,14.7,1.29,4.09,2.51,7.94,2.97,11.31,2.15,15.27-2.09,18.69-8.53,23.86-2.46,1.97-5.24,4.21-8.2,7.48-5.71,6.34-18.99,28.37-20.82,36.63-1.12,5.05-1.21,10.81-1.31,16.37-.09,5.15-.18,10.47-1.09,15.15-1.4,7.18-14.85,34.53-19.44,39.54-5.27,5.75-15.05,14.73-24.94,15.22l-.02-.02ZM277.35,203.68c-5.46.27-10.41,2.04-14.36,7.69-5.34,7.61-6.14,28.43-6.78,45.16-.26,6.75-.48,12.58-.96,16.83-4.99,44.51-12.21,93.44-19.8,134.23-2.8,15.01-6.13,29.77-9.37,44.05-3.98,17.56-8.08,35.72-11.27,54.71-8.39,49.95-24.59,92.25-41.74,137.04-4.14,10.8-8.41,21.96-12.61,33.33l-.06.11c-13.74,19.82-25.63,41.75-38.22,64.97-26.78,49.4-54.48,100.48-100.85,128.82-2.44,1.49-4.95,2.71-7.39,3.9-9.35,4.54-16.74,8.14-10.73,22.73,8.6,20.9,19.72,45.04,33.05,71.76,1.74,3.48,4.75,8.42,7.94,13.65,4.7,7.7,9.57,15.66,10.86,19.86,1.01,3.26,1.07,7.16,1.13,10.93.05,2.88.1,5.86.56,8.5.82,4.58,2.93,9.21,4.99,13.7,1.63,3.57,3.32,7.27,4.37,10.95.83,2.92,1.38,5.95,1.92,8.88.69,3.77,1.4,7.69,2.72,11.44,1.62,4.62,4.17,8.89,6.64,13.01,1.75,2.92,3.56,5.94,5.03,9.08,11.85,25.22,22.94,51.33,33.66,76.58,8.91,20.99,18.14,42.69,27.74,63.76l.04.15c.9,8.1,1.33,16.61,1.79,25.61,1.11,21.54,2.25,43.81,9.9,62.13,2.88,6.91,6.58,8.82,10.49,10.84,2.49,1.29,5.06,2.61,7.4,5.29,6.26,7.12,9.63,20.91,12.61,33.07,1.55,6.34,3.01,12.33,4.76,17.03,5.95,15.99,17.53,45.33,28.32,62.03.9,1.39,3.3,4.41,5.62,7.33,3.73,4.7,6.02,7.62,6.27,8.47.79,2.67-.14,4.74-1.04,6.74-.86,1.9-1.67,3.7-.97,5.95l61.79,138.94v.08c.82,7.49,1.28,15.04,1.71,22.33,1.19,19.91,2.31,38.71,10.21,57.71,3.37,8.12,8.01,12.75,13.78,13.77,7.71,1.37,17.76-3.99,27.58-14.68,4.54-4.95,17.82-31.96,19.19-39.05.89-4.59.99-9.87,1.07-14.97.1-5.62.19-11.42,1.33-16.57,1.85-8.38,15.28-30.69,21.05-37.09,3.01-3.33,5.83-5.59,8.31-7.6,6.38-5.12,10.23-8.22,8.16-22.93-.46-3.27-1.66-7.1-2.93-11.14-1.66-5.28-3.38-10.73-3.35-15.02,0-1.7.95-3.16,1.93-4.71.85-1.33,1.72-2.71,2.1-4.34,1.46-6.4.05-12.49-1.2-17.85-.87-3.75-1.7-7.3-1.34-10.31.27-2.3,2.78-8.07,5.2-13.65,1.83-4.22,3.56-8.21,4.32-10.64.89-2.83,1.55-6.02,2.19-9.12.86-4.19,1.76-8.52,3.24-12.03,1.55-3.69,4.08-7.52,6.76-11.59,4.41-6.71,8.98-13.64,9.6-20.57.61-6.8-.93-10.98-2.57-15.4-1.03-2.8-2.11-5.71-2.63-9.34-3.42-24.14-3.32-51.92-3.23-76.43.02-4.18.03-8.3.02-12.34,0-5.52-.31-9.72-.57-13.43-.61-8.31-1.04-14.3,2.61-27.25,4.05-14.35,9.94-28.36,15.65-41.9,4.95-11.78,10.09-23.96,13.93-36.25,5.73-18.29,10.51-38.18,15.15-57.41,2.64-10.97,5.37-22.31,8.21-33.09.71-2.69,1.27-5.74,1.87-8.96,1.32-7.18,2.69-14.6,5.96-19.76.99-1.57,2.43-3,3.81-4.38,1.17-1.17,2.39-2.38,3.3-3.64,10.59-14.71,20.55-79.59,21.65-86.94,2.59-17.24,2.3-33.63,2.02-49.49-.19-11.28-.4-22.94.42-34.92.8-11.76,3.18-23.62,5.47-35.1,2.01-10.04,4.09-20.42,5.04-30.48.97-10.23-.4-18.59-1.86-27.44-.7-4.25-1.42-8.65-1.9-13.36-3.53-35.2-2.04-70.97-.6-105.56.6-14.43,1.22-29.36,1.47-44.03.05-3.03.13-6.17.21-9.39.47-18.94.99-40.42-3.1-57.3-.63-2.59-2.19-6.67-3.84-11-2.39-6.28-4.87-12.77-4.81-15.53.14-6.12,3.61-14.8,6.97-23.19,2-4.99,3.88-9.7,4.88-13.46,4.29-16.15,3.48-33.6,2.71-50.48-.3-6.5-.61-13.22-.61-19.7,0-15.77.25-31.87.5-47.46.2-12.58.41-25.59.48-38.32.05-8.51-.19-17.21-.44-25.64-.11-3.89-.22-7.77-.31-11.63l.03-.19.27-.72c13.44-35.83,30.16-80.41,14.07-118.87-1.94-4.64-4.82-7.9-7.61-11.04-3.67-4.14-7.14-8.05-8.57-14.74-2.08-9.61-4.47-35.41-2.15-44.07.8-2.97,2.21-5.84,3.59-8.62,1.75-3.55,3.55-7.21,4.19-11.23,1.44-8.96.87-19.64.32-29.96-.53-9.97-1.07-20.29.13-29.32l.05-.16c1.1-2.13,2.84-4.13,4.53-6.05,3.39-3.86,6.58-7.51,5.41-12.41-1.11-4.65-8.36-5.59-14.2-6.36-2.43-.32-4.73-.62-6.29-1.16-1.27-.44-2.34-1.41-3.48-2.45-.91-.84-1.87-1.71-2.94-2.28-4.99-2.68-23.29-3.73-26.31,1.03-.98,1.54-5.3,23.92-6.08,28.66-.61,3.7-1.03,7.52-1.45,11.23-1.79,15.86-3.64,32.27-20.03,42.07-15.72,9.41-30.21,13.21-44.27,11.61-8.4-.95-15.46-2.6-21.69-4.07-15.32-3.58-27.42-6.41-49.64,2.23-9.69,3.76-10.73,9.71-12.05,17.26-.45,2.59-.92,5.28-1.78,8.11-1.39,4.58-3.32,8.88-5.18,13.04-2.81,6.26-5.71,12.73-6.82,20.29-.46,3.12-.76,7.64-1.07,12.41-.75,11.33-1.61,24.17-4.88,29.62-.62,1.03-1.5,1.92-2.33,2.77-1.28,1.3-2.48,2.52-2.97,4.28l-.42-.11.15.44-.94.37.03-.13c-5.58,1.33-11.4.63-17.05-.04-3.73-.44-7.39-.88-10.84-.72l.02.02Z"/>
</svg>