<?xml version="1.0" encoding="UTF-8"?>
<svg id="Layer_1" xmlns="http://www.w3.org/2000/svg" version="1.1" viewBox="0 0 151.57 173.46">
  <!-- Generator: Adobe Illustrator 29.8.1, SVG Export Plug-In . SVG Version: 2.1.1 Build 2)  -->
  <defs>
    <style>
      .st0 {
        fill: none;
        stroke: #010101;
        stroke-miterlimit: 10;
      }
    </style>
  </defs>
  <path class="st0" d="M110.51,100.6c-2.84,2.85-6.76,16.07-6.73,20.48.13,14.61,18.53,37.7,4.06,47.84-21.07,14.75-32.48-10.07-45.26-22.64-7.82,1.06-14.65,2.73-12.71,11.66l-15.41,3.81c-10.94-2.12-13.89-14.54-27.52-5.78l-2.73-4.61,3.6-6.04-7.81-8.27c10.83-4.86,8.03-19.09,11.8-24.16,1.26-1.69,4.7-2.3,6.12-3.96,1.92-2.24,1.66-5.95,3.32-7.07,2.31-1.55,7.33-.38,8.79-3.2,1.69-3.27,4.52-21.59,4.08-25.65-1.2-11.08-20.2-39.95-32.14-43.95,4.18-4.59,9.7-1.86,15.16-4.89,4.52-2.51,3.34-8.55,4.63-9.19,3.34-1.66,8.63-.09,9.96-1.29.43-.38,2.2-8.4,5.34-9.76,8.55,4.46,14.06,2.74,21.9,10.18l9.97-7.61c6.18,7.13,9.34-1.33,16.3-1.84,7.92-.59,17.98,7.59,23.78,7.22.66-.04,12.03-3.84,12.53-4.28,2.02-1.79-1.24-7.99,7.27-7.58,7.64.36,12.15,11.6,21.27,11.03,5.28,3.23-5.11,27.73-5.73,32.43-.49,3.72,1.87,7.43,1.72,11.49-.24,6.15-12.54,28.02-17.06,33.11-5.83,6.57-14.84,8.84-18.5,12.5v.02Z"/>
</svg>