<?xml version="1.0" encoding="UTF-8"?>
<svg id="Layer_1" xmlns="http://www.w3.org/2000/svg" version="1.1" viewBox="0 0 203.6 130.11">
  <!-- Generator: Adobe Illustrator 29.8.1, SVG Export Plug-In . SVG Version: 2.1.1 Build 2)  -->
  <defs>
    <style>
      .st0 {
        fill: none;
        stroke: #010101;
        stroke-miterlimit: 10;
      }
    </style>
  </defs>
  <path class="st0" d="M123.77,11.7c5,2.94,18.03-6.41,22.61-9.58l1,6.01c3.56,1.14,4.69-3.02,7.25-3.5,2.68-.5,7.14,2.01,11.57,1.5,5.22-.6,9.81-7.5,14.2,2.05,3.2,6.96-3.46,10.46-4.4,17.25-.28,2.04,1.95,5.73,1.35,6.56-.35.47-4.93.83-6.81,2.3-4.88,3.83-.6,7.08-11.15,4.7-18.38,28.71,22.29,18.49,34.01,24.11,1.82.87,8.3,10.66,9.07,12.95,3.52,10.52-2.05,6.9-5.26,10.98-1.13,1.43-4.62,12.35-5.63,13.89-1.3,1.99-4.83.36-6.36,2.4-1.19,1.58-4.72,13.95-5.88,14.79-7.24-5.74-21.97-10.57-28.17-1.01-1.99,3.07.35,6.96-1.6,8.09-4.19,2.43-16.04-.33-22.16,4.92l-2.27-6.8c-6.38-3.14-27.99-31.34-31.71-32.43-4.28-1.24-7.9,1.39-12.52.88-13.76-1.52-17.75-10.71-34.68-1.7-3.08,1.64-5.58,5.84-6.26,5.99-10.96,2.39-21.96-4.39-32.46.01-3.39-2.49-7.07-31.49-6.05-36.87.59-3.12,3.88-5.57,3.89-8.08S-.09,41.1,0,34.69c.19-13.43,10.25-5.7,14.09-6.76,3.01-.83,3.57-6.83,6.57-7.65,5.18-1.42,10.14,6.58,15.71-6.14,6.2,7.18,10.55,11.6,18.96,3.96-1.2,8.85,19.47,5.66,24.86,4.11,2.37-.68.11-4.7,2.36-6.31,2.55-1.81,9.5-1.25,11.81-5.68l-.98-10.12c.86-.88,22.04,4.15,24.12,4.86,5.02,1.71,5.14,6.05,6.27,6.71v.03h0Z"/>
</svg>