<?xml version="1.0" encoding="UTF-8"?>
<svg id="Layer_1" xmlns="http://www.w3.org/2000/svg" version="1.1" viewBox="0 0 147.28 117.23">
  <!-- Generator: Adobe Illustrator 29.8.1, SVG Export Plug-In . SVG Version: 2.1.1 Build 2)  -->
  <defs>
    <style>
      .st0 {
        fill: none;
        stroke: #010101;
        stroke-miterlimit: 10;
      }
    </style>
  </defs>
  <path class="st0" d="M130.42,29.68c4.84-2.81,10.3-.56,12.56,4.54.55,1.25-.94,23.15-5.53,22.97-6.56-4.63-15.31-7.25-22.78-3.26-3.22,5.03,6.95,24.14,11.69,26.66,1.78.95,4.23-1.31,5.56-.55,4.96,2.79,11.73,18.64,14.47,23.59-6.76-.52-9.01,9.32-12.01,11.01-7.17,4.04-56.38,1.97-62.03-3.99-1.94-2.04-1.46-5.89-2.29-6.63-.55-.49-13.4-2.48-14.63-2.37-7.38.67-7.85,13.42-25.76,11.82-12.66-1.13-15.15-7.14-23.23-14.92-1.74-1.67-5.52-2.69-5.85-3.19s.3-11.78.43-12.38c.65-3.02,4.5-5.17,4.86-8.54.29-2.73-2.1-5.83-1.2-9.33s6.11-5.56,7.8-8.37c14.71-24.54,11.97-25.73,39.95-38.06,4.32-1.9,10.8-2.17,13.87-4.13,3.64-2.32,5.33-11.22,9.43-12.57,1.67-.55,20.77-1.91,22.53-1.34,4.07,1.32,27.62,14.97,30.12,18.05,2.94,3.61,2.15,6.81,2.04,10.98h0Z"/>
</svg>