<?xml version="1.0" encoding="UTF-8"?>
<svg id="Layer_1" xmlns="http://www.w3.org/2000/svg" version="1.1" viewBox="0 0 210.91 220.64">
  <!-- Generator: Adobe Illustrator 29.8.1, SVG Export Plug-In . SVG Version: 2.1.1 Build 2)  -->
  <defs>
    <style>
      .st0 {
        fill: none;
        stroke: #010101;
        stroke-miterlimit: 10;
      }
    </style>
  </defs>
  <path class="st0" d="M206.73,16.25c-1.6,2.16-6.48,2.8-6.91,7.98-.53,6.44,11.89,14.72-8.4,16.69-1.7,7.18,9.96,3.65,11.85,9.26.66,19.85-14.04,11.77-24.58,15.06-.81.25-9.39,9.79-12.22,11.7-1.67,1.13-15.48,9.41-16.42,9.64-3.69.9-11.06-3.27-15.71.15-4.72,4.66-4.11,17.03-5.13,17.95s-5.53-.32-7.8,1.14c-4.49,2.89-1.72,10.51-2.18,10.85-1.06.78-4.71-.14-6.79,2.2-2.78,3.13-5.67,20.18-10.98,25.04,0,7.29,10.75,11.7,11.83,13.27.85,1.23-1.78,4.65-1.66,6.8.23,4.03,4.32,7.01,3.94,15.98-.5,12.02-2.78,9-9.43,13.67-1.36.96-1.44,3.69-4.07,4.85-7.16,3.17-20.61-1.7-24.77,1.29l-1.86,9.13c-6.26.81-5.14-7.52-11.01-8.11-8.24-.82-11.19,9.26-18.96,8.12-.84-14.09-13.99-8.77-8.16,3.74l-16.92,7.49c-11.81.48-23.35-40.24-18.92-49.71.61-1.31,16.28-10.85,21.27-19.23,2.4-4.04,11.37-22.44,12.62-25.87,2.31-6.34-4.01-6.94,9.92-6.72-1.19-7.54,4-4.82,7.12-7.68,2.44-2.25,3.4-8.47,6.2-11.85,5.49-6.64,20.17-5.25,28.88-8.17-2.21-11.79,6.34-22.4-4.02-33.96l12.08-3.14c2.21-6.09-11.89-14.1-9.09-18.89s1.88,2.69,8.02,2.21c6.8-.53,4.78-4.17,6.22-4.32,3.82-.4,9.67,5.52,10.54-2.58l-3.66-7.15c7.79-5.9,13.85-10.39,23.33-13.7,3.2-1.12,7.68.22,11.15-.85,9.97-3.08,1.88-4.93,18.65-3.8,5.85.4,8.53-4.11,13.76,4.17,2.94-1.23,4.31-7.49,6.41-8,2.69-.66,22.83-.47,25.25.36,7.32,2.5,3.72,10.88.64,15.03l-.03-.04h0Z"/>
</svg>