<?xml version="1.0" encoding="UTF-8"?>
<svg id="Layer_1" xmlns="http://www.w3.org/2000/svg" version="1.1" viewBox="0 0 1920 2214">
  <!-- Generator: Adobe Illustrator 29.8.1, SVG Export Plug-In . SVG Version: 2.1.1 Build 2)  -->
  <defs>
    <style>
      .st0 {
        stroke: #020202;
      }

      .st0, .st1, .st2 {
        fill: none;
        stroke-miterlimit: 10;
      }

      .st1 {
        stroke: red;
      }

      .st2 {
        stroke: #000;
      }
    </style>
  </defs>
  <g>
    <path class="st2" d="M372.83,110.77c1.49,2.56.79,12.46-.6,15.56-.59,1.32-17.77,19.73-19.65,21.34-11.38,9.75-31.34,19.37-43.13,29.88-6.59,5.88-13.88,17.58-20.19,23.81-33.6,33.18-100.06,88.07-118.79,129.21-12.11,26.59,14.21,59.85,2.95,88.46-5.47,5.27-18.44,6.44-23.08,11.41-5.99,6.42-7.37,21.29-12.94,27.06-9.33,9.65-32.9,17.15-44,26-3.74,2.98-18.76,23.88-22.12,20.86-9.06-24.77-12.44-56.79-22.5-80.51-3.1-7.31-26.41-39.41-24.57-43.52,7.37-8.96,17.98-16.19,25.85-24.17,4.85-4.92,9.42-12.84,14.22-17.78,83.46-85.7,160.89-161.83,231.86-260.14,4.2-5.82,5.5-13.92,11.08-19l65.61,51.54h0Z"/>
    <line class="st1" x1="181.56" y1="43.11" x2="181.56" y2="453.33"/>
  </g>
  <g>
    <path class="st2" d="M517.88,80.99l-3.96-20,21.78,6.19c1.33,5.78-1.63,14.66,1.21,19.79,3.42,6.18,23.12,8.62,26.53,25.48,3.3,16.28-12.95,13.67-21.51,23.53l11.81,8.28c-1.85,7.83-.36,18.35-1.92,25.67-.22,1.03-8.28,18.22-8.92,19.06-4.53,5.95-14.19,2.73-11.02,15.98,4,.49,8.88-.86,12.65.04,1.53.37,1.24,3.65,2.73,3.99,1.94.44,16.98-1.7,19.16-2.5,11.2-4.09,2.4-13.37.48-19.52-4.64-14.82-.77-9.5,2.82-14.29,1.03-1.37-3.02-5.72-.96-9.7,1.32-2.54,6.77-4.6,9.27-6.93,2.1-1.96,2.74-4.73,4.52-6.45,1.56-1.51,5.18-.06,6.99-3.97,8.58-18.55-7.88-21.02-13.44-29.87-4.2-6.7-4.44-33.86-.38-39.51,4.54-6.33,24.1,1.88,31.35-2.67,3.17.46,12.05,15.62,13.41,16.82,1.49,1.32,6.23,1.95,8.93,3.83,9.38,6.55,3.7,16.81,4.87,25.19,1.06,7.6,6,17.69,5.8,26.25-.56,2.85-16.81,4.27-14.2,12.27.35,1.75,12.4,2.06,11.94,13.82-.25,6.32-5.77,20.03-13.91,15.21,1.23,2.69,3.05,3.83,3.87,7.15.56,2.25,2.13,24.22,1.85,25.47-1.47,6.51-10.51,3.07-9.77,8.4,10.37,11.55,15.72,27.15,32.09,30.01-3.76,4.89-3.41,11.37-5.89,16.11-8.5,16.27-16.78,13.08-13.64,37.34,3.19,24.62,5.25,18.92,22.84,27.15,11.68,5.46,23,11.86,34.63,17.35l-8.02,17.01-11.52-6.43c-2.05-11.2-7.03-5.63-16.45-7.58l-.02,8.01-5.97-1.99.07,11.92c20.69.9,20.42,9.19,18.05,26.86-13.22.81-7.51,18.84-12.07,22.28-1.76,1.33-6.68,1.16-9.49,2.51-4.92,2.37-15.4,10.85-20.51,7.5-2.95-1.94-8.86-11.49-11.88-14.19s-7.57-3.38-11.32-6.73c-6.14-5.49-10.68-15.23-15.86-20.15-7.17-6.82-35.59-23.65-36.45-5.42-.07,1.43,3.93,24.4,4.57,25.53.89,1.59,11.1,7.4,14.75,11.51,1.01,1.13,11.39,11.59,5.08,12.4-5.19.66-19.35-12.35-25.95,3.99-20.47-27.41-19.23,15.22-39,18-1.33-7.62,6.53-8.63,7.95-15.08,2.18-9.92-5.83-7.88-3.96-16.93-4.29-.96-7.31,2.56-10.93,3.1s-10.58-4.57-5.72,4.95c4.41.55,11.21,2.03,10.63,7.96-7.3-4.52-14.84-10.65-23.98-9.98l1.88,5.72c-17.13,7.1,4.3,15.2,5.79,19.6,1.4,4.16-.86,10.18,2.33,14.65-1.86,1.49-11.93-7.55-17.1-7.88-3.72-.24-23.16,4.74-25.07,7.23-5.06,11.9,6.23,12.29,12.69,16.63,2.57,1.72,2.3,4.66,7.43,7.09,3.75,1.77,10.49,2.42,14.77,4.68l11.26-11.71c-.82,6.44-1.61,21.55-4.33,26.66-2.1,3.95-5.7,2.46-7.11,3.87-1.27,1.28-.63,5.25-2.4,6.55-3.32,2.43-22.67.32-29.03,1.02-4.66.52-18.5,3.24-23.64,4.36-11.77,2.56-22.11,13.19-30.94,15.04-5.89,1.24-28.88-3.87-33.45-7.59-8.43-6.87-4.57-24.16,6.67-22.14.68-3.61,1.14-6.55,3.33-9.71,6.94-10.01,16.65-7.09,11.05-21.9,5.94-2.4,15.79-4.77,13.87-12.16l-11.97,3.99-8.02-23.09,3.83-1.8-1.84-5.1c8.06-1.55,17.67.72,21-7.97,6.73,4.1,5.48,13.84,12.22,17.74s12.86,1.33,19.68,2.31c3.75.54,6.72,3.59,10.2,3.86,6.49.5,13.02-4.1,16.89-8.96-8.88.38-18.21-.38-26.9-3.07-18.03-5.58-14.14-14.77-19.66-30.35-.98-2.76-3.81-4.39-4.88-7.1-3.53-8.95-1.98-18.77,1.38-27.63,7.5-2.14,17,3.01,22.79,3.04,8.08.05,20.34-8.57,23.9-7.64,4.47,1.37,5.99,9.23,9.26,10.69,1.68.75,5.16-1.17,9.45.57,12.85,5.2,24.16,17.47,35.96,22.37,3.36,1.39,10.75,3.36,12.22-1.05l.36-16.71c-7.69,2.03-10.76-7.26-13.04-7.8-1.72-.41-5.49,1.95-9.32,1.38-2.64-.39-26.99-8.51-31.86-10.22-10.32-3.62-15.54-12.84-29.49-7.17l-.17,5.72c-7.88,1.3-7.15-5.77-8.58-7.29-4.12-4.38-11.4-8.91-12.52-16.61-.39-2.68,2.88-4.5,3.14-7.2.45-4.73-3.57-7.63-3.77-11.78s3.59-11.31,3.11-14.25-8.82-3.39-7.35-8.87l34.17,4.96,7.71-1.08.2-6.73c-7.76-3.8-15.31-4.9-19.52-13.23l-24.06,4.74c-7.12-2.99-2.59-20.41,3.37-21.88,7.04-1.73,9.36,4.7,16.36,4.18,1.87-.14,21.73-4.71,24.26-5.43,8.42-2.39,23.76-7.55,21.15-18.39-.61-2.52-5.14-3.02-6.59-5.25-1.81-2.79-.45-7.64-4.12-9.89-4.24-.95-10.46,10.26-13.09,12.91-3.92,3.93-11.1,2.01-9.9,13.07-13.25-10.87-.56-14.55,3.89-21.67,5.84-9.35,4.28-16.11,6.64-24.82,3.19-11.8,7.34-23.44,9.52-35.5l19.97,3.99c2.61-3.02-.21-50.16-15.73-45.71l-19.26,27.68c-14.21-15.05-32.06-23.66-33.1-46.91-.46-10.35.12-25.78,12.05-28.15,3.51-.7,6.49,1.69,9.96.19,6.7-2.89,12.59-23.56,11.93-30.99l-5.84-1.09c5.66-11.05,19.34-14.55,16.01-29.01l55.96,40,.03-.03h0Z"/>
    <line class="st1" x1="525.15" y1="30.59" x2="525.15" y2="547.97"/>
  </g>
  <g>
    <path class="st2" d="M1401.61,218.68c-2.84,2.85-6.76,16.07-6.73,20.48.13,14.61,18.53,37.7,4.06,47.84-21.07,14.75-32.48-10.07-45.26-22.64-7.82,1.06-14.65,2.73-12.71,11.66l-15.41,3.81c-10.94-2.12-13.89-14.54-27.52-5.78l-2.73-4.61,3.6-6.04-7.81-8.27c10.83-4.86,8.03-19.09,11.8-24.16,1.26-1.69,4.7-2.3,6.12-3.96,1.92-2.24,1.66-5.95,3.32-7.07,2.31-1.55,7.33-.38,8.79-3.2,1.69-3.27,4.52-21.59,4.08-25.65-1.2-11.08-20.2-39.95-32.14-43.95,4.18-4.59,9.7-1.86,15.16-4.89,4.52-2.51,3.34-8.55,4.63-9.19,3.34-1.66,8.63-.09,9.96-1.29.43-.38,2.2-8.4,5.34-9.76,8.55,4.46,14.06,2.74,21.9,10.18l9.97-7.61c6.18,7.13,9.34-1.33,16.3-1.84,7.92-.59,17.98,7.59,23.78,7.22.66-.04,12.03-3.84,12.53-4.28,2.02-1.79-1.24-7.99,7.27-7.58,7.64.36,12.15,11.6,21.27,11.03,5.28,3.23-5.11,27.73-5.73,32.43-.49,3.72,1.87,7.43,1.72,11.49-.24,6.15-12.54,28.02-17.06,33.11-5.83,6.57-14.84,8.84-18.5,12.5v.02Z"/>
    <line class="st1" x1="1364.82" y1="97.3" x2="1364.82" y2="293.63"/>
  </g>
  <g>
    <path class="st2" d="M1176.46,129.71c-.12,10.34,18.4,16.42,19.95,23.1,1.73,7.48-7.01,16.9-4.62,24.62l-2.02,1.92c-3.12-2.57-13.7-3.51-14.52.98-.18,9.97,6.58,13.08,9.48,21.08-9.94-.72-14.25,5.34-22.18,8.78-3.16,1.37-8.11.86-9.91,2.13-2.83,1.99-1,9.85-4.8,10.62-16.77-4.73-30.3-.67-45.09,6.51l11.98,13.97c-5.8-1.67-10.39-4.97-16.51-6.66-3.18-.88-5.44.22-8.11-.11-4.79-.6-7.63-5.35-15.35.79l-.02-6.02-5.99.02,1.99,5.97-7.99-2.01,4-7.96c-5.28-.07-13.32-2.25-12.11-8.92.21-1.17,4.78-1.96,6.62-5.56,8.32-16.3,3.77-33.38,31.49-29.55,2.32-6.73-4.12-9.31-5.39-13.28-1.43-4.49,2.41-16.06,1.48-21.73-.63-3.85-9.9-6.89-6.09-10.96,2.67-2.85,8.98,10.79,13.97,1.98l1.22,6.13c6.2-1.57,10.58,2.81,15.95,3.68,2.48.4,22.37-3.02,25.45-3.75,2.03-.48,1.89-4.07,3.4-4.95,3.27-1.91,7.81-.81,11.49-2.6,6.67-3.24,11.98-11.42,22.22-8.21h.01Z"/>
    <line class="st1" x1="1128.69" y1="118.72" x2="1128.69" y2="248.22"/>
  </g>
  <g>
    <path class="st2" d="M1385.9,324.37c5,2.94,18.03-6.41,22.61-9.58l1,6.01c3.56,1.14,4.69-3.02,7.25-3.5,2.68-.5,7.14,2.01,11.57,1.5,5.22-.6,9.81-7.5,14.2,2.05,3.2,6.96-3.46,10.46-4.4,17.25-.28,2.04,1.95,5.73,1.35,6.56-.35.47-4.93.83-6.81,2.3-4.88,3.83-.6,7.08-11.15,4.7-18.38,28.71,22.29,18.49,34.01,24.11,1.82.87,8.3,10.66,9.07,12.95,3.52,10.52-2.05,6.9-5.26,10.98-1.13,1.43-4.62,12.35-5.63,13.89-1.3,1.99-4.83.36-6.36,2.4-1.19,1.58-4.72,13.95-5.88,14.79-7.24-5.74-21.97-10.57-28.17-1.01-1.99,3.07.35,6.96-1.6,8.09-4.19,2.43-16.04-.33-22.16,4.92l-2.27-6.8c-6.38-3.14-27.99-31.34-31.71-32.43-4.28-1.24-7.9,1.39-12.52.88-13.76-1.52-17.75-10.71-34.68-1.7-3.08,1.64-5.58,5.84-6.26,5.99-10.96,2.39-21.96-4.39-32.46.01-3.39-2.49-7.07-31.49-6.05-36.87.59-3.12,3.88-5.57,3.89-8.08s-5.44-10.01-5.35-16.42c.19-13.43,10.25-5.7,14.09-6.76,3.01-.83,3.57-6.83,6.57-7.65,5.18-1.42,10.14,6.58,15.71-6.14,6.2,7.18,10.55,11.6,18.96,3.96-1.2,8.85,19.47,5.66,24.86,4.11,2.37-.68.11-4.7,2.36-6.31,2.55-1.81,9.5-1.25,11.81-5.68l-.98-10.12c.86-.88,22.04,4.15,24.12,4.86,5.02,1.71,5.14,6.05,6.27,6.71v.03h0Z"/>
    <line class="st1" x1="1366.88" y1="302.83" x2="1366.88" y2="444.16"/>
  </g>
  <g>
    <path class="st2" d="M1119.11,272.13l-1.97,7.88c6.58-.98,20.34,4.83,25.55,1.42.93-.61-.54-5.11,4.41-3.4,1.45,1.1,5.77,18.18,7.92,21.11,2.53,3.44,14.57,12.08,18.27,16.23-9.63,18.02,17.55,11.39,19.83,21.69,1.13,5.1-8.06,4.04-11.79,8.15-3.36,3.7-5.72,10.78-.24,13.82-4.67,2.71-15.53,9.97-18.07,14.39-2.82,4.9-1.04,13.47-3.71,17.33-3.43,4.95-20.48-.75-18.21,11.29-8.66-2.39-18.28-5.68-26.93-2.07l-2.1-1.93c-.19-11.39-11.67-12.97-4.93-28.01-9.43,4.03-19.95-10.95-25.38-11.77-3.82-.57-7.22,9.86-14.1,3.21-6.58-6.36-3.35-14.01,5.47-15.49-9.95-12.44-6.55-34.06-3.89-48.85l-4.1-3.09c12.26-3.98,21.43,7.93,33.98,5.97l-7.99-11.97c9.49,1.65,9.21-13.53,14.29-19.75l13.68,3.85h0Z"/>
    <line class="st1" x1="1126.6" y1="266.27" x2="1126.6" y2="412.71"/>
  </g>
  <g>
    <path class="st2" d="M1182.55,457.72c4.84-2.81,10.3-.56,12.56,4.54.55,1.25-.94,23.15-5.53,22.97-6.56-4.63-15.31-7.25-22.78-3.26-3.22,5.03,6.95,24.14,11.69,26.66,1.78.95,4.23-1.31,5.56-.55,4.96,2.79,11.73,18.64,14.47,23.59-6.76-.52-9.01,9.32-12.01,11.01-7.17,4.04-56.38,1.97-62.03-3.99-1.94-2.04-1.46-5.89-2.29-6.63-.55-.49-13.4-2.48-14.63-2.37-7.38.67-7.85,13.42-25.76,11.82-12.66-1.13-15.15-7.14-23.23-14.92-1.74-1.67-5.52-2.69-5.85-3.19s.3-11.78.43-12.38c.65-3.02,4.5-5.17,4.86-8.54.29-2.73-2.1-5.83-1.2-9.33s6.11-5.56,7.8-8.37c14.71-24.54,11.97-25.73,39.95-38.06,4.32-1.9,10.8-2.17,13.87-4.13,3.64-2.32,5.33-11.22,9.43-12.57,1.67-.55,20.77-1.91,22.53-1.34,4.07,1.32,27.62,14.97,30.12,18.05,2.94,3.61,2.15,6.81,2.04,10.98h0Z"/>
    <line class="st1" x1="1128.69" y1="419.36" x2="1128.69" y2="554.69"/>
  </g>
  <g>
    <path class="st2" d="M1234.25,581.46c-1.6,2.16-6.48,2.8-6.91,7.98-.53,6.44,11.89,14.72-8.4,16.69-1.7,7.18,9.96,3.65,11.85,9.26.66,19.85-14.04,11.77-24.58,15.06-.81.25-9.39,9.79-12.22,11.7-1.67,1.13-15.48,9.41-16.42,9.64-3.69.9-11.06-3.27-15.71.15-4.72,4.66-4.11,17.03-5.13,17.95s-5.53-.32-7.8,1.14c-4.49,2.89-1.72,10.51-2.18,10.85-1.06.78-4.71-.14-6.79,2.2-2.78,3.13-5.67,20.18-10.98,25.04,0,7.29,10.75,11.7,11.83,13.27.85,1.23-1.78,4.65-1.66,6.8.23,4.03,4.32,7.01,3.94,15.98-.5,12.02-2.78,9-9.43,13.67-1.36.96-1.44,3.69-4.07,4.85-7.16,3.17-20.61-1.7-24.77,1.29l-1.86,9.13c-6.26.81-5.14-7.52-11.01-8.11-8.24-.82-11.19,9.26-18.96,8.12-.84-14.09-13.99-8.77-8.16,3.74l-16.92,7.49c-11.81.48-23.35-40.24-18.92-49.71.61-1.31,16.28-10.85,21.27-19.23,2.4-4.04,11.37-22.44,12.62-25.87,2.31-6.34-4.01-6.94,9.92-6.72-1.19-7.54,4-4.82,7.12-7.68,2.44-2.25,3.4-8.47,6.2-11.85,5.49-6.64,20.17-5.25,28.88-8.17-2.21-11.79,6.34-22.4-4.02-33.96l12.08-3.14c2.21-6.09-11.89-14.1-9.09-18.89s1.88,2.69,8.02,2.21c6.8-.53,4.78-4.17,6.22-4.32,3.82-.4,9.67,5.52,10.54-2.58l-3.66-7.15c7.79-5.9,13.85-10.39,23.33-13.7,3.2-1.12,7.68.22,11.15-.85,9.97-3.08,1.88-4.93,18.65-3.8,5.85.4,8.53-4.11,13.76,4.17,2.94-1.23,4.31-7.49,6.41-8,2.69-.66,22.83-.47,25.25.36,7.32,2.5,3.72,10.88.64,15.03l-.03-.04h0Z"/>
    <line class="st1" x1="1128.49" y1="565.71" x2="1128.49" y2="783.04"/>
  </g>
  <g>
    <path class="st2" d="M1410.31,661.26c-.49.86-3.39-.06-3.16,3.47.29,4.52,3.38,12.49,5.59,16.68,3.61,6.85,9.62,10.04,13.26,14.74,1.89,2.43,1.62,6.46,3.19,8.4,4.71,5.81,14.34,9.29,18.01,14.39,5.82,8.08-14.94,9.9-20.81,13.31-7.62,4.43-2.48,8.5-3.26,9.61-.41.58-8.1,1.7-10.37,2.75-8.51,3.91-12.05,10.55-22.36,5.11-9.68-5.1-10.67-17.62-27.3-12.89l-1.78,8.99c8.6.29,6.49,4.86,8.98,7.91,3.02,3.69,6.8,2.33,7.08,9.26.22,5.21-2.89,7.3-3.27,9.98s1.81,6.42,1.14,9.63c-.15.72-10.82,8.78-11.52,8.99-13.55,4.18-36.7-6.43-50.62-7.6l2-11.98-11.99,3.97c2.43-5.41,9.25-7.98,11.47-13.51,1.18-2.92,4.68-24.47,4.47-27.38-.52-7.21-9.38-14.46,6.05-19.13-2.82-5.72-7.4-14.39-6.14-20.87.39-2.01,4.13-.45,5.48-1.6,3.02-2.58,3.06-8.73,10.61-7.57l.04-5.88c-3.11.4-6.35-1.93-9.11-1.89-2.51.04-7.78,6.55-8.88.82-.75-3.93,5.86-5.28,8.09-7.95,1.5-1.8,1.36-5.03,2.57-6.34,8.7-9.51,26.21-7.02,36.28-.66,3.29-.7,4.78-13.18,7.58-15.52,3.19-2.67,9.94-.3,13.92-.87,2.81-.4,5.63-3.71,8.61-3.64,3.62.09,4.85,4.01,7.1,4.93,5.64,2.31,15.8.44,9,12.34h.05Z"/>
    <line class="st1" x1="1367.93" y1="640.66" x2="1367.93" y2="745.66"/>
  </g>
  <g>
    <path class="st2" d="M1325.91,470.04c-.82-6.92,9.55-3.68,14.72-3.65,13.27,11.12,21.53,29.73,40.8,29.2,2.54-.07,13.66-7.53,23.96-6.99,1.21.06,16.94,7.77,11.6-2.56-1.18-2.28-9.89-8.48.35-6.38,6.97,3.03,5.03,12.64,7.11,18.9,1.53,4.62,8.46,5.65,3.34,12.32-3.78,4.92-9.98,2.95-14.48,5.55-6.72,3.88-2.75,3.5-12.75,7.22-12.78,4.75-11.5,19.38-12.63,31.03l18.06,24.4-.03,2.98c-9.51-2.34-9.89,12.72-7.76,18.79,1.25,3.53,6.11,1.83,5.74,5.21-5.07-1.07-7.73,4.04-10.98,5.02-10.34,3.11-14.4-4.47-22.16-4.86-6.39-.32-20.94,1.41-19.05,9.77l-7.54-.22-10.27-19.67h8.02c-.38-13.46-4.65-28.6,7.02-38.09l8.96,4.06c-.16-15.98-16.22-7.09-25-7.81-13.47-1.1-2.9-11.37-3.68-17.26-.6-4.51-9.95-1.95-7.26-13.82,1.59-7.01,11.47-10.03,11.95-18.25.82-14.35-21.26-22.19-13.97-38.84l5.94,3.98v-.03h0Z"/>
    <line class="st1" x1="1367.98" y1="453.36" x2="1367.98" y2="633.36"/>
  </g>
  <g>
    <path class="st0" d="M842.98,588.52c-.36.02-.72,0-1.08-.07-1.86-.33-3.34-1.79-4.41-4.36-2.41-5.81-2.75-11.53-3.12-17.6-.13-2.2-.27-4.48-.51-6.73l-18.72-42.1c-.25-.81.03-1.43.3-2.04.26-.58.51-1.13.3-1.83-.07-.22-1.06-1.46-1.85-2.46-.74-.93-1.44-1.81-1.72-2.25-3.29-5.09-6.81-14-8.62-18.87-.53-1.44-.98-3.27-1.45-5.19-.89-3.65-1.91-7.79-3.76-9.9-.67-.77-1.43-1.16-2.16-1.53-1.18-.61-2.41-1.25-3.32-3.44-2.34-5.6-2.69-12.38-3.02-18.94-.14-2.72-.27-5.28-.54-7.72-2.91-6.39-5.7-12.96-8.4-19.31-3.25-7.65-6.61-15.57-10.2-23.21-.44-.94-.98-1.85-1.51-2.73-.76-1.26-1.54-2.57-2.04-4-.41-1.16-.62-2.36-.84-3.51-.16-.88-.33-1.79-.58-2.67-.31-1.09-.82-2.2-1.31-3.28-.63-1.38-1.28-2.8-1.53-4.23-.15-.83-.16-1.74-.17-2.63-.02-1.12-.04-2.28-.33-3.23-.38-1.23-1.85-3.64-3.27-5.95-.97-1.59-1.89-3.1-2.42-4.16-4.04-8.11-7.42-15.44-10.03-21.77-1.93-4.69.54-5.9,3.4-7.29.73-.35,1.49-.72,2.21-1.17,13.99-8.55,22.37-24,30.47-38.94,3.82-7.04,7.43-13.69,11.59-19.71,1.27-3.44,2.56-6.82,3.82-10.09,5.19-13.56,10.1-26.37,12.64-41.49.97-5.76,2.22-11.27,3.42-16.6.98-4.33,1.99-8.8,2.84-13.34,2.3-12.36,4.49-27.19,6-40.68.15-1.28.21-3.04.29-5.08.2-5.11.44-11.48,2.11-13.86,2.06-2.94,4.91-2.6,7.93-2.24,1.74.21,3.54.42,5.22-.02.18-.56.57-.96.95-1.35.25-.26.49-.5.66-.79.96-1.59,1.22-5.61,1.44-8.84.1-1.46.19-2.83.33-3.79.34-2.33,1.23-4.31,2.09-6.23.56-1.25,1.14-2.54,1.56-3.91.25-.84.39-1.65.53-2.42.4-2.29.75-4.26,3.84-5.47,6.82-2.66,10.53-1.79,15.23-.69,1.97.46,4.01.94,6.54,1.22,4.2.48,8.53-.66,13.23-3.48,4.84-2.9,5.37-7.57,5.92-12.53.13-1.12.26-2.29.44-3.42.16-.98,1.53-8.25,1.89-8.8,1.03-1.63,6.71-1.31,8.38-.42.36.19.66.47.95.73.32.29.62.57.95.68.44.15,1.12.24,1.85.34,1.86.24,4.18.55,4.57,2.16.39,1.64-.68,2.86-1.71,4.04-.52.59-1,1.15-1.32,1.75-.36,2.7-.19,5.81-.03,8.81.17,3.15.34,6.4-.1,9.15-.2,1.26-.76,2.4-1.3,3.49-.43.87-.83,1.69-1.07,2.56-.67,2.49.02,10.29.65,13.22.42,1.95,1.45,3.11,2.53,4.33.86.97,1.76,1.98,2.36,3.43,4.92,11.77-.17,25.35-4.26,36.26l-.07.19c.02,1.16.06,2.33.09,3.49.07,2.56.15,5.2.13,7.78-.02,3.87-.08,7.81-.15,11.62-.08,4.72-.15,9.6-.15,14.38,0,1.96.1,3.99.18,5.96.24,5.14.48,10.46-.83,15.4-.31,1.16-.88,2.6-1.49,4.12-1.01,2.52-2.05,5.13-2.09,6.93-.02.78.75,2.8,1.44,4.59.5,1.32.98,2.57,1.18,3.37,1.25,5.16,1.09,11.69.95,17.45-.02.98-.05,1.93-.06,2.84-.08,4.45-.26,8.98-.45,13.36-.44,10.48-.89,21.31.18,31.96.14,1.42.36,2.75.57,4.03.45,2.7.86,5.26.57,8.4-.29,3.07-.92,6.22-1.53,9.27-.7,3.47-1.41,7.06-1.66,10.6-.25,3.62-.18,7.15-.12,10.56.08,4.82.17,9.81-.62,15.05-.55,3.65-3.43,22.07-6.62,26.49-.29.4-.67.78-1.03,1.14-.41.41-.83.83-1.12,1.28-.96,1.51-1.37,3.74-1.76,5.88-.18.98-.35,1.91-.57,2.74-.86,3.27-1.69,6.7-2.49,10.02-1.4,5.84-2.86,11.87-4.6,17.43-1.17,3.74-2.73,7.44-4.24,11.02-1.73,4.1-3.51,8.33-4.73,12.67-1.09,3.87-.96,5.67-.78,8.16.08,1.13.17,2.41.18,4.09,0,1.22,0,2.47,0,3.74-.02,7.42-.05,15.83.98,23.13.15,1.07.47,1.93.78,2.77.49,1.31.99,2.67.8,4.8-.2,2.18-1.6,4.31-2.96,6.38-.8,1.22-1.56,2.37-2.02,3.46-.44,1.04-.71,2.33-.96,3.59-.2.94-.4,1.92-.67,2.79-.24.75-.76,1.97-1.32,3.25-.72,1.67-1.48,3.4-1.55,4.05-.1.86.13,1.86.4,3.02.39,1.66.82,3.54.36,5.55-.12.55-.42,1-.68,1.41-.29.45-.54.84-.54,1.27,0,1.25.5,2.88,1,4.46.39,1.24.76,2.41.9,3.43.65,4.63-.63,5.67-2.59,7.23-.75.6-1.59,1.28-2.49,2.27-1.73,1.92-5.76,8.6-6.31,11.11-.34,1.53-.37,3.28-.4,4.96-.03,1.56-.05,3.17-.33,4.59-.42,2.18-4.5,10.47-5.89,11.99-1.6,1.74-4.56,4.47-7.56,4.61h0v-.02ZM830.09,132.43c-1.66.08-3.16.62-4.35,2.33-1.62,2.31-1.86,8.62-2.06,13.69-.08,2.05-.15,3.81-.29,5.1-1.51,13.49-3.7,28.33-6,40.7-.85,4.55-1.86,9.03-2.84,13.36-1.21,5.32-2.45,10.83-3.42,16.59-2.54,15.14-7.46,27.97-12.66,41.55-1.26,3.27-2.55,6.66-3.82,10.11l-.02.03c-4.17,6.01-7.77,12.66-11.59,19.7-8.12,14.98-16.52,30.46-30.58,39.06-.74.45-1.5.82-2.24,1.18-2.83,1.38-5.08,2.47-3.25,6.89,2.61,6.34,5.98,13.66,10.02,21.76.53,1.06,1.44,2.55,2.41,4.14,1.42,2.33,2.9,4.75,3.29,6.02.31.99.32,2.17.34,3.31.02.87.03,1.78.17,2.58.25,1.39.89,2.79,1.51,4.15.49,1.08,1.01,2.2,1.32,3.32.25.89.42,1.8.58,2.69.21,1.14.42,2.33.82,3.47.49,1.4,1.26,2.7,2.01,3.94.53.89,1.08,1.8,1.53,2.75,3.59,7.65,6.96,15.56,10.21,23.22,2.7,6.36,5.5,12.94,8.41,19.33v.05c.28,2.46.42,5.04.55,7.76.34,6.53.68,13.28,3,18.84.87,2.1,1.99,2.67,3.18,3.29.75.39,1.53.79,2.24,1.6,1.9,2.16,2.92,6.34,3.82,10.03.47,1.92.91,3.74,1.44,5.16,1.8,4.85,5.31,13.74,8.59,18.81.27.42,1,1.34,1.7,2.22,1.13,1.42,1.83,2.31,1.9,2.57.24.81-.04,1.44-.32,2.04-.26.58-.51,1.12-.29,1.8l18.73,42.12v.02c.25,2.27.39,4.56.52,6.77.36,6.04.7,11.74,3.1,17.5,1.02,2.46,2.43,3.87,4.18,4.17,2.34.42,5.38-1.21,8.36-4.45,1.38-1.5,5.4-9.69,5.82-11.84.27-1.39.3-2.99.32-4.54.03-1.7.06-3.46.4-5.02.56-2.54,4.63-9.3,6.38-11.25.91-1.01,1.77-1.69,2.52-2.3,1.93-1.55,3.1-2.49,2.47-6.95-.14-.99-.5-2.15-.89-3.38-.5-1.6-1.02-3.25-1.02-4.55,0-.52.29-.96.59-1.43.26-.4.52-.82.64-1.32.44-1.94.02-3.79-.36-5.41-.26-1.14-.52-2.21-.41-3.13.08-.7.84-2.45,1.58-4.14.55-1.28,1.08-2.49,1.31-3.23.27-.86.47-1.83.66-2.77.26-1.27.53-2.58.98-3.65.47-1.12,1.24-2.28,2.05-3.51,1.34-2.03,2.72-4.14,2.91-6.24.18-2.06-.28-3.33-.78-4.67-.31-.85-.64-1.73-.8-2.83-1.04-7.32-1.01-15.74-.98-23.17,0-1.27,0-2.52,0-3.74,0-1.67-.09-2.95-.17-4.07-.18-2.52-.32-4.34.79-8.26,1.23-4.35,3.01-8.6,4.74-12.7,1.5-3.57,3.06-7.26,4.22-10.99,1.74-5.55,3.19-11.58,4.59-17.41.8-3.33,1.63-6.76,2.49-10.03.22-.82.39-1.74.57-2.72.4-2.18.82-4.43,1.81-5.99.3-.48.74-.91,1.16-1.33.35-.35.72-.72,1-1.1,3.21-4.46,6.23-24.13,6.56-26.36.79-5.23.7-10.2.61-15-.06-3.42-.12-6.96.13-10.59.24-3.57.96-7.16,1.66-10.64.61-3.04,1.24-6.19,1.53-9.24.29-3.1-.12-5.64-.56-8.32-.21-1.29-.43-2.62-.58-4.05-1.07-10.67-.62-21.52-.18-32,.18-4.37.37-8.9.45-13.35.02-.92.04-1.87.06-2.85.14-5.74.3-12.25-.94-17.37-.19-.79-.66-2.02-1.16-3.34-.72-1.9-1.48-3.87-1.46-4.71.04-1.86,1.09-4.49,2.11-7.03.61-1.51,1.18-2.94,1.48-4.08,1.3-4.9,1.06-10.19.82-15.3-.09-1.97-.18-4.01-.18-5.97,0-4.78.08-9.66.15-14.39.06-3.81.12-7.76.15-11.62.02-2.58-.06-5.22-.13-7.77-.03-1.18-.07-2.36-.09-3.53v-.06s.09-.22.09-.22c4.07-10.86,9.14-24.38,4.27-36.04-.59-1.41-1.46-2.4-2.31-3.35-1.11-1.26-2.16-2.44-2.6-4.47-.63-2.91-1.36-10.74-.65-13.36.24-.9.67-1.77,1.09-2.61.53-1.08,1.08-2.19,1.27-3.4.44-2.72.26-5.95.1-9.08-.16-3.02-.32-6.15.04-8.89l.02-.05c.33-.65.86-1.25,1.37-1.83,1.03-1.17,1.99-2.28,1.64-3.76-.34-1.41-2.53-1.69-4.31-1.93-.74-.1-1.43-.19-1.91-.35-.39-.13-.71-.43-1.06-.74-.28-.25-.57-.52-.89-.69-1.51-.81-7.06-1.13-7.98.31-.3.47-1.61,7.25-1.84,8.69-.18,1.12-.31,2.28-.44,3.4-.54,4.81-1.1,9.78-6.07,12.76-4.77,2.85-9.16,4.01-13.42,3.52-2.55-.29-4.69-.79-6.58-1.23-4.64-1.09-8.31-1.94-15.05.68-2.94,1.14-3.25,2.94-3.65,5.23-.14.79-.28,1.6-.54,2.46-.42,1.39-1.01,2.69-1.57,3.95-.85,1.9-1.73,3.86-2.07,6.15-.14.95-.23,2.32-.32,3.76-.23,3.44-.49,7.33-1.48,8.98-.19.31-.45.58-.71.84-.39.39-.75.76-.9,1.3l-.13-.03.05.13-.28.11v-.04c-1.68.4-3.45.19-5.16-.01-1.13-.13-2.24-.27-3.29-.22h0s0,0,0,0Z"/>
    <line class="st1" x1="849.14" y1="22.5" x2="849.14" y2="616.5"/>
  </g>
</svg>