<?xml version="1.0" encoding="UTF-8"?>
<svg id="Layer_1" xmlns="http://www.w3.org/2000/svg" version="1.1" viewBox="0 0 2757.99 1162">
  <!-- Generator: Adobe Illustrator 29.8.1, SVG Export Plug-In . SVG Version: 2.1.1 Build 2)  -->
  <defs>
    <style>
      .st0, .st1 {
        fill: none;
      }

      .st0, .st1, .st2, .st3 {
        stroke-miterlimit: 10;
      }

      .st0, .st2, .st3 {
        stroke: #231f20;
      }

      .st1 {
        stroke: #010101;
      }

      .st2 {
        fill: #00aeef;
        opacity: .1;
      }

      .st3 {
        fill: #fff;
      }
    </style>
  </defs>
  <rect class="st3" x="2005.62" y="-227.81" width="170.67" height="69.33" transform="translate(171.47 658.3) rotate(-18.64)"/>
  <polygon class="st3" points="2202.89 -282 2172.49 -220.65 2233.83 -190.26 2202.89 -282"/>
  <rect class="st0" x="35" y="-1191.66" width="2698.66" height="1105.33"/>
  <line class="st0" x1="2701.66" y1="-1133" x2="2701.66" y2="-178.33"/>
  <polygon class="st2" points="2213.66 -290.33 2654.99 -963.66 2669.66 -106.33 2251 -193.15 2213.66 -290.33"/>
  <line class="st0" x1="1652.33" y1="-1167.66" x2="1652.33" y2="-705"/>
  <line class="st0" x1="1541.66" y1="-1167.66" x2="1541.66" y2="-802.33"/>
  <line class="st0" x1="1768.33" y1="-1167.66" x2="1768.33" y2="-802.33"/>
  <path class="st1" d="M1526.43-809.35l-1.55-7.84,8.54,2.43c.52,2.27-.64,5.75.47,7.76,1.34,2.42,9.06,3.38,10.4,9.99,1.3,6.38-5.07,5.36-8.43,9.23l4.63,3.25c-.72,3.07-.14,7.19-.75,10.06-.09.4-3.25,7.14-3.5,7.47-1.78,2.33-5.56,1.07-4.32,6.26,1.57.19,3.48-.34,4.96.01.6.14.49,1.43,1.07,1.56.76.17,6.65-.67,7.51-.98,4.39-1.6.94-5.24.19-7.65-1.82-5.81-.3-3.72,1.11-5.6.41-.54-1.18-2.24-.38-3.8.52-1,2.65-1.8,3.63-2.72.82-.77,1.07-1.86,1.77-2.53.61-.59,2.03-.03,2.74-1.56,3.36-7.27-3.09-8.24-5.27-11.71-1.65-2.63-1.74-13.27-.15-15.49,1.78-2.48,9.45.74,12.29-1.05,1.24.18,4.73,6.12,5.26,6.6.58.52,2.44.76,3.5,1.5,3.68,2.57,1.45,6.59,1.91,9.88.42,2.98,2.35,6.94,2.27,10.29-.22,1.12-6.59,1.67-5.57,4.81.14.68,4.86.81,4.68,5.42-.1,2.48-2.26,7.85-5.45,5.96.48,1.05,1.2,1.5,1.52,2.8.22.88.83,9.5.73,9.99-.58,2.55-4.12,1.2-3.83,3.29,4.07,4.53,6.16,10.64,12.58,11.77-1.47,1.92-1.34,4.46-2.31,6.32-3.33,6.38-6.58,5.13-5.35,14.64,1.25,9.65,2.06,7.42,8.95,10.65,4.58,2.14,9.02,4.65,13.58,6.8l-3.14,6.67-4.52-2.52c-.81-4.39-2.75-2.21-6.45-2.97v3.14s-2.35-.78-2.35-.78l.03,4.67c8.11.36,8.01,3.6,7.08,10.53-5.18.32-2.94,7.39-4.73,8.73-.69.52-2.62.46-3.72.98-1.93.93-6.04,4.25-8.04,2.94-1.16-.76-3.47-4.51-4.66-5.56s-2.97-1.33-4.44-2.64c-2.41-2.15-4.19-5.97-6.22-7.9-2.81-2.67-13.95-9.27-14.29-2.13-.03.56,1.54,9.56,1.79,10.01.35.62,4.35,2.9,5.78,4.51.4.44,4.47,4.54,1.99,4.86-2.04.26-7.59-4.84-10.17,1.56-8.02-10.75-7.54,5.97-15.29,7.06-.52-2.99,2.56-3.38,3.12-5.91.86-3.89-2.28-3.09-1.55-6.64-1.68-.38-2.87,1-4.29,1.21s-4.15-1.79-2.24,1.94c1.73.22,4.39.8,4.17,3.12-2.86-1.77-5.82-4.17-9.4-3.91l.73,2.24c-6.72,2.78,1.69,5.96,2.27,7.69.55,1.63-.34,3.99.91,5.74-.73.58-4.68-2.96-6.7-3.09-1.46-.09-9.08,1.86-9.83,2.84-1.98,4.67,2.44,4.82,4.97,6.52,1.01.67.9,1.83,2.91,2.78,1.47.69,4.11.95,5.79,1.84l4.41-4.59c-.32,2.52-.63,8.45-1.7,10.45-.82,1.55-2.23.96-2.79,1.52-.5.5-.25,2.06-.94,2.57-1.3.95-8.89.13-11.38.4-1.83.2-7.25,1.27-9.27,1.71-4.61,1-8.67,5.17-12.13,5.9-2.31.48-11.32-1.52-13.11-2.97-3.3-2.7-1.79-9.47,2.61-8.68.27-1.41.45-2.57,1.31-3.81,2.72-3.92,6.53-2.78,4.33-8.59,2.33-.94,6.19-1.87,5.44-4.77l-4.69,1.57-3.14-9.05,1.5-.7-.72-2c3.16-.61,6.93.28,8.23-3.12,2.64,1.61,2.15,5.42,4.79,6.95,2.64,1.53,5.04.52,7.71.91,1.47.21,2.63,1.41,4,1.51,2.55.19,5.11-1.61,6.62-3.51-3.48.15-7.14-.15-10.54-1.2-7.07-2.19-5.54-5.79-7.71-11.9-.38-1.08-1.49-1.72-1.91-2.78-1.38-3.51-.78-7.36.54-10.83,2.94-.84,6.67,1.18,8.93,1.19,3.17.02,7.97-3.36,9.37-2.99,1.75.54,2.35,3.62,3.63,4.19.66.29,2.02-.46,3.71.23,5.04,2.04,9.47,6.85,14.1,8.77,1.32.55,4.22,1.32,4.79-.41l.14-6.55c-3.01.8-4.22-2.85-5.11-3.06-.68-.16-2.15.77-3.65.54-1.03-.15-10.58-3.33-12.49-4.01-4.05-1.42-6.09-5.03-11.56-2.81l-.07,2.24c-3.09.51-2.81-2.26-3.36-2.86-1.62-1.72-4.47-3.49-4.91-6.51-.15-1.05,1.13-1.76,1.23-2.82.17-1.86-1.4-2.99-1.48-4.62-.08-1.63,1.41-4.44,1.22-5.59s-3.46-1.33-2.88-3.48l13.39,1.95,3.02-.42.08-2.64c-3.04-1.49-6-1.92-7.65-5.19l-9.43,1.86c-2.79-1.17-1.01-8,1.32-8.58,2.76-.68,3.67,1.84,6.41,1.64.73-.06,8.52-1.85,9.51-2.13,3.3-.94,9.31-2.96,8.29-7.21-.24-.99-2.01-1.18-2.58-2.06-.71-1.09-.18-2.99-1.62-3.88-1.66-.37-4.1,4.02-5.13,5.06-1.54,1.54-4.35.79-3.88,5.12-5.19-4.26-.22-5.7,1.52-8.49,2.29-3.67,1.68-6.32,2.6-9.73,1.25-4.63,2.88-9.19,3.73-13.92l7.83,1.56c1.02-1.18-.08-19.67-6.16-17.92l-7.55,10.85c-5.57-5.9-12.57-9.28-12.97-18.39-.18-4.06.05-10.1,4.73-11.04,1.38-.28,2.54.66,3.91.07,2.63-1.13,4.93-9.24,4.68-12.15l-2.29-.43c2.22-4.33,7.58-5.7,6.28-11.37l21.94,15.68h.01s0-.03,0-.03h0Z"/>
  <path class="st1" d="M1677.35-705c1.15.41,3.57,3.72,3.96,5.06.17.57-.34,10.96-.5,11.96-.98,6.11-4.71,14.46-5.62,20.92-.51,3.61.32,9.24,0,12.89-1.74,19.41-8.03,54.44-2.96,72.39,3.28,11.61,20.44,15.07,24.52,27.08-.32,3.12-4.09,6.95-4.23,9.75-.18,3.62,3.36,8.67,3.14,11.98-.37,5.53-5.79,14.18-6.93,19.93-.38,1.94.46,12.53-1.4,12.47-9.46-5.39-19.07-14.57-28.56-19.36-2.93-1.48-18.83-5.37-19.35-7.16-.07-4.79,1.35-9.9,1.7-14.51.22-2.84-.46-6.56-.26-9.4,3.43-49.26,7.52-93.9,3.66-143.81-.23-2.95-1.98-5.85-1.58-8.94l34.42-1.26h0s0,0,0,0Z"/>
  <path class="st1" d="M1797.21-742.65c0,2.73,4.47,10.96,6.6,13.06,7.07,6.95,26.99,9.2,24.91,21.01-3.03,17.19-20.42,10.75-32.58,10.86-3.24,4.26-5.72,8.34-.5,11.69l-5.57,9.22c-6.27,4.23-13.64-.31-15.98,10.43l-3.52-.9-1.17-4.63-7.72-.22c2.86-7.53-5.31-13.01-5.93-17.26-.2-1.42,1.15-3.36,1.03-4.84-.15-1.99-2.06-3.65-1.8-4.99.37-1.85,3.33-3.7,2.68-5.75-.76-2.38-8.19-12.53-10.35-14.27-5.89-4.74-28.87-9.48-36.52-5.67-.2-4.21,3.76-5.55,4.93-9.62.96-3.37-2.5-5.71-2.19-6.63.81-2.4,4.1-4.18,4.16-5.4.02-.39-2.97-5.09-2.12-7.25,6.24-1.96,8.06-5.43,15.39-5.63l1.13-8.44c6.39.46,3.84-5.12,6.94-8.7,3.52-4.08,12.27-4.99,14.88-7.95.3-.34,3.93-7.62,3.96-8.07.11-1.83-4.43-3.24-.15-7.13,3.84-3.49,11.4-.26,15.5-4.91,4.08-.98,10.85,15.76,12.81,18.31,1.55,2.02,4.46,2.67,6.34,4.69,2.84,3.06,7.43,19.46,7.7,24.07.35,5.95-2.88,11.36-2.88,14.88h0s0,.02,0,.02Z"/>
  <rect class="st3" x="416.75" y="-957.11" width="170.67" height="69.33"/>
  <polygon class="st3" points="634.85 -971.22 588.91 -920.45 639.67 -874.51 634.85 -971.22"/>
  <line class="st0" x1="502.09" y1="-1191.66" x2="502.09" y2="-957.11"/>
  <polygon class="st2" points="657.33 -971.22 1450.33 -1191.66 1450.33 -509 663.33 -874.51 657.33 -971.22"/>
  <path class="st1" d="M1679.5,187.24c.46,2.98-2.89,7.34.9,11.81,4.71,5.54,21.1,2.33,6.65,19.91,4.37,7.06,10.77-4.96,16.72-1.98,16.32,15.28-1.72,20.45-7.42,31.39-.44.84.38,15.2-.33,18.96-.42,2.22-4.73,19.71-5.29,20.63-2.2,3.63-11.33,6.13-12.28,12.52-.02,7.43,10.31,16.8,10.24,18.33s-4.62,4.11-5.25,7.06c-1.24,5.84,7.01,9.72,6.91,10.36-.22,1.46-3.83,3.61-3.61,7.11.3,4.69,11.58,20.54,11.26,28.59,5.8,5.8,17.8.83,19.9,1.22,1.65.31,2.3,5.11,4.1,6.72,3.39,3.03,8.99,2.17,15.83,9.61,9.17,9.96,4.97,9.36,3.44,18.32-.31,1.84,1.8,4.07.65,7.07-3.13,8.17-17.62,14.92-18.53,20.58l5.8,8.73c-4.3,5.59-10.04-1.93-15.14,2.24-7.16,5.85-1.46,16.2-8.5,21.43-11.88-10.55-18.02,4.06-3.46,9.42l-7.4,19.32c-8.94,9.7-50.46-13.59-54.49-24.63-.56-1.52,4.22-21.49,1.49-32.09-1.32-5.11-8.88-26.83-10.63-30.55-3.22-6.87-8.69-2.36,2.48-13.18-6.94-5.06-.68-6.99-.49-11.73.14-3.72-4.06-9.42-4.54-14.32-.95-9.62,11.74-20.1,16.29-29.3-11.13-7.64-12.82-22.83-30.2-23.85l7.04-12.03c-3.1-6.59-20.61-1.84-22.21-7.86-1.6-6.02,3.62.66,8.09-4.57,4.95-5.79.45-7.09,1.47-8.35,2.7-3.33,12.03-3.24,6.27-10.37l-8.58-2.8c1.45-10.84,2.66-19.2,7.51-29.32,1.63-3.42,6.24-5.89,8.12-9.48,5.42-10.32-2.44-5.41,11.7-17.75,4.94-4.3,3.46-10,14.18-7.54,1.34-3.3-2.56-9.36-1.31-11.43,1.6-2.65,17.65-18.4,20.22-19.64,7.77-3.79,11.59,5.72,12.47,11.46h-.06s0,0,0,0Z"/>
  <path class="st1" d="M770.65,213.43l-7.39-21.66,25.14,3.83c2.34,6.24.37,16.51,4.3,21.82,4.73,6.39,26.99,6.34,33.31,24.59,6.1,17.63-12.36,17-20.41,29.16l14.38,7.54c-.88,8.95,2.34,20.44,1.69,28.78-.09,1.17-6.49,21.4-7.07,22.42-4.15,7.24-15.37,5.02-9.87,19.3,4.52-.02,9.75-2.2,14.07-1.73,1.75.19,1.93,3.88,3.63,4.05,2.22.22,18.63-4.27,20.94-5.47,11.85-6.11.67-15.19-2.38-21.75-7.37-15.81-2.27-10.44,1-16.27.94-1.67-4.21-5.93-2.52-10.64,1.09-3.01,6.84-6.06,9.27-9.01,2.04-2.47,2.34-5.64,4.07-7.8,1.51-1.89,5.75-.8,7.19-5.39,6.77-21.81-11.91-22.25-19.4-31.3-5.67-6.86-9.99-36.99-6.32-43.84,4.1-7.67,27.08-1.29,34.47-7.36,3.6.07,15.74,15.66,17.43,16.81,1.86,1.26,7.22,1.29,10.5,3,11.4,5.96,6.62,18.15,9.18,27.31,2.31,8.29,9.31,18.81,10.37,28.35-.2,3.24-18.06,7.1-13.96,15.63.65,1.89,14.09.55,15.34,13.68.66,7.06-3.43,23.06-13.2,18.85,1.77,2.81,3.96,3.82,5.37,7.4.96,2.42,5.98,26.61,5.86,28.04-.66,7.43-11.23,4.88-9.61,10.7,13.26,11.37,21.53,27.95,40.16,28.84-3.45,5.96-2.09,13.11-4.15,18.73-7.03,19.27-16.71,16.88-9.6,43.4,7.22,26.9,8.66,20.29,29.45,26.96,13.81,4.43,27.35,9.95,41.11,14.42l-6.38,20.02-13.77-5.53c-3.95-12.16-8.66-5.27-19.42-6.12l1.17,8.9-6.93-1.38,1.86,13.23c23.14-1.89,24.08,7.35,24.09,27.31-14.58,2.75-5.54,21.98-10.1,26.44-1.75,1.72-7.25,2.22-10.19,4.12-5.11,3.32-15.51,14.21-21.69,11.21-3.57-1.75-11.57-11.52-15.33-14.09s-8.92-2.69-13.59-5.88c-7.64-5.24-14.15-15.42-20.64-20.16-8.99-6.57-43.11-21.29-41.35-.92.13,1.6,8.01,26.55,8.89,27.72,1.23,1.63,13.45,6.66,18.12,10.72,1.29,1.11,14.4,11.28,7.5,13.07-5.67,1.47-23.37-11.01-28.26,8.07-26.86-27.59-19.12,19.6-40.69,25.47-2.62-8.28,5.98-10.5,6.59-17.86.95-11.33-7.66-7.93-6.93-18.25-4.91-.47-7.75,3.87-11.7,4.97s-12.45-3.59-5.62,6.3c4.99,0,12.77.68,13.02,7.35-8.8-4-18.09-9.75-28.15-7.72l2.94,6.09c-17.99,10.29,7.05,16.29,9.36,20.96,2.18,4.42.56,11.43,4.78,15.95-1.85,1.92-14.39-6.71-20.19-6.35-4.17.25-25.05,8.52-26.8,11.55-3.85,13.93,8.76,12.79,16.59,16.7,3.11,1.55,3.25,4.85,9.32,6.84,4.43,1.44,12.03,1.22,17.12,3.13l10.77-14.59c.05,7.26,1.42,24.17-.83,30.22-1.75,4.69-5.97,3.53-7.33,5.29-1.23,1.59.08,5.92-1.7,7.61-3.33,3.17-25.16,3.54-32.14,5.2-5.11,1.23-20.09,6.19-25.64,8.16-12.7,4.49-22.62,17.75-32.16,21.05-6.37,2.2-32.69-.26-38.34-3.74-10.4-6.45-8.69-26.2,4.11-25.53.22-4.1.29-7.44,2.25-11.25,6.23-12.1,17.46-10.21,9.02-25.88,6.25-3.5,16.85-7.52,13.61-15.46l-12.72,6.12-12.36-24.53,3.99-2.53-2.81-5.41c8.73-2.86,19.76-1.68,22.16-11.8,8.1,3.61,8.16,14.6,16.24,17.99,8.08,3.38,14.49-.33,22.23-.19,4.25.07,8.01,3.05,11.92,2.86,7.29-.36,13.87-6.38,17.45-12.32-9.82,1.67-20.31,2.13-30.37.36-20.88-3.67-17.92-14.43-26.39-30.96-1.5-2.93-4.89-4.34-6.49-7.2-5.26-9.44-5-20.57-2.59-30.88,8.02-3.43,19.35.96,25.8.18,9-1.08,21.34-12.37,25.44-11.83,5.17.9,8.04,9.41,11.9,10.58,1.98.6,5.57-2.03,10.6-.69,15.06,3.97,29.48,16.02,43.33,19.81,3.94,1.08,12.46,2.22,13.43-2.88l-2.09-18.61c-8.24,3.33-13.04-6.56-15.67-6.84-1.98-.21-5.81,2.94-10.16,2.85-2.99-.06-31.29-5.67-36.96-6.89-12.02-2.57-19.2-12.09-33.86-3.83l.66,6.37c-8.57,2.55-8.82-5.41-10.63-6.9-5.24-4.28-14.01-8.3-16.41-16.7-.83-2.92,2.53-5.41,2.42-8.44-.21-5.32-5.11-7.98-5.96-12.56-.85-4.58,2.31-13.07,1.33-16.27s-10.31-2.53-9.5-8.82l38.74.72,8.42-2.28-.78-7.51c-9.19-3.13-17.76-3.3-23.69-11.96l-26.05,8.64c-8.37-2.32-5.92-22.31.48-24.78,7.57-2.91,11.11,3.9,18.81,2.35,2.05-.42,23.46-8.29,26.16-9.43,9-3.83,25.29-11.72,20.78-23.4-1.05-2.71-6.17-2.63-8.11-4.9-2.43-2.84-1.64-8.42-6.06-10.41-4.86-.46-10.1,12.86-12.63,16.17-3.78,4.91-12.05,3.79-9.06,15.9-16.36-10.22-2.79-16.08,1.09-24.61,5.1-11.2,2.35-18.5,3.68-28.51,1.79-13.56,4.67-27.06,5.29-40.77l22.8,1.63c2.45-3.72-7.72-55.7-24.31-48.57l-17.29,33.45c-18.05-14.72-39.19-21.79-43.81-47.48-2.06-11.43-3.71-28.65,9.21-32.96,3.8-1.27,7.46.97,11.11-1.18,7.02-4.15,10.48-27.94,8.64-36.1l-6.66-.39c4.65-13.07,19.34-18.87,13.47-34.47l68.2,36.59.03-.04h0l-.02-.05Z"/>
  <path class="st1" d="M1143.78,593.98c.3,1.07-2.72,2.63.27,5.26,3.83,3.37,12.61,7.27,17.69,8.86,8.3,2.6,15.58.4,22.2,1.26,3.43.44,6.42,3.86,9.2,4.17,8.34.91,18.71-3.93,25.67-2.76,11.02,1.84-3.91,19.67-5.83,27.02-2.49,9.54,4.81,8.72,5.07,10.22.14.79-5.04,7.75-6,10.37-3.61,9.83-1.12,17.91-13.58,21.72-11.7,3.58-22.44-5.6-31.81,11.29l5.75,8.56c7.02-6.56,8.99-1.26,13.38-.79,5.32.55,7.22-3.51,12.96,1.78,4.32,3.97,3.53,8.09,5.36,10.52s6.54,3.68,8.56,6.76c.45.69-1.55,15.53-1.94,16.25-7.37,14.02-34.09,23.85-46.01,33.91l-7.96-11.11-6.31,12.62c-2.39-6.22.95-13.65-1.7-19.81-1.39-3.26-15.78-23.17-18.26-25.32-6.15-5.33-18.91-4.1-10.45-20-6.78-2.33-17.29-5.61-21.46-11.76-1.29-1.91,2.9-3.62,3.05-5.6.33-4.44-4.53-9.36,2.35-14.4l-4.65-4.71c-2.14,2.77-6.55,3.48-8.7,5.69-1.95,2.01-.93,11.35-6.36,7.66-3.72-2.54.42-8.83.06-12.71-.25-2.62-2.93-5.08-3.02-7.07-.7-14.44,15.1-26.28,28.11-29.16,2.04-3.15-6.72-14.26-6.37-18.33.39-4.64,7.61-8.09,10.3-11.68,1.9-2.54,1.49-7.4,3.9-9.69,2.93-2.79,7.02-.64,9.53-1.68,6.29-2.61,12.82-12.12,16.92,2.72l.04-.04h0Z"/>
  <path class="st1" d="M1170.01,512.1c6.06,8.02,14.14,20.99,21.54,28.54,2.5,2.55,8.55,4.42,9.23,5.99.43,1-1.68,5.05-1.04,7.85,1.4,6.07,5.52,9.16,2.4,16.02-.71,1.57-9.2,13.83-10.24,14.82-2.54,2.43-6.46.09-8.01,1.99-2.35,2.84-3.13,10.25-7.59,11-12,2.01-13.06-31.16-15.31-38.91-12.59-5.87-69.86-25.35-70-38.87-.78-12.64,10.24-13.21,14.17-17.45,5.36-5.78,13.28-22.83,23.98-22.88,12.25-.06,15.27,10.6,21.54,15.97,6.17,5.28,14.01,8.91,19.31,15.93v-.03s.02,0,.02,0Z"/>
  <path class="st1" d="M1293.94,183.97c1.5-1.21,11.69-3.56,12.77-2.76,1.41,16.57,13.26,7.9,19.11,9.09,3.6.73,2.5,7.32,4.94,8.92,4.73,3.1,18.66,4.54,23.86,6.66,6.22,2.55,15.26,8.13,22.21,11.87,2.94,1.59,7.26,1.24,10.07,3.42,12.54,9.67-3.48,27.94,3.2,40.34-7.2-1.77-12.57-6.95-20.87-6.2-7.78.71-19.44,10.57-24.9,10.15-12.88-.99-18.52-27.87-29.89-8.26l-7.62-2.41,4.49-8.9-11.23,4.44c.35-6.75,1.42-19.32.03-25.21-.5-2.09-6.33-2.75-8.08-8.1-2.07-6.33-3.8-28.46,1.9-33.05h0Z"/>
  <path class="st1" d="M1102.18,234.38c8.56,6.72-16.93,27.37-13.63,12.01l-9.78,3.13c-4.71-6.69-9.5-9.04-17.09-10.92-1.39-8.36,9.51-8.81,13.51-15.15l-6.31-6.35c21.96-3.57,38.52-19.45,56.38-30.4,4.02-2.46,10.15,1.7,13.49-7.93,16.28,8.6,3.1,23.88,6.97,37.28-16.87,1.57-28.67,11.9-43.55,18.32h0Z"/>
  <circle class="st1" cx="839.82" cy="204.93" r="2.16"/>
  <circle class="st1" cx="1297.81" cy="189.98" r="2.16"/>
  <circle class="st1" cx="1137.67" cy="193.04" r="2.16"/>
  <circle class="st1" cx="1129.33" cy="612.54" r="2.16"/>
  <circle class="st1" cx="1130.82" cy="491.9" r="2.16"/>
  <path class="st1" d="M1368.63,513.27c.03,4.51,7.45,18.12,10.99,21.61,11.73,11.52,44.63,15.38,41.28,34.87-4.89,28.37-33.65,17.62-53.74,17.71-5.33,7.02-9.39,13.74-.75,19.31l-9.13,15.2c-10.32,6.95-22.54-.61-26.32,17.12l-5.82-1.51-1.97-7.65-12.75-.42c4.68-12.42-8.85-21.53-9.91-28.54-.35-2.34,1.88-5.54,1.68-7.98-.27-3.3-3.42-6.05-3.01-8.25.59-3.06,5.48-6.09,4.39-9.49-1.27-3.94-13.61-20.75-17.19-23.63-9.76-7.87-47.74-15.85-60.35-9.61-.35-6.95,6.18-9.14,8.08-15.86,1.57-5.57-4.17-9.44-3.66-10.97,1.32-3.96,6.74-6.88,6.84-8.89.04-.64-4.95-8.42-3.55-11.98,10.3-3.2,13.28-8.92,25.39-9.19l1.81-13.93c10.55.8,6.31-8.43,11.4-14.33,5.78-6.72,20.23-8.15,24.52-13.03.49-.55,6.44-12.55,6.48-13.3.17-3.02-7.34-5.38-.29-11.77,6.32-5.74,18.82-.36,25.57-8.01,6.74-1.6,18.03,26.1,21.29,30.33,2.57,3.35,7.39,4.44,10.5,7.79,4.7,5.08,12.4,32.2,12.88,39.82.63,9.83-4.68,18.75-4.66,24.55l.02.02h0Z"/>
  <path class="st1" d="M1432.2,277.85c2.4-6.07-10.2-18.79-14.5-23.28l6.48-2.19c.65-4.14-4.15-4.64-5.12-7.38-1.01-2.87,1-8.26-.32-13.07-1.56-5.67-9.99-9.49-.16-16.08,7.16-4.79,12.18,1.93,19.86,1.75,2.31-.06,6.01-3.19,7.03-2.68.58.31,1.77,5.3,3.71,7.12,5.08,4.71,7.94-.62,7.13,11.49,34.96,15.15,16.66-28.01,20.87-41.98.65-2.17,10.38-11.11,12.79-12.38,11.05-5.79,7.99,1.02,13.07,3.84,1.77.99,14.47,2.88,16.35,3.71,2.43,1.08,1.23,5.27,3.75,6.6,1.95,1.03,16.26,2.7,17.39,3.83-5.12,9.05-7.94,26.22,3.72,31.35,3.74,1.64,7.65-1.65,9.24.31,3.41,4.19,2.38,17.81,9.26,23.63l-7.15,3.74c-2.39,7.63-29.91,36.62-30.48,40.93-.64,4.96,2.9,8.48,3.12,13.69.68,15.5-8.81,21.57,4.07,38.67,2.35,3.11,7.43,5.12,7.7,5.84,4.53,11.69-1.09,25.09,5.58,35.9-2.18,4.2-33.67,13.51-39.8,13.36-3.56-.09-6.83-3.29-9.62-2.84s-10.15,7.83-17.27,8.88c-14.91,2.22-8.07-10.3-9.9-14.36-1.43-3.18-8.18-2.72-9.6-5.89-2.47-5.47,5.55-12.4-9.5-16.26,6.89-8.15,11.03-13.76,1.13-21.69,10.01-.27,2.92-22.56.28-28.24-1.16-2.5-5.23.73-7.4-1.48-2.45-2.49-3.01-10.28-8.31-12.04l-11.04,2.91c-1.12-.79.82-25.13,1.25-27.56,1.03-5.86,5.82-6.78,6.35-8.15h.03s0-.02,0-.02Z"/>
  <path class="st1" d="M1636.63,632.26c-3.17-5.44-.67-11.55,5.03-14.06,1.39-.61,25.95,1.16,25.77,6.3-5.16,7.33-8.05,17.13-3.55,25.51,5.65,3.63,27.03-7.67,29.84-12.98,1.05-1.99-1.49-4.75-.64-6.23,3.11-5.54,20.84-13.06,26.37-16.11-.56,7.57,10.49,10.14,12.4,13.52,4.57,8.06,2.47,63.2-4.19,69.51-2.27,2.16-6.6,1.61-7.42,2.54-.55.62-2.72,15.01-2.59,16.39.79,8.27,15.08,8.86,13.36,28.93-1.21,14.18-7.94,16.94-16.62,25.98-1.86,1.94-2.99,6.18-3.55,6.54s-13.21-.39-13.88-.54c-3.4-.74-5.81-5.07-9.6-5.49-3.07-.34-6.53,2.33-10.46,1.3-3.93-1.02-6.26-6.87-9.41-8.78-27.57-16.6-28.9-13.54-42.84-44.95-2.15-4.85-2.48-12.11-4.69-15.57-2.62-4.08-12.59-6.03-14.14-10.63-.63-1.87-2.23-23.29-1.61-25.26,1.46-4.55,16.66-30.89,20.1-33.67,4.03-3.28,7.63-2.38,12.3-2.24h.02Z"/>
  <path class="st1" d="M1432.63,528.26l9.02-1.44c-3.89-6.33-3.88-23.02-9.69-26.87-1.04-.69-5.06,2.8-5.45-3.03.51-1.97,16.31-13.93,18.41-17.43,2.46-4.11,6.15-20.29,8.83-25.91,22.87,1.96,4.13-23.04,13.81-29.92,4.79-3.41,7.7,6.5,13.59,8.53,5.3,1.82,13.66,1.13,14.42-5.84,4.85,3.6,17.11,11.57,22.8,12.23,6.31.74,14.41-4.86,19.57-3.82,6.62,1.34,8.17,21.37,19.65,13.74,1.31,9.95,2.1,21.28,9.61,28.58l-1.08,3.01c-11.71,5.21-8.34,17.7-26.86,17.4,8.29,7.91-2.63,25.32-1.11,31.26,1.08,4.18,13.37,3.08,9.48,13.07-3.71,9.56-13.05,9.61-18.43,1.2-8.54,15.7-32.42,21.72-48.9,25.5l-1.41,5.57c-9.48-10.84-1.14-25.51-8.65-37.54l-8.91,13.48c-2.43-10.48-18.04-3.51-26.7-5.99l-1.99-15.75h-.01Z"/>
  <path class="st1" d="M1504.23,608.19c5.56,10.22,26.95,6.11,32.12,11.83,5.79,6.41,2.45,20.42,9.02,26.7l-.91,2.99c-4.45-.83-15.28,4.01-13.61,8.87,5.3,9.89,13.59,9.27,20.81,15.55-10.08,4.71-10.95,13.01-16.79,20.7-2.33,3.07-7.43,5.26-8.49,7.49-1.67,3.5,4.43,10.22,1.15,13.05-18.94,4.49-29.89,15.84-40.37,30.95l19.34,7.2c-6.57,1.52-12.85.78-19.75,2.45-3.58.87-5.18,3.18-7.96,4.31-5,2.02-10.37-1.1-14.52,9.14l-3.32-5.9-5.83,3.28,5.22,4.78-8.89,2.38-.47-10c-5.18,2.81-14.22,5.04-16.7-2.17-.44-1.26,3.58-4.53,3.4-9.07-.84-20.54-14.65-34.85,14.46-46.18-1.43-7.88-9.13-6.9-12.54-10.11-3.86-3.63-6.47-17.09-10.49-22.15-2.73-3.44-13.43-1.38-11.95-7.45,1.04-4.25,14.67,5.71,14.7-5.66l4.55,5.36c5.18-4.92,11.85-3,17.56-5.07,2.64-.96,20.14-15.15,22.74-17.54,1.71-1.58-.39-5.03.6-6.71,2.14-3.66,7.17-5.05,9.77-8.81,4.72-6.82,5.4-17.74,17.15-20.17h0s0-.02,0-.02Z"/>
  <path class="st1" d="M1667.03,606.8c-2.91-3.34-.5-7.3-3.23-11.41-4.49-6.77-15.21-8.45-15.64-9.29-1.04-2.04,3.64-8.76-4.71-12.62-1.89-.87-21.62-3.25-24.14-2.94-5.28.65-27.58,15.16-29.32,9.78,7.66-14.99,9.61-33.1,23.91-43.91,1.92-1.45,11.37-1.6,15.91-3.51,4.08-1.73,22.93-13.85,24.92-16.56,2.1-2.87-2.42-9.65,3-11.93,18.87-7.29,18.65,6.29,28.88,12.95,2.89,1.89,6.97,1.38,10.01,3.55,2.35,1.68,14.48,17.64,14.72,20.44,2.29,27.04-36.22,41.39-44.31,65.45h0s0,0,0,0Z"/>
  <path class="st1" d="M1304.18,819.84c-.03-10.57-9.07-12.68-17.95-13.48-4.36-5.29,17.16-17.92,10.37-29.19l-11.9-8.13c8.37-22.73-8.69-14.97-15.9-20.17-2.34-1.69-1.15-6.52-3.45-8.18-2.82-2.02-9.77-.11-9.71-4.36,14.98,3.47,9.27-5.05,14.35-9.11,3.57-2.85,10.53-.77,12.28-5.57,6.45-20.21-10.7-20.27-12.8-34.72,14.99.42,29.52-5.39,42.49-11.99l-3.35-8.1c5.56-14.84,17.15,1.95,25.71,6.03l-9.04,14.57-6.63-2.33c.6,17.16,13.09,31.44,12.68,48.65-.04,1.56-4.1,1.31-5.29,3.15-2.48,3.83-1.94,14.68-7.84,19.44l6.4,7.57-8.89-2.32-.12,13.49c-9.74-.77-9.7,5.05-9.06,13.43l8.93-2.15-2.21,7.6c12.52,5.96,5.62,28.88-9.05,25.83l-.02.03h0Z"/>
  <path class="st1" d="M1324.83,315.49c-1.58.29-5.8,5.82-6.21,7.63-.33,1.43,3.04,2.63,3.1,3.13.07.58-3.22,9.67-3.8,11.07-.63,1.51-4.06-.42-6.32,1.8-4.81,4.73-12.07,14.23-17.05,18.36-.87.73-7.61,1.66-9.37,4.23l1.44-6.65c-5.35-2.91-5.27-2.28-8.96,1.24l-3.56-6.23c-2.92,16.3-19.51,14.52-26.18,1.62-4.4-8.5,2.1-39.44,6.47-46.87,7.72-13.1,28.11,12.33,30.85,11.22.24-8.92,11.91-53.82,25.47-41.14,2.21,2.07,1.95,6.96,4.32,10.38,3.34,4.82,10.36,10.94,12.29,14.66,2.26,4.38-.47,9.2.09,11.36.76,2.91,5.48,3.38,3.35,6.08-1.83-.55-4.17-2.22-5.92-1.89h0s-.01,0-.01,0Z"/>
  <circle class="st1" cx="1484.33" cy="438.78" r="2.16"/>
  <circle class="st1" cx="1664.56" cy="511.18" r="2.16"/>
  <circle class="st1" cx="1494.7" cy="191.69" r="2.16"/>
  <circle class="st1" cx="1316.35" cy="425.1" r="2.16"/>
  <circle class="st1" cx="1304.8" cy="280.44" r="2.16"/>
  <circle class="st1" cx="1669.18" cy="185.92" r="2.16"/>
  <circle class="st1" cx="1647.43" cy="630.35" r="2.16"/>
  <path class="st1" d="M1144.8,363.29l25.23,15.87c-2.07,10.16.72,20.88,1.94,31.19,1.36,11.45,2.39,19.07,8.18,29.5,15.65,28.2,2.63,18.54-18.57,33.51-8.66-7.94-37.68-3.2-42.21-11.2-5.91-10.45,4.35-21.6,5.83-33.03,1.37-10.53-.53-24.81.16-36.2.15-2.51,6.81-6.2-2.47-9.38l-3.44,3.01-2.33-6.53c.74-5.32,22.97-9.97,27.69-16.74h0Z"/>
  <circle class="st1" cx="1146.65" cy="378.62" r="2.16"/>
  <circle class="st1" cx="1503.01" cy="620.97" r="2.16"/>
  <circle class="st1" cx="1316.88" cy="668.92" r="2.16"/>
  <path class="st1" d="M1015.85,296.89c.29,6.53,2.05,13.77.3,20.11-7.08-8.76-4.91-20.37-18.49-22.18,7-6.09,12.89-4.62,18.19,2.07-.1-2.23-.42-4.46-.47-6.68l7.53-.61c8.55,17.26,6.34,9.93,19.11,12.26,4.13.75,6.54,3.37,11.54,3.69,4.62.3,38.04-.12,40.36-1.05,5.39-1.66.37-7.04,2.84-9.93,4.18-4.86,26.35-15.78,29.1-21.11,2.92-5.66-1.67-15.03.01-20.97.75-2.64,4.26-3.01,5.44-4.79,1.05-1.57-.15-4.98.47-5.63.73-.76,18.79-4.09,20.73-4.05,3.01.07,18.76,7.6,21.25,9.63,3.81,3.09,4.63,7.56,7.59,10.58s7.51,3.41,10.3,7.49c7.51,10.95-.73,24.44,5.04,36.33l-20.1,1.53c2.89,17.28-11.85,17.26-24.48,21.8-5.61-21.76-10.86-5.27-16.34-3.85-3.58.92-10.11-3.37-14.49.32-5.44,4.15,8.44,18.37,5.12,27.71-.42,1.2-9.05,17.74-9.74,18.52-2.5,2.79-7.12,4.15-10.69,5.14-3.83-.53-3.8-8.67-6.54-11.89-2.17-2.56-6.68-1.41-8.64-6.82-1.04-2.88-3.52-14.32-3.36-16.83.25-3.71,7.25-8.42,3.85-12.61-11.99-8.78-28.17,1.1-38.29.56-7.96-.42-19.54-10.74-30.89-4.61l-3.89-22.91-2.41-1.2h.03s0,0,0,0Z"/>
  <g>
    <path class="st1" d="M396.43,238.02c3.13,1.12,9.75,10.12,10.82,13.79.46,1.56-.76,29.77-1.19,32.51-2.59,16.59-12.57,39.26-14.96,56.79-1.33,9.81.99,25.11.15,35.01-4.44,52.74-21.04,147.85-7.03,196.68,9.05,31.56,55.68,41.1,66.92,73.78-.82,8.47-11.01,18.84-11.34,26.46-.42,9.84,9.23,23.59,8.69,32.57-.92,15.02-15.52,38.48-18.52,54.09-1.01,5.26,1.42,34.04-3.64,33.88-25.75-14.71-51.94-39.75-77.78-52.84-7.96-4.03-51.18-14.75-52.6-19.6-.25-13.01,3.52-26.88,4.4-39.41.55-7.73-1.33-17.82-.84-25.53,8.64-133.82,19.11-255.08,7.94-390.7-.66-8.03-5.45-15.92-4.4-24.31l93.38-3.16h0Z"/>
    <circle class="st1" cx="357.63" cy="249.78" r="2.16"/>
  </g>
  <circle class="st1" cx="1140.46" cy="248.6" r="2.16"/>
  <path class="st1" d="M540.4,224.69c.32-1.17,1.45-1.77,2.02-2.71,1.75-2.91,1.66-11.94,2.22-15.78.7-4.77,3.22-8.27,4.53-12.59,1.27-4.19.31-7.74,5.33-9.69,11.94-4.65,16.26-.54,26.98.68,5.97.67,11.46-1.29,16.57-4.35,7.53-4.5,6.8-12.57,8.01-19.97.25-1.51,1.92-10.24,2.32-10.88,1.21-1.91,8.17-1.53,10.17-.45.92.5,1.57,1.49,2.39,1.77,1.98.68,7.22.33,7.85,2.97.7,2.94-2.57,4.77-3.77,7.1-.93,6.94.89,15.71-.17,22.35-.44,2.75-2.26,5-2.94,7.5-.86,3.21.05,13.01.81,16.53.96,4.44,4.42,5.67,6.09,9.69,6.13,14.66-.21,31.38-5.4,45.23.1,4.67.31,9.39.28,14.06-.06,10.75-.37,21.6-.37,32.34,0,8.72,1.46,18.02-.8,26.51-1.01,3.78-4.38,10.13-4.46,13.78-.04,1.7,2.67,7.55,3.25,9.95,1.81,7.48,1.23,17.36,1.09,25.19-.32,18.79-2.21,37.58-.33,56.38.55,5.44,1.96,9.66,1.42,15.42-.77,8.11-3.4,16.4-3.96,24.72-.74,10.88.74,20.72-.92,31.84-1.06,7.05-4.53,27.77-8.2,32.86-.76,1.05-2,1.95-2.68,3.02-1.77,2.79-2.07,7.51-2.93,10.78-2.94,11.14-5.41,23.26-8.81,34.13-3.12,9.96-8.3,19.35-11.15,29.46-1.98,7-.76,8.5-.76,15.29,0,10.66-.29,22.84,1.21,33.44.49,3.48,2.34,5.11,1.96,9.37-.38,4.25-4.63,8.51-6.18,12.18-.96,2.27-1.25,5.43-2.04,7.95-.68,2.16-3.41,7.65-3.58,9.12-.32,2.69,1.91,6.47.95,10.64-.31,1.37-1.51,2.26-1.52,3.37-.02,2.78,1.96,6.92,2.37,9.83,1.1,7.79-2.16,7.13-6.26,11.66-2.22,2.46-7.21,10.79-7.89,13.9-.82,3.7-.2,8.25-.91,11.89-.5,2.57-5.5,12.87-7.28,14.81-5.04,5.49-12.18,9.28-15.91.29-4.12-9.91-3.38-19.95-4.5-30.23l-23.29-52.38c-.58-1.83,1.32-2.91.76-4.79-.17-.56-3.69-4.71-4.46-5.91-3.9-6.05-8.13-16.53-10.69-23.42-1.95-5.26-2.99-14.82-6.51-18.83-2.22-2.52-4.96-1.77-6.78-6.13-4.09-9.81-3.27-22.73-4.42-33.13-7.98-17.5-14.97-35.5-23.15-52.91-1.33-2.84-3.36-5.35-4.41-8.34-.89-2.54-1.04-5.18-1.75-7.67-.89-3.13-2.98-6.19-3.53-9.31-.41-2.33.03-5.18-.63-7.31-.81-2.62-5.46-9.35-7.08-12.6-4.32-8.67-8.8-18.16-12.47-27.07-2.93-7.12,2.43-7.54,6.91-10.28,25.45-15.55,35.9-49.24,52.38-73.01,8.11-21.95,16.56-40.82,20.48-64.2,2.18-13.01,5.44-24.65,7.78-37.24,2.98-16.03,5.64-34.38,7.46-50.6.64-5.67.1-19.4,2.95-23.46,4.02-5.73,10.63-1.17,16.36-2.77h-.01Z"/>
  <path class="st1" d="M545.66,791.85c-.45.02-.9,0-1.34-.08-2.31-.41-4.16-2.23-5.48-5.42-3-7.22-3.43-14.34-3.88-21.88-.16-2.74-.33-5.57-.64-8.37l-23.28-52.35c-.32-1.01.03-1.78.37-2.53.33-.72.64-1.41.38-2.28-.08-.27-1.31-1.82-2.3-3.07-.92-1.16-1.79-2.25-2.14-2.79-4.09-6.33-8.47-17.42-10.71-23.46-.67-1.79-1.22-4.06-1.81-6.46-1.11-4.54-2.37-9.69-4.67-12.31-.84-.95-1.78-1.44-2.68-1.91-1.47-.76-2.99-1.55-4.13-4.28-2.91-6.97-3.34-15.4-3.76-23.55-.17-3.38-.34-6.57-.67-9.61-3.62-7.94-7.09-16.11-10.45-24.02-4.04-9.52-8.22-19.36-12.69-28.86-.55-1.16-1.22-2.29-1.88-3.39-.94-1.57-1.91-3.2-2.54-4.98-.51-1.44-.78-2.93-1.04-4.37-.2-1.1-.41-2.23-.71-3.31-.39-1.36-1.02-2.74-1.63-4.08-.78-1.71-1.59-3.48-1.91-5.26-.18-1.03-.2-2.17-.22-3.27-.02-1.4-.05-2.84-.41-4.02-.47-1.54-2.3-4.52-4.06-7.4-1.21-1.98-2.35-3.85-3.01-5.17-5.03-10.08-9.23-19.19-12.47-27.08-2.4-5.84.67-7.33,4.23-9.06.91-.44,1.85-.9,2.75-1.45,17.4-10.63,27.81-29.85,37.89-48.43,4.75-8.76,9.23-17.03,14.42-24.51,1.58-4.28,3.19-8.48,4.75-12.55,6.46-16.87,12.56-32.8,15.72-51.59,1.2-7.17,2.75-14.02,4.25-20.65,1.22-5.38,2.48-10.95,3.53-16.6,2.86-15.37,5.58-33.81,7.46-50.58.18-1.59.26-3.78.36-6.32.24-6.36.55-14.27,2.63-17.23,2.57-3.66,6.11-3.24,9.86-2.79,2.16.26,4.4.53,6.49-.03.23-.7.71-1.19,1.18-1.67.31-.32.61-.62.82-.98,1.19-1.97,1.52-6.98,1.79-11,.12-1.81.23-3.52.41-4.71.42-2.9,1.53-5.37,2.6-7.75.7-1.56,1.42-3.16,1.94-4.87.32-1.05.49-2.05.66-3.01.5-2.84.93-5.3,4.78-6.8,8.49-3.3,13.1-2.22,18.94-.86,2.45.57,4.99,1.17,8.13,1.52,5.22.59,10.6-.82,16.46-4.33,6.02-3.6,6.68-9.42,7.37-15.58.16-1.4.32-2.85.55-4.25.2-1.22,1.9-10.25,2.35-10.95,1.29-2.02,8.35-1.63,10.42-.52.45.24.82.58,1.19.91.4.36.77.71,1.18.84.55.19,1.4.3,2.3.42,2.32.3,5.2.68,5.68,2.69.49,2.04-.84,3.56-2.12,5.02-.64.73-1.25,1.42-1.64,2.18-.45,3.36-.24,7.22-.04,10.95.21,3.91.42,7.96-.13,11.38-.25,1.57-.95,2.98-1.62,4.34-.53,1.08-1.03,2.1-1.33,3.18-.83,3.1.03,12.79.81,16.44.52,2.43,1.8,3.86,3.15,5.39,1.07,1.21,2.18,2.46,2.94,4.27,6.12,14.64-.21,31.53-5.3,45.1l-.09.24c.03,1.45.07,2.9.11,4.35.09,3.18.19,6.46.17,9.68-.03,4.81-.1,9.71-.18,14.45-.09,5.87-.19,11.95-.19,17.89,0,2.43.12,4.96.23,7.41.29,6.39.6,13-1.03,19.15-.38,1.44-1.1,3.23-1.85,5.12-1.25,3.13-2.55,6.38-2.6,8.61-.02.97.94,3.49,1.79,5.71.63,1.64,1.22,3.19,1.46,4.19,1.55,6.42,1.35,14.54,1.18,21.7-.03,1.21-.06,2.4-.08,3.54-.09,5.54-.33,11.17-.55,16.61-.54,13.03-1.1,26.5.22,39.75.18,1.77.45,3.42.71,5.01.55,3.36,1.08,6.54.71,10.44-.36,3.81-1.15,7.74-1.91,11.53-.86,4.32-1.76,8.78-2.06,13.19-.31,4.5-.23,8.89-.16,13.14.1,5.99.21,12.19-.77,18.72-.68,4.54-4.27,27.44-8.23,32.95-.36.5-.83.97-1.28,1.42-.51.51-1.03,1.03-1.39,1.59-1.19,1.88-1.7,4.65-2.2,7.32-.23,1.22-.44,2.38-.71,3.41-1.07,4.06-2.1,8.33-3.09,12.47-1.75,7.26-3.55,14.76-5.72,21.67-1.46,4.65-3.39,9.25-5.27,13.7-2.14,5.1-4.36,10.37-5.88,15.75-1.36,4.82-1.2,7.05-.97,10.14.1,1.4.22,3,.22,5.09,0,1.52,0,3.08,0,4.66-.03,9.23-.07,19.69,1.22,28.76.19,1.33.59,2.41.97,3.45.6,1.63,1.23,3.32.99,5.97-.24,2.71-1.99,5.36-3.68,7.93-1,1.52-1.94,2.95-2.52,4.31-.54,1.29-.88,2.9-1.2,4.46-.24,1.17-.49,2.39-.83,3.47-.29.93-.95,2.45-1.65,4.05-.9,2.08-1.84,4.23-1.93,5.04-.13,1.07.16,2.32.5,3.76.48,2.06,1.02,4.4.45,6.9-.16.68-.52,1.25-.84,1.76-.36.56-.67,1.05-.67,1.58,0,1.56.63,3.58,1.25,5.54.49,1.54.94,3,1.12,4.26.81,5.76-.79,7.05-3.21,8.99-.93.74-1.98,1.59-3.09,2.82-2.15,2.39-7.16,10.7-7.85,13.81-.42,1.9-.46,4.07-.49,6.17-.03,1.94-.07,3.95-.41,5.71-.53,2.71-5.6,13.02-7.33,14.91-1.99,2.17-5.67,5.56-9.4,5.74ZM529.62,224.67c-2.06.1-3.92.77-5.42,2.9-2.01,2.87-2.32,10.72-2.56,17.03-.1,2.54-.18,4.74-.36,6.35-1.88,16.78-4.6,35.23-7.47,50.61-1.05,5.66-2.31,11.23-3.53,16.61-1.5,6.62-3.05,13.47-4.25,20.63-3.16,18.83-9.27,34.78-15.74,51.67-1.56,4.07-3.17,8.28-4.75,12.57l-.02.04c-5.18,7.47-9.66,15.74-14.41,24.5-10.1,18.62-20.54,37.88-38.02,48.57-.92.56-1.87,1.02-2.78,1.47-3.53,1.71-6.31,3.07-4.05,8.57,3.24,7.88,7.43,16.98,12.46,27.06.65,1.31,1.79,3.17,3,5.15,1.77,2.9,3.61,5.91,4.1,7.49.38,1.23.4,2.7.43,4.12.02,1.09.04,2.21.21,3.21.31,1.73,1.11,3.47,1.88,5.16.62,1.35,1.25,2.74,1.65,4.13.31,1.1.52,2.24.72,3.35.26,1.42.53,2.9,1.02,4.31.61,1.74,1.57,3.35,2.5,4.91.66,1.1,1.34,2.24,1.9,3.42,4.47,9.51,8.65,19.35,12.69,28.87,3.36,7.91,6.84,16.09,10.46,24.04l.02.06c.34,3.05.5,6.26.68,9.66.42,8.12.85,16.52,3.73,23.42,1.09,2.6,2.48,3.32,3.95,4.09.94.48,1.91.99,2.79,1.99,2.36,2.69,3.63,7.88,4.75,12.47.59,2.39,1.14,4.65,1.8,6.42,2.24,6.03,6.61,17.09,10.68,23.39.34.53,1.24,1.66,2.12,2.76,1.41,1.77,2.27,2.87,2.37,3.19.3,1.01-.05,1.79-.39,2.54-.32.72-.63,1.39-.36,2.24l23.3,52.39v.03c.31,2.83.48,5.67.65,8.42.45,7.51.87,14.6,3.85,21.76,1.27,3.06,3.02,4.81,5.2,5.19,2.91.51,6.7-1.51,10.4-5.54,1.71-1.87,6.72-12.05,7.24-14.72.34-1.73.37-3.72.4-5.64.04-2.12.07-4.31.5-6.25.7-3.16,5.76-11.57,7.94-13.98,1.13-1.26,2.2-2.11,3.13-2.86,2.41-1.93,3.86-3.1,3.08-8.64-.17-1.24-.63-2.68-1.11-4.2-.63-1.99-1.27-4.05-1.26-5.66,0-.64.36-1.19.73-1.78.32-.5.65-1.02.79-1.64.55-2.41.02-4.71-.45-6.73-.33-1.41-.64-2.75-.51-3.89.1-.87,1.05-3.04,1.96-5.15.69-1.59,1.34-3.09,1.63-4.01.33-1.07.58-2.27.83-3.44.33-1.58.66-3.21,1.22-4.53.59-1.39,1.54-2.84,2.55-4.37,1.66-2.53,3.39-5.14,3.62-7.75.23-2.56-.35-4.14-.97-5.81-.39-1.06-.79-2.15-.99-3.52-1.29-9.1-1.25-19.58-1.22-28.82,0-1.58.01-3.13,0-4.65,0-2.08-.12-3.67-.22-5.07-.23-3.13-.39-5.39.98-10.27,1.53-5.41,3.75-10.69,5.9-15.8,1.87-4.44,3.8-9.04,5.25-13.67,2.16-6.9,3.97-14.39,5.71-21.65.99-4.13,2.02-8.41,3.1-12.47.27-1.02.48-2.16.7-3.38.5-2.71,1.01-5.5,2.25-7.45.38-.59.92-1.13,1.44-1.65.44-.44.9-.9,1.24-1.37,3.99-5.55,7.75-30.01,8.16-32.78.97-6.5.87-12.68.76-18.66-.07-4.25-.15-8.65.16-13.17.3-4.43,1.2-8.91,2.06-13.23.76-3.79,1.54-7.7,1.9-11.49.37-3.86-.15-7.01-.7-10.34-.26-1.6-.54-3.26-.71-5.04-1.33-13.27-.77-26.76-.23-39.8.23-5.44.46-11.07.55-16.6.02-1.14.05-2.33.08-3.54.18-7.14.38-15.24-1.17-21.6-.24-.97-.82-2.52-1.45-4.15-.9-2.37-1.84-4.81-1.81-5.86.05-2.31,1.36-5.58,2.63-8.75.75-1.88,1.46-3.66,1.84-5.07,1.62-6.09,1.31-12.67,1.02-19.03-.11-2.45-.23-4.99-.23-7.43,0-5.94.1-12.02.19-17.89.08-4.74.15-9.65.18-14.45.02-3.21-.07-6.49-.17-9.67-.04-1.46-.08-2.93-.12-4.39v-.07s.11-.27.11-.27c5.07-13.51,11.37-30.32,5.31-44.82-.73-1.75-1.82-2.98-2.87-4.16-1.38-1.56-2.69-3.03-3.23-5.56-.78-3.62-1.68-13.35-.81-16.61.3-1.12.84-2.2,1.35-3.25.66-1.34,1.34-2.72,1.58-4.23.54-3.38.33-7.4.12-11.3-.2-3.76-.41-7.65.05-11.05l.02-.06c.41-.8,1.07-1.56,1.71-2.28,1.28-1.46,2.48-2.83,2.04-4.68-.42-1.75-3.15-2.11-5.36-2.4-.92-.12-1.78-.23-2.37-.43-.48-.16-.88-.53-1.31-.92-.35-.32-.7-.64-1.11-.86-1.88-1.01-8.78-1.41-9.92.39-.37.58-2,9.02-2.29,10.8-.23,1.4-.39,2.84-.55,4.23-.67,5.98-1.37,12.17-7.55,15.86-5.93,3.55-11.39,4.98-16.69,4.38-3.17-.36-5.83-.98-8.18-1.53-5.78-1.35-10.34-2.42-18.72.84-3.65,1.42-4.05,3.66-4.54,6.51-.17.98-.35,1.99-.67,3.06-.52,1.73-1.25,3.35-1.95,4.91-1.06,2.36-2.15,4.8-2.57,7.65-.17,1.18-.29,2.88-.41,4.68-.28,4.27-.61,9.11-1.84,11.17-.24.39-.56.72-.88,1.05-.48.49-.94.95-1.12,1.61l-.16-.04.06.17-.35.14v-.05c-2.09.5-4.29.24-6.42-.02-1.41-.17-2.78-.33-4.09-.27Z"/>
  <circle class="st1" cx="563.01" cy="193.39" r="2.16"/>
</svg>