<?xml version="1.0" encoding="UTF-8"?>
<svg id="Layer_1" xmlns="http://www.w3.org/2000/svg" version="1.1" viewBox="0 0 112.15 151.4">
  <!-- Generator: Adobe Illustrator 29.8.1, SVG Export Plug-In . SVG Version: 2.1.1 Build 2)  -->
  <defs>
    <style>
      .st0 {
        fill: none;
        stroke: #010101;
        stroke-miterlimit: 10;
      }
    </style>
  </defs>
  <path class="st0" d="M7.91,4.93c-.82-6.92,9.55-3.68,14.72-3.65,13.27,11.12,21.53,29.73,40.8,29.2,2.54-.07,13.66-7.53,23.96-6.99,1.21.06,16.94,7.77,11.6-2.56-1.18-2.28-9.89-8.48.35-6.38,6.97,3.03,5.03,12.64,7.11,18.9,1.53,4.62,8.46,5.65,3.34,12.32-3.78,4.92-9.98,2.95-14.48,5.55-6.72,3.88-2.75,3.5-12.75,7.22-12.78,4.75-11.5,19.38-12.63,31.03l18.06,24.4-.03,2.98c-9.51-2.34-9.89,12.72-7.76,18.79,1.25,3.53,6.11,1.83,5.74,5.21-5.07-1.07-7.73,4.04-10.98,5.02-10.34,3.11-14.4-4.47-22.16-4.86-6.39-.32-20.94,1.41-19.05,9.77l-7.54-.22-10.27-19.67h8.02c-.38-13.46-4.65-28.6,7.02-38.09l8.96,4.06c-.16-15.98-16.22-7.09-25-7.81-13.47-1.1-2.9-11.37-3.68-17.26-.6-4.51-9.95-1.95-7.26-13.82,1.59-7.01,11.47-10.03,11.95-18.25C16.77,25.47-5.31,17.63,1.98.98l5.94,3.98v-.03h0Z"/>
</svg>