<?xml version="1.0" encoding="UTF-8"?>
<svg id="Layer_1" xmlns="http://www.w3.org/2000/svg" version="1.1" viewBox="0 0 142.12 114.43">
  <!-- Generator: Adobe Illustrator 29.8.1, SVG Export Plug-In . SVG Version: 2.1.1 Build 2)  -->
  <defs>
    <style>
      .st0 {
        fill: none;
        stroke: #010101;
        stroke-miterlimit: 10;
      }
    </style>
  </defs>
  <path class="st0" d="M121.94.72c-.12,10.34,18.4,16.42,19.95,23.1,1.73,7.48-7.01,16.9-4.62,24.62l-2.02,1.92c-3.12-2.57-13.7-3.51-14.52.98-.18,9.97,6.58,13.08,9.48,21.08-9.94-.72-14.25,5.34-22.18,8.78-3.16,1.37-8.11.86-9.91,2.13-2.83,1.99-1,9.85-4.8,10.62-16.77-4.73-30.3-.67-45.09,6.51l11.98,13.97c-5.8-1.67-10.39-4.97-16.51-6.66-3.18-.88-5.44.22-8.11-.11-4.79-.6-7.63-5.35-15.35.79l-.02-6.02-5.99.02,1.99,5.97-7.99-2.01,4-7.96c-5.28-.07-13.32-2.25-12.11-8.92.21-1.17,4.78-1.96,6.62-5.56,8.32-16.3,3.77-33.38,31.49-29.55,2.32-6.73-4.12-9.31-5.39-13.28-1.43-4.49,2.41-16.06,1.48-21.73-.63-3.85-9.9-6.89-6.09-10.96,2.67-2.85,8.98,10.79,13.97,1.98l1.22,6.13c6.2-1.57,10.58,2.81,15.95,3.68,2.48.4,22.37-3.02,25.45-3.75,2.03-.48,1.89-4.07,3.4-4.95,3.27-1.91,7.81-.81,11.49-2.6,6.67-3.24,11.98-11.42,22.22-8.21h.01Z"/>
</svg>