<?xml version="1.0" encoding="UTF-8"?>
<svg id="Layer_1" xmlns="http://www.w3.org/2000/svg" version="1.1" viewBox="0 0 2301.73 1440">
  <!-- Generator: Adobe Illustrator 29.8.1, SVG Export Plug-In . SVG Version: 2.1.1 Build 2)  -->
  <defs>
    <style>
      .st0 {
        fill: none;
        stroke: #000;
        stroke-miterlimit: 10;
        stroke-width: .05px;
      }
    </style>
  </defs>
  <path class="st0" d="M1397.11,853.93l18.15-27.11,17.64,31.66c-5.04,8.05-18.44,14.74-21.03,23.77-3.12,10.87,16.4,35.91,1.18,58.86-14.69,22.17-30.12.82-50.97,2.29l4,22.74c-10.95,6.77-21.17,20.36-31.22,26.87-1.41.91-29.99,11.25-31.66,11.48-11.86,1.6-19.14-12.96-30.55,5.62,3.97,5.07,11.03,9.07,14.28,14.36,1.31,2.14-2.72,5.54-1.42,7.6,1.7,2.69,21.14,17.28,24.52,18.85,17.3,8.05,17.84-12.42,22.63-21.54,11.52-22.02,9.87-11.62,19.37-12.98,2.72-.38,3.06-9.89,9.89-12.07,4.37-1.38,12.87,2.45,18.34,2.64,4.59.16,8.45-2.26,12.42-2.18,3.47.06,5.94,5.79,12.4,3.42,30.7-11.28,14.87-32.71,18.6-49.01,2.83-12.34,33.29-43.34,44.28-45.15,12.31-2.03,25.14,29.4,38.51,32.46,3.07,4.11-4.03,31.32-3.86,34.22.19,3.18,4.85,9.25,5.78,14.44,3.2,18.02-14.84,23.21-23,34.03-7.39,9.79-13.24,26.81-23.14,36.27-3.86,2.59-23.86-14.2-29.96-2.18-1.58,2.37,11.7,16.36-2.13,29.16-7.44,6.87-29.19,16.13-32.95,1.47-1.65,4.43-.88,7.78-3.71,12.47-1.9,3.18-25,29.82-26.73,30.92-9.03,5.7-15.36-8.42-20.57-1.55-1.33,24.81-12.93,48.51,2.35,70.28-9.79,1.28-16.72,9.01-24.9,11.57-28.04,8.79-33.79-4.19-57.7,26.82-24.25,31.46-15.48,27.35-4.88,56.58,7.04,19.4,12.61,39.45,19.56,58.83l-28.33,10.18-5.76-20.31c10.35-15-1.58-14.32-10.03-27.19l-9.09,9.04-4.5-9.01-13.41,13.57c22.39,24.44,12.71,33.51-9.97,50.83-15.88-14.05-29.82,12.82-38.87,11.56-3.49-.48-8.87-6.24-13.59-7.91-8.24-2.88-29.7-5.15-31.7-14.72-1.14-5.54,2.98-23.03,2.61-29.5-.37-6.47-4.74-12.39-5.2-20.42-.74-13.16,5.15-29.32,4.85-40.75-.4-15.83-13.51-67.04-35.11-47.39-1.7,1.54-23.16,32.06-23.72,34.06-.78,2.8,4.19,20.93,3.67,29.72-.13,2.42-.22,26.01-8.29,19.78-6.63-5.12-7.92-35.88-33.88-24.85,7.86-54.19-38.99-4.55-64.51-23.77,7.12-10.13,17.16-2.37,26.06-8.07,13.7-8.75,2.32-15.51,14.68-23.64-3.76-5.94-11.17-5.38-15.88-8.87s-6.8-17.14-12.07-.86c4.37,5.62,10.39,14.98,3.02,21.05-3.15-13.38-4.74-28.84-15.84-38.43l-4.35,8.59c-27.42-11.35-12.34,22.07-15.64,28.73-3.12,6.29-12.5,10.55-13.94,19.22-3.79-.42-4.96-22.04-10.43-28.26-3.94-4.48-31.58-20.84-36.55-20.18-19.19,7.75-6.87,20.97-4.47,33.18.96,4.85-2.67,7.87.38,16.44,2.24,6.24,9.14,14.61,11.41,22.01l25.99-.51c-8.21,6.35-26.22,22.57-35.07,25.27-6.85,2.1-9.23-3.67-12.42-3.67-2.88,0-6.66,5.23-10.13,4.69-6.51-1.01-26.02-25.29-34.01-31.7-5.86-4.69-24.6-17.27-31.69-21.81-16.21-10.42-39.95-10.1-52.03-17.99-8.07-5.27-28.3-37.07-29.27-46.44-1.76-17.32,22.17-32.52,32.6-17.51,4.85-3.31,8.71-6.13,14.76-7.22,19.19-3.47,26.87,10.82,37.29-12.28,9.44,4,23.27,12.47,29.46,1.94l-18.07-9.03,17.06-35.21,6.37,2.3,3.7-7.86c10.88,7.36,19.19,20.81,32.78,14.74,2.98,12.26-9.46,21.86-6.24,33.9,3.22,12.04,13.04,16.05,19.65,24.89,3.63,4.85,3.54,11.67,7.17,15.91,6.79,7.91,19.38,10.1,29.26,8.98-10.48-9.62-20.18-21.05-26.97-33.91-14.08-26.71.72-32.71,12.1-56.59,2.02-4.23.66-9.28,2.51-13.56,6.13-14.12,19-23.48,32.82-29.7,10.91,6.07,15.83,22.65,22.36,29.22,9.09,9.2,32.71,13.32,35.69,18.41,3.5,6.61-3.67,17.22-1.62,22.58,1.06,2.75,7.17,4.51,10.05,11.35,8.66,20.42,7.57,47.12,15.38,66.02,2.22,5.38,8.37,15.97,15.01,12.64l19.32-18.5c-10.99-6.4-3.95-20.39-5.94-23.59-1.49-2.42-8.42-4-12.12-8.98-2.54-3.42-20.92-40.17-24.49-47.63-7.59-15.78-3.06-32.12-25.25-41.48l-6.66,6.27c-10.39-7.44-1.57-14.63-1.46-17.96.29-9.62-2.82-22.98,4.63-32.97,2.59-3.47,8.35-1.84,11.7-4.59,5.86-4.85,4.59-12.68,9.06-17.6,4.47-4.93,16.87-8.74,19.65-12.61s-6.15-13.81,1.71-18.36l33.05,44.28,9.95,7.51,7.84-7.39c-4.48-13.08-11.78-22.87-7.12-37.07l-32.58-21.86c-4.67-11.44,20.17-26.02,28.57-20.95,9.92,6,5.28,15.91,13.78,23.24,2.27,1.95,29.93,19.25,33.59,21.3,12.23,6.82,35.43,18.34,44.75,3.12,2.16-3.54-2.4-9.23-1.52-13.4,1.1-5.2,8.13-9.15,6.53-15.86-3.73-5.87-23.45-.22-29.42-.21-8.88,0-14.84-10.29-25.99,3.58-2.69-27.3,15.83-17.09,28.92-20.12,17.19-3.97,23.08-13.4,35.61-20.58,16.96-9.75,34.83-18.21,50.94-29.4l18.08,27.11c6.37-.46,56.53-57.01,33.93-69.52l-53.12,9.52c.94-33.11-9.51-63.06,15.64-90.55,11.19-12.23,29.3-29.03,45.5-18.21,4.77,3.18,5.43,9.25,11.06,11.49,10.85,4.31,40.91-12.42,48.57-21.57l-5.38-7.84c18.92-6.1,38.35,5.43,50.94-14.71l18.07,108.59h.06l.05-.06Z"/>
  <path class="st0" d="M1248.53,492.6c2.38,4.1,1.26,19.94-.96,24.9-.94,2.11-28.44,31.58-31.45,34.15-18.21,15.6-50.16,31-69.03,47.82-10.55,9.41-22.21,28.14-32.31,38.11-53.77,53.1-160.14,140.95-190.12,206.79-19.38,42.56,22.74,95.79,4.72,141.57-8.75,8.43-29.51,10.31-36.94,18.26-9.59,10.27-11.8,34.07-20.71,43.31-14.93,15.44-52.65,27.45-70.42,41.61-5.99,4.77-30.02,38.22-35.4,33.39-14.5-39.64-19.91-90.89-36.01-128.85-4.96-11.7-42.27-63.07-39.32-69.65,11.8-14.34,28.78-25.91,41.37-38.68,7.76-7.87,15.08-20.55,22.76-28.46,133.57-137.16,257.49-259,371.08-416.34,6.72-9.31,8.8-22.28,17.73-30.41l105,82.49h0v-.02Z"/>
  <path class="st0" d="M1309.5,632.38c-2.56,3.46-10.37,4.48-11.06,12.77-.85,10.31,19.03,23.56-13.44,26.71-2.72,11.49,15.94,5.84,18.97,14.82,1.06,31.77-22.47,18.84-39.34,24.1-1.3.4-15.03,15.67-19.56,18.73-2.67,1.81-24.77,15.06-26.28,15.43-5.91,1.44-17.7-5.23-25.14.24-7.55,7.46-6.58,27.26-8.21,28.73s-8.85-.51-12.48,1.82c-7.19,4.63-2.75,16.82-3.49,17.36-1.7,1.25-7.54-.22-10.87,3.52-4.45,5.01-9.07,32.3-17.57,40.08,0,11.67,17.2,18.73,18.93,21.24,1.36,1.97-2.85,7.44-2.66,10.88.37,6.45,6.91,11.22,6.31,25.57-.8,19.24-4.45,14.4-15.09,21.88-2.18,1.54-2.3,5.91-6.51,7.76-11.46,5.07-32.98-2.72-39.64,2.06l-2.98,14.61c-10.02,1.3-8.23-12.04-17.62-12.98-13.19-1.31-17.91,14.82-30.34,13-1.34-22.55-22.39-14.04-13.06,5.99l-27.08,11.99c-18.9.77-37.37-64.4-30.28-79.56.98-2.1,26.06-17.36,34.04-30.78,3.84-6.47,18.2-35.91,20.2-41.4,3.7-10.15-6.42-11.11,15.88-10.75-1.9-12.07,6.4-7.71,11.4-12.29,3.91-3.6,5.44-13.56,9.92-18.97,8.79-10.63,32.28-8.4,46.22-13.08-3.54-18.87,10.15-35.85-6.43-54.35l19.33-5.03c3.54-9.75-19.03-22.57-14.55-30.23s3.01,4.31,12.84,3.54c10.88-.85,7.65-6.67,9.95-6.91,6.11-.64,15.48,8.83,16.87-4.13l-5.86-11.44c12.47-9.44,22.17-16.63,37.34-21.93,5.12-1.79,12.29.35,17.84-1.36,15.96-4.93,3.01-7.89,29.85-6.08,9.36.64,13.65-6.58,22.02,6.67,4.71-1.97,6.9-11.99,10.26-12.8,4.31-1.06,36.54-.75,40.41.58,11.72,4,5.95,17.41,1.02,24.05l-.05-.06h0Z"/>
  <path class="st0" d="M1413.24,211.21c-4.55,4.56-10.82,25.72-10.77,32.78.21,23.38,29.66,60.34,6.5,76.56-33.72,23.61-51.98-16.12-72.44-36.23-12.52,1.7-23.45,4.37-20.34,18.66l-24.66,6.1c-17.51-3.39-22.23-23.27-44.04-9.25l-4.37-7.38,5.76-9.67-12.5-13.24c17.33-7.78,12.85-30.55,18.89-38.67,2.02-2.7,7.52-3.68,9.79-6.34,3.07-3.58,2.66-9.52,5.31-11.32,3.7-2.48,11.73-.61,14.07-5.12,2.7-5.23,7.23-34.55,6.53-41.05-1.92-17.73-32.33-63.94-51.44-70.34,6.69-7.35,15.52-2.98,24.26-7.83,7.23-4.02,5.35-13.68,7.41-14.71,5.35-2.66,13.81-.14,15.94-2.06.69-.61,3.52-13.44,8.55-15.62,13.68,7.14,22.5,4.39,35.05,16.29l15.96-12.18c9.89,11.41,14.95-2.13,26.09-2.94,12.68-.94,28.78,12.15,38.06,11.56,1.06-.06,19.25-6.15,20.05-6.85,3.23-2.86-1.98-12.79,11.64-12.13,12.23.58,19.45,18.57,34.04,17.65,8.45,5.17-8.18,44.38-9.17,51.9-.78,5.95,2.99,11.89,2.75,18.39-.38,9.84-20.07,44.84-27.3,52.99-9.33,10.51-23.75,14.15-29.61,20.01v.03h0Z"/>
  <path class="st0" d="M1407.4,407.2c3.71,8.51,29.38,8.64,38.3,8.83l-4.35,8.72c3.54,4.82,8.91.5,12.68,2.27,3.94,1.87,7.36,9.31,13.57,12.82,7.33,4.13,19.75-.5,16.47,16-2.4,12.02-14.31,10.31-21.91,18.21-2.27,2.38-2.86,9.25-4.42,9.76-.9.27-7.17-3.55-10.98-3.42-9.92.37-7.43,8.61-18.87-4.39-50.8,19.93,11.51,44.91,21.4,63.2,1.54,2.83.74,21.61-.42,25.3-5.33,16.93-9.14,7.01-17.14,9.28-2.8.78-17.59,11.65-20.34,12.71-3.55,1.36-6.59-4.07-10.5-2.86-3.02.93-19.22,13.64-21.51,13.64-3.99-14.24-18.53-34.35-35.55-27.78-5.46,2.11-6.08,9.35-9.68,8.98-7.71-.78-20.47-15.51-33.34-14.45l3.46-10.95c-5.31-10.07-6.8-66.9-10.59-71.81-4.39-5.63-11.54-5.62-17.04-10.63-16.4-14.9-12.93-30.55-43.32-34.79-5.54-.77-12.72,2.32-13.73,1.87-16.44-7.2-24.33-26.33-42.06-30.49-2.05-6.42,20.44-47.44,26.81-53.45,3.7-3.49,10.26-3.57,12.63-6.82s2.35-18.09,8.5-26.3c12.87-17.22,18.63,2.24,24.6,4.48,4.67,1.76,11.04-5.49,15.7-3.73,8.05,3.02,6.95,18.05,26.12,6.8,1.28,15.12,2.77,24.93,20.84,22.95-9.87,10.34,19.91,25.62,28.34,28.68,3.71,1.34,4.56-5.99,8.99-5.95,5.01.05,13.48,7.31,20.63,3.74l8.24-14.04c1.94-.34,24.65,26.09,26.68,28.97,4.9,6.93.98,12.68,1.82,14.58l-.03.03h0l.02.02Z"/>
  <path class="st0" d="M1006.27,335.65c2.3-8.66,11.03-12.29,19.35-9.07,2.03.78,25.13,27.26,19.73,32.25-12.66,2.18-25.53,9.12-29.46,22.09,2.05,9.33,35.18,19.46,43.4,16.95,3.09-.94,3.3-6.27,5.67-6.91,8.77-2.45,34.36,7.83,43.07,10.32-8.24,7.06.35,20.74-1.14,26.06-3.54,12.69-61.57,66.03-74.71,65.68-4.5-.11-8.32-5.01-10.1-4.91-1.18.06-17.97,12.36-19.24,13.88-7.59,9.11,6.31,24.07-15.78,42.52-15.6,13.04-25.22,9.06-43.18,9.41-3.86.08-9.3,3.2-10.23,3.01s-13-13.67-13.52-14.5c-2.69-4.16-.75-10.95-4.16-15.17-2.77-3.42-8.98-4.23-11.92-9.2s.62-13.2-.64-18.29c-11.12-44.41-15.57-42.67,2.14-88.28,2.74-7.04,9.76-14.68,11.03-20.37,1.49-6.74-6.66-18.73-3.55-24.9,1.26-2.51,21.35-25.67,23.97-27.02,6.1-3.1,48.21-14.31,54.51-13.65,7.41.75,10.15,5.28,14.74,10.11h0l.02.02Z"/>
  <path class="st0" d="M886.89,525.24c-.78,1.38-5.43-.1-5.06,5.55.46,7.23,5.41,19.99,8.95,26.7,5.78,10.96,15.4,16.07,21.22,23.59,3.02,3.89,2.59,10.34,5.11,13.44,7.54,9.3,22.95,14.87,28.82,23.03,9.31,12.93-23.91,15.84-33.31,21.3-12.2,7.09-3.97,13.6-5.22,15.38-.66.93-12.96,2.72-16.6,4.4-13.62,6.26-19.29,16.88-35.79,8.18-15.49-8.16-17.08-28.2-43.69-20.63l-2.85,14.39c13.76.46,10.39,7.78,14.37,12.66,4.83,5.91,10.88,3.73,11.33,14.82.35,8.34-4.63,11.68-5.23,15.97s2.9,10.27,1.82,15.41c-.24,1.15-17.32,14.05-18.44,14.39-21.69,6.69-58.74-10.29-81.01-12.16l3.2-19.17-19.19,6.35c3.89-8.66,14.8-12.77,18.36-21.62,1.89-4.67,7.49-39.16,7.15-43.82-.83-11.54-15.01-23.14,9.68-30.62-4.51-9.15-11.84-23.03-9.83-33.4.62-3.22,6.61-.72,8.77-2.56,4.83-4.13,4.9-13.97,16.98-12.12l.06-9.41c-4.98.64-10.16-3.09-14.58-3.02-4.02.06-12.45,10.48-14.21,1.31-1.2-6.29,9.38-8.45,12.95-12.72,2.4-2.88,2.18-8.05,4.11-10.15,13.92-15.22,41.95-11.24,58.06-1.06,5.27-1.12,7.65-21.09,12.13-24.84,5.11-4.27,15.91-.48,22.28-1.39,4.5-.64,9.01-5.94,13.78-5.83,5.79.14,7.76,6.42,11.36,7.89,9.03,3.7,25.29.7,14.4,19.75h.08,0Z"/>
  <path class="st0" d="M1479.48,605.55l-3.15,12.61c10.53-1.57,32.55,7.73,40.89,2.27,1.49-.98-.86-8.18,7.06-5.44,2.32,1.76,9.23,29.1,12.68,33.79,4.05,5.51,23.32,19.33,29.24,25.98-15.41,28.84,28.09,18.23,31.74,34.71,1.81,8.16-12.9,6.47-18.87,13.04-5.38,5.92-9.15,17.25-.38,22.12-7.47,4.34-24.85,15.96-28.92,23.03-4.51,7.84-1.66,21.56-5.94,27.74-5.49,7.92-32.78-1.2-29.14,18.07-13.86-3.83-29.26-9.09-43.1-3.31l-3.36-3.09c-.3-18.23-18.68-20.76-7.89-44.83-15.09,6.45-31.93-17.52-40.62-18.84-6.11-.91-11.56,15.78-22.57,5.14-10.53-10.18-5.36-22.42,8.75-24.79-15.92-19.91-10.48-54.51-6.23-78.18l-6.56-4.95c19.62-6.37,34.3,12.69,54.38,9.55l-12.79-19.16c15.19,2.64,14.74-21.65,22.87-31.61l21.89,6.16h0l.02-.02Z"/>
  <path class="st0" d="M701.96,745.82c-.19,16.55,29.45,26.28,31.93,36.97,2.77,11.97-11.22,27.05-7.39,39.4l-3.23,3.07c-4.99-4.11-21.93-5.62-23.24,1.57-.29,15.96,10.53,20.93,15.17,33.74-15.91-1.15-22.81,8.55-35.5,14.05-5.06,2.19-12.98,1.38-15.86,3.41-4.53,3.18-1.6,15.76-7.68,17-26.84-7.57-48.49-1.07-72.16,10.42l19.17,22.36c-9.28-2.67-16.63-7.95-26.42-10.66-5.09-1.41-8.71.35-12.98-.18-7.67-.96-12.21-8.56-24.57,1.26l-.03-9.63-9.59.03,3.18,9.55-12.79-3.22,6.4-12.74c-8.45-.11-21.32-3.6-19.38-14.28.34-1.87,7.65-3.14,10.59-8.9,13.32-26.09,6.03-53.42,50.4-47.29,3.71-10.77-6.59-14.9-8.63-21.25-2.29-7.19,3.86-25.7,2.37-34.78-1.01-6.16-15.84-11.03-9.75-17.54,4.27-4.56,14.37,17.27,22.36,3.17l1.95,9.81c9.92-2.51,16.93,4.5,25.53,5.89,3.97.64,35.8-4.83,40.73-6,3.25-.77,3.02-6.51,5.44-7.92,5.23-3.06,12.5-1.3,18.39-4.16,10.67-5.19,19.17-18.28,35.56-13.14h.02v-.02Z"/>
  <path class="st0" d="M1070.35,137.21c-1.31-11.08,15.28-5.89,23.56-5.84,21.24,17.8,34.46,47.58,65.3,46.73,4.07-.11,21.86-12.05,38.35-11.19,1.94.1,27.11,12.44,18.57-4.1-1.89-3.65-15.83-13.57.56-10.21,11.16,4.85,8.05,20.23,11.38,30.25,2.45,7.39,13.54,9.04,5.35,19.72-6.05,7.87-15.97,4.72-23.17,8.88-10.75,6.21-4.4,5.6-20.41,11.56-20.45,7.6-18.41,31.02-20.21,49.66l28.9,39.05-.05,4.77c-15.22-3.74-15.83,20.36-12.42,30.07,2,5.65,9.78,2.93,9.19,8.34-8.11-1.71-12.37,6.47-17.57,8.03-16.55,4.98-23.05-7.15-35.47-7.78-10.23-.51-33.51,2.26-30.49,15.64l-12.07-.35-16.44-31.48h12.84c-.61-21.54-7.44-45.77,11.24-60.96l14.34,6.5c-.26-25.57-25.96-11.35-40.01-12.5-21.56-1.76-4.64-18.2-5.89-27.62-.96-7.22-15.92-3.12-11.62-22.12,2.54-11.22,18.36-16.05,19.13-29.21,1.31-22.97-34.03-35.51-22.36-62.16l9.51,6.37v-.05h-.02Z"/>
  <path class="st0" d="M1700.91,211.47c-9.36-.24-19.89,1.54-28.79-1.58,13.24-9.17,29.62-4.93,33.58-24.01,8,10.53,5.31,18.74-4.79,25.59,3.2.08,6.42-.14,9.6,0l.11,10.74c-25.54,10.4-14.84,8-19.46,25.88-1.49,5.78-5.47,8.95-6.43,16-.9,6.53-3.66,53.97-2.56,57.36,1.82,7.81,10.03,1.23,13.91,5.03,6.53,6.42,19.91,38.95,27.26,43.39,7.79,4.71,21.67-.86,29.99,2.11,3.7,1.33,3.87,6.34,6.31,8.19,2.14,1.65,7.14.29,8,1.23,1.01,1.1,3.95,27.06,3.7,29.82-.4,4.26-12.76,25.85-15.91,29.18-4.8,5.09-11.28,5.81-15.89,9.71-4.61,3.9-5.63,10.31-11.75,13.86-16.42,9.55-34.87-3.47-52.46,3.52l-.16-28.66c-25,2.37-23.49-18.53-28.71-36.91,31.69-5.78,8.63-14.88,7.15-22.79-.96-5.17,5.84-14,1.01-20.58-5.39-8.13-27.13,10.13-40.14,4.5-1.68-.72-24.45-14.61-25.51-15.67-3.75-3.83-5.22-10.51-6.27-15.68,1.14-5.38,12.79-4.53,17.67-8.08,3.87-2.82,2.69-9.33,10.63-11.57,4.23-1.18,20.84-3.57,24.41-3.09,5.28.72,11.32,11.12,17.65,6.72,13.76-16.13,1.26-40.08,3.06-54.37,1.41-11.25,17.33-26.65,9.7-43.36l33.16-3.23,1.95-3.3v.05h0Z"/>
  <path class="st0" d="M611.94,754.08c-5.95-2.19-5.63-8.79-11.88-12.07-10.29-5.41-24.95-.24-26.06-.99-2.7-1.84-1.41-13.41-14.56-12.58-2.98.19-29.46,10.61-32.42,12.71-6.21,4.4-24.37,37.66-30.25,32.12-.61-23.93-10.55-47.89.08-71.09,1.42-3.12,13.24-9.71,17.64-15.19,3.95-4.93,19.41-32.87,20.07-37.61.69-5.01-9.65-10.42-4.39-16.95,18.79-21.91,27.8-4.8,45.24-3.41,4.93.4,9.73-3.01,15.04-2.35,4.11.5,30.31,12.21,32.54,15.56,21.38,32.23-17.32,76.31-11.04,111.85h-.02Z"/>
  <path class="st0" d="M1573.8,144.03c12.84,6.5,31.37,18.09,45.64,23.16,4.82,1.71,13.8.35,15.65,1.94,1.18,1.01.99,7.51,3.57,10.69,5.6,6.9,12.85,8.29,13.12,19.01.06,2.45-3.22,23.4-3.94,25.32-1.76,4.69-8.27,4.13-9.09,7.52-1.25,5.09,2.37,15.06-2.91,18.79-14.23,10.02-36.35-31.77-44.09-40.28-19.91.3-105.98,10.91-114.61-6.31-8.91-15.68,4.95-23.25,7.36-31.11,3.3-10.72,2.85-37.45,16.63-44.16,15.76-7.68,26.33,4.1,37.77,7.07,11.27,2.93,23.64,2.7,34.87,8.4v-.05h.02Z"/>
  <path class="st0" d="M1548.27,373.61c.18,15.03,13.17,17.91,25.91,18.93,6.32,7.46-24.36,25.7-14.48,41.64l17.17,11.41c-11.7,32.42,12.66,21.17,23.06,28.47,3.38,2.37,1.73,9.25,5.06,11.59,4.07,2.83,14,.03,13.97,6.07-21.53-4.74-13.22,7.3-20.45,13.14-5.07,4.1-15.09,1.23-17.52,8.08-8.98,28.82,15.6,28.68,18.81,49.2-21.49-.4-42.25,8.05-60.75,17.6l4.91,11.48c-7.78,21.17-24.61-2.54-36.94-8.24l12.77-20.84,9.54,3.23c-1.09-24.39-19.19-44.54-18.82-69.01.03-2.22,5.86-1.92,7.54-4.55,3.5-5.47,2.59-20.9,10.98-27.75l-9.28-10.67,12.77,3.18v-19.19c13.97.96,13.84-7.31,12.8-19.22l-12.77,3.17,3.07-10.83c-18.02-8.31-8.43-40.99,12.63-36.84l.03-.05h0Z"/>
  <path class="st0" d="M1551.15,253.99c1.73,2.13,5.11,16.63,3.95,18.16-23.75,2-11.33,18.85-13.03,27.18-1.04,5.12-10.5,3.55-12.79,7.03-4.45,6.72-6.51,26.54-9.55,33.93-3.65,8.85-11.65,21.7-17.01,31.58-2.27,4.18-1.78,10.32-4.9,14.32-13.86,17.83-40.06-4.95-57.84,4.55,2.54-10.24,9.97-17.88,8.88-29.67-1.02-11.06-15.16-27.64-14.55-35.4,1.42-18.31,39.96-26.34,11.84-42.51l3.46-10.83,12.76,6.39-6.37-15.97c9.68.5,27.7,2.02,36.14.05,2.99-.7,3.94-8.99,11.62-11.49,9.07-2.94,40.8-5.41,47.39,2.7h0Z"/>
  <path class="st0" d="M658.88,946.85l21.46,36.65c-9.39,11.43-13,26.78-18.31,40.56-5.91,15.32-9.67,25.59-9.27,42.56,1.09,45.85-9.01,25.08-45.9,29.93-5.71-15.72-45.71-28.92-46.12-42-.54-17.06,19.91-24.33,29.4-37.74,8.75-12.36,15.84-31.59,24.31-45.48,1.86-3.06,12.77-3.31,3.1-13.44l-6.37,1.52,1.39-9.76c4.48-6.21,35.8,2.62,46.3-2.78h0Z"/>
  <path class="st0" d="M1621.64,595.78c1.23,1.94,10.83,4.59,13.46,4.18,2.08-.32,1.89-5.41,2.51-5.75.74-.4,14.58-.85,16.76-.82,2.34.03,1.6,5.59,5.76,7.39,8.85,3.86,25.37,8.43,33.51,12.84,1.44.77,6.26,9.17,10.61,10.15l-9.62,1.6c-1.02,8.59-.24,8.16,6.42,11.17l-6.4,7.99c23.25-4.74,29.7,18.1,16.08,33.72-8.98,10.29-53.63,18.04-65.84,16.18-21.54-3.28,1.47-43.63-1.47-46.65-12,4.39-77.99,12.66-68.32-11.94,1.58-4.02,8.23-6.24,11.52-11.19,4.64-6.95,9.06-19.45,12.98-23.96,4.63-5.3,12.5-4.23,15.08-6.11,3.47-2.54,1.58-9.03,6.31-7.63.24,2.7-.74,6.67.64,8.82h.02v.02Z"/>
  <path class="st0" d="M1784.21,560.73c15.49-1.86,10.58,44.54-1.65,25.78l-6.74,12.98c-11.56-1.98-18.79.46-28.39,6.21-9.89-7.01.7-18.42-1.66-28.82l-12.84-.03c18.65-25.67,19.33-58.29,26.34-87.26,1.58-6.51,12.02-8.5,5.63-21.54,25.22-7.73,27.35,20.9,44.86,30.47-15.51,18.55-17,40.8-25.57,62.21h.02Z"/>
</svg>