<?xml version="1.0" encoding="UTF-8"?>
<svg id="Layer_1" xmlns="http://www.w3.org/2000/svg" version="1.1" viewBox="0 0 1920 2214">
  <!-- Generator: Adobe Illustrator 29.8.1, SVG Export Plug-In . SVG Version: 2.1.1 Build 2)  -->
  <defs>
    <style>
      .st0 {
        fill: none;
        stroke: #000;
        stroke-miterlimit: 10;
      }
    </style>
  </defs>
  <path class="st0" d="M684.4,1644.18l11.34-16.94,11.02,19.78c-3.15,5.03-11.52,9.21-13.14,14.85-1.95,6.79,10.25,22.44.74,36.78-9.18,13.85-18.82.51-31.85,1.43l2.5,14.21c-6.84,4.23-13.23,12.72-19.51,16.79-.88.57-18.74,7.03-19.78,7.17-7.41,1-11.96-8.1-19.09,3.51,2.48,3.17,6.89,5.67,8.92,8.97.82,1.34-1.7,3.46-.89,4.75,1.06,1.68,13.21,10.8,15.32,11.78,10.81,5.03,11.15-7.76,14.14-13.46,7.2-13.76,6.17-7.26,12.1-8.11,1.7-.24,1.91-6.18,6.18-7.54,2.73-.86,8.04,1.53,11.46,1.65,2.87.1,5.28-1.41,7.76-1.36,2.17.04,3.71,3.62,7.75,2.14,19.18-7.05,9.29-20.44,11.62-30.62,1.77-7.71,20.8-27.08,27.67-28.21,7.69-1.27,15.71,18.37,24.06,20.28,1.92,2.57-2.52,19.57-2.41,21.38.12,1.99,3.03,5.78,3.61,9.02,2,11.26-9.27,14.5-14.37,21.26-4.62,6.12-8.27,16.75-14.46,22.66-2.41,1.62-14.91-8.87-18.72-1.36-.99,1.48,7.31,10.22-1.33,18.22-4.65,4.29-18.24,10.08-20.59.92-1.03,2.77-.55,4.86-2.32,7.79-1.19,1.99-15.62,18.63-16.7,19.32-5.64,3.56-9.6-5.26-12.85-.97-.83,15.5-8.08,30.31,1.47,43.91-6.12.8-10.45,5.63-15.56,7.23-17.52,5.49-21.11-2.62-36.05,16.76-15.15,19.66-9.67,17.09-3.05,35.35,4.4,12.12,7.88,24.65,12.22,36.76l-17.7,6.36-3.6-12.69c6.47-9.37-.99-8.95-6.27-16.99l-5.68,5.65-2.81-5.63-8.38,8.48c13.99,15.27,7.94,20.94-6.23,31.76-9.92-8.78-18.63,8.01-24.29,7.22-2.18-.3-5.54-3.9-8.49-4.94-5.15-1.8-18.56-3.22-19.81-9.2-.71-3.46,1.86-14.39,1.63-18.43s-2.96-7.74-3.25-12.76c-.46-8.22,3.22-18.32,3.03-25.46-.25-9.89-8.44-41.89-21.94-29.61-1.06.96-14.47,20.03-14.82,21.28-.49,1.75,2.62,13.08,2.29,18.57-.08,1.51-.14,16.25-5.18,12.36-4.14-3.2-4.95-22.42-21.17-15.53,4.91-33.86-24.36-2.84-40.31-14.85,4.45-6.33,10.72-1.48,16.28-5.04,8.56-5.47,1.45-9.69,9.17-14.77-2.35-3.71-6.98-3.36-9.92-5.54s-4.25-10.71-7.54-.54c2.73,3.51,6.49,9.36,1.89,13.15-1.97-8.36-2.96-18.02-9.9-24.01l-2.72,5.37c-17.13-7.09-7.71,13.79-9.77,17.95-1.95,3.93-7.81,6.59-8.71,12.01-2.37-.26-3.1-13.77-6.52-17.66-2.46-2.8-19.73-13.02-22.84-12.61-11.99,4.84-4.29,13.1-2.79,20.73.6,3.03-1.67,4.92.24,10.27,1.4,3.9,5.71,9.13,7.13,13.75l16.24-.32c-5.13,3.97-16.38,14.1-21.91,15.79-4.28,1.31-5.77-2.29-7.76-2.29-1.8,0-4.16,3.27-6.33,2.93-4.07-.63-16.26-15.8-21.25-19.81-3.66-2.93-15.37-10.79-19.8-13.63-10.13-6.51-24.96-6.31-32.51-11.24-5.04-3.29-17.68-23.16-18.29-29.02-1.1-10.82,13.85-20.32,20.37-10.94,3.03-2.07,5.44-3.83,9.22-4.51,11.99-2.17,16.79,6.76,23.3-7.67,5.9,2.5,14.54,7.79,18.41,1.21l-11.29-5.64,10.66-22,3.98,1.44,2.31-4.91c6.8,4.6,11.99,13,20.48,9.21,1.86,7.66-5.91,13.66-3.9,21.18s8.15,10.03,12.28,15.55c2.27,3.03,2.21,7.29,4.48,9.94,4.24,4.94,12.11,6.31,18.28,5.61-6.55-6.01-12.61-13.15-16.85-21.19-8.8-16.69.45-20.44,7.56-35.36,1.26-2.64.41-5.8,1.57-8.47,3.83-8.82,11.87-14.67,20.51-18.56,6.82,3.79,9.89,14.15,13.97,18.26,5.68,5.75,20.44,8.32,22.3,11.5,2.19,4.13-2.29,10.76-1.01,14.11.66,1.72,4.48,2.82,6.28,7.09,5.41,12.76,4.73,29.44,9.61,41.25,1.39,3.36,5.23,9.98,9.38,7.9l12.07-11.56c-6.87-4-2.47-12.74-3.71-14.74-.93-1.51-5.26-2.5-7.57-5.61-1.59-2.14-13.07-25.1-15.3-29.76-4.74-9.86-1.91-20.07-15.78-25.92l-4.16,3.92c-6.49-4.65-.98-9.14-.91-11.22.18-6.01-1.76-14.36,2.89-20.6,1.62-2.17,5.22-1.15,7.31-2.87,3.66-3.03,2.87-7.92,5.66-11s10.54-5.46,12.28-7.88-3.84-8.63,1.07-11.47l20.65,27.67,6.22,4.69,4.9-4.62c-2.8-8.17-7.36-14.29-4.45-23.16l-20.36-13.66c-2.92-7.15,12.6-16.26,17.85-13.09,6.2,3.75,3.3,9.94,8.61,14.52,1.42,1.22,18.7,12.03,20.99,13.31,7.64,4.26,22.14,11.46,27.96,1.95,1.35-2.21-1.5-5.77-.95-8.37.69-3.25,5.08-5.72,4.08-9.91-2.33-3.67-14.65-.14-18.38-.13-5.55,0-9.27-6.43-16.24,2.24-1.68-17.06,9.89-10.68,18.07-12.57,10.74-2.48,14.42-8.37,22.25-12.86,10.6-6.09,21.76-11.38,31.83-18.37l11.3,16.94c3.98-.29,35.32-35.62,21.2-43.44l-33.19,5.95c.59-20.69-5.94-39.4,9.77-56.58,6.99-7.64,18.31-18.14,28.43-11.38,2.98,1.99,3.39,5.78,6.91,7.18,6.78,2.69,25.56-7.76,30.35-13.48l-3.36-4.9c11.82-3.81,23.96,3.39,31.83-9.19l11.29,67.85h.04s0,0,0,0Z"/>
  <path class="st0" d="M591.56,1418.41c1.49,2.56.79,12.46-.6,15.56-.59,1.32-17.77,19.73-19.65,21.34-11.38,9.75-31.34,19.37-43.13,29.88-6.59,5.88-13.88,17.58-20.19,23.81-33.6,33.18-100.06,88.07-118.79,129.21-12.11,26.59,14.21,59.85,2.95,88.46-5.47,5.27-18.44,6.44-23.08,11.41-5.99,6.42-7.37,21.29-12.94,27.06-9.33,9.65-32.9,17.15-44,26-3.74,2.98-18.76,23.88-22.12,20.86-9.06-24.77-12.44-56.79-22.5-80.51-3.1-7.31-26.41-39.41-24.57-43.52,7.37-8.96,17.98-16.19,25.85-24.17,4.85-4.92,9.42-12.84,14.22-17.78,83.46-85.7,160.89-161.83,231.86-260.14,4.2-5.82,5.5-13.92,11.08-19l65.61,51.54h0Z"/>
  <path class="st0" d="M629.66,1505.75c-1.6,2.16-6.48,2.8-6.91,7.98-.53,6.44,11.89,14.72-8.4,16.69-1.7,7.18,9.96,3.65,11.85,9.26.66,19.85-14.04,11.77-24.58,15.06-.81.25-9.39,9.79-12.22,11.7-1.67,1.13-15.48,9.41-16.42,9.64-3.69.9-11.06-3.27-15.71.15-4.72,4.66-4.11,17.03-5.13,17.95s-5.53-.32-7.8,1.14c-4.49,2.89-1.72,10.51-2.18,10.85-1.06.78-4.71-.14-6.79,2.2-2.78,3.13-5.67,20.18-10.98,25.04,0,7.29,10.75,11.7,11.83,13.27.85,1.23-1.78,4.65-1.66,6.8.23,4.03,4.32,7.01,3.94,15.98-.5,12.02-2.78,9-9.43,13.67-1.36.96-1.44,3.69-4.07,4.85-7.16,3.17-20.61-1.7-24.77,1.29l-1.86,9.13c-6.26.81-5.14-7.52-11.01-8.11-8.24-.82-11.19,9.26-18.96,8.12-.84-14.09-13.99-8.77-8.16,3.74l-16.92,7.49c-11.81.48-23.35-40.24-18.92-49.71.61-1.31,16.28-10.85,21.27-19.23,2.4-4.04,11.37-22.44,12.62-25.87,2.31-6.34-4.01-6.94,9.92-6.72-1.19-7.54,4-4.82,7.12-7.68,2.44-2.25,3.4-8.47,6.2-11.85,5.49-6.64,20.17-5.25,28.88-8.17-2.21-11.79,6.34-22.4-4.02-33.96l12.08-3.14c2.21-6.09-11.89-14.1-9.09-18.89s1.88,2.69,8.02,2.21c6.8-.53,4.78-4.17,6.22-4.32,3.82-.4,9.67,5.52,10.54-2.58l-3.66-7.15c7.79-5.9,13.85-10.39,23.33-13.7,3.2-1.12,7.68.22,11.15-.85,9.97-3.08,1.88-4.93,18.65-3.8,5.85.4,8.53-4.11,13.76,4.17,2.94-1.23,4.31-7.49,6.41-8,2.69-.66,22.83-.47,25.25.36,7.32,2.5,3.72,10.88.64,15.03l-.03-.04h0Z"/>
  <path class="st0" d="M694.48,1242.59c-2.84,2.85-6.76,16.07-6.73,20.48.13,14.61,18.53,37.7,4.06,47.84-21.07,14.75-32.48-10.07-45.26-22.64-7.82,1.06-14.65,2.73-12.71,11.66l-15.41,3.81c-10.94-2.12-13.89-14.54-27.52-5.78l-2.73-4.61,3.6-6.04-7.81-8.27c10.83-4.86,8.03-19.09,11.8-24.16,1.26-1.69,4.7-2.3,6.12-3.96,1.92-2.24,1.66-5.95,3.32-7.07,2.31-1.55,7.33-.38,8.79-3.2,1.69-3.27,4.52-21.59,4.08-25.65-1.2-11.08-20.2-39.95-32.14-43.95,4.18-4.59,9.7-1.86,15.16-4.89,4.52-2.51,3.34-8.55,4.63-9.19,3.34-1.66,8.63-.09,9.96-1.29.43-.38,2.2-8.4,5.34-9.76,8.55,4.46,14.06,2.74,21.9,10.18l9.97-7.61c6.18,7.13,9.34-1.33,16.3-1.84,7.92-.59,17.98,7.59,23.78,7.22.66-.04,12.03-3.84,12.53-4.28,2.02-1.79-1.24-7.99,7.27-7.58,7.64.36,12.15,11.6,21.27,11.03,5.28,3.23-5.11,27.73-5.73,32.43-.49,3.72,1.87,7.43,1.72,11.49-.24,6.15-12.54,28.02-17.06,33.11-5.83,6.57-14.84,8.84-18.5,12.5v.02Z"/>
  <path class="st0" d="M690.83,1365.05c2.32,5.32,18.36,5.4,23.93,5.52l-2.72,5.45c2.21,3.01,5.57.31,7.92,1.42,2.46,1.17,4.6,5.82,8.48,8.01,4.58,2.58,12.34-.31,10.29,10-1.5,7.51-8.94,6.44-13.69,11.38-1.42,1.49-1.79,5.78-2.76,6.1-.56.17-4.48-2.22-6.86-2.14-6.2.23-4.64,5.38-11.79-2.74-31.74,12.45,7.19,28.06,13.37,39.49.96,1.77.46,13.5-.26,15.81-3.33,10.58-5.71,4.38-10.71,5.8-1.75.49-10.99,7.28-12.71,7.94-2.22.85-4.12-2.54-6.56-1.79-1.89.58-12.01,8.52-13.44,8.52-2.49-8.9-11.58-21.46-22.21-17.36-3.41,1.32-3.8,5.84-6.05,5.61-4.82-.49-12.79-9.69-20.83-9.03l2.16-6.84c-3.32-6.29-4.25-41.8-6.62-44.87-2.74-3.52-7.21-3.51-10.65-6.64-10.25-9.31-8.08-19.09-27.07-21.74-3.46-.48-7.95,1.45-8.58,1.17-10.27-4.5-15.2-16.45-26.28-19.05-1.28-4.01,12.77-29.64,16.75-33.4,2.31-2.18,6.41-2.23,7.89-4.26s1.47-11.3,5.31-16.43c8.04-10.76,11.64,1.4,15.37,2.8,2.92,1.1,6.9-3.43,9.81-2.33,5.03,1.89,4.34,11.28,16.32,4.25.8,9.45,1.73,15.58,13.02,14.34-6.17,6.46,12.44,16.01,17.71,17.92,2.32.84,2.85-3.74,5.62-3.72,3.13.03,8.42,4.57,12.89,2.34l5.15-8.77c1.21-.21,15.4,16.3,16.67,18.1,3.06,4.33.61,7.92,1.14,9.11l-.02.02h0Z"/>
  <path class="st0" d="M440.19,1320.34c1.44-5.41,6.89-7.68,12.09-5.67,1.27.49,15.7,17.03,12.33,20.15-7.91,1.36-15.95,5.7-18.41,13.8,1.28,5.83,21.98,12.16,27.12,10.59,1.93-.59,2.06-3.92,3.54-4.32,5.48-1.53,21.47,4.89,26.91,6.45-5.15,4.41.22,12.96-.71,16.28-2.21,7.93-38.47,41.26-46.68,41.04-2.81-.07-5.2-3.13-6.31-3.07-.74.04-11.23,7.72-12.02,8.67-4.74,5.69,3.94,15.04-9.86,26.57-9.75,8.15-15.76,5.66-26.98,5.88-2.41.05-5.81,2-6.39,1.88s-8.12-8.54-8.45-9.06c-1.68-2.6-.47-6.84-2.6-9.48-1.73-2.14-5.61-2.64-7.45-5.75s.39-8.25-.4-11.43c-6.95-27.75-9.73-26.66,1.34-55.16,1.71-4.4,6.1-9.17,6.89-12.73.93-4.21-4.16-11.7-2.22-15.56.79-1.57,13.34-16.04,14.98-16.88,3.81-1.94,30.12-8.94,34.06-8.53,4.63.47,6.34,3.3,9.21,6.32h0Z"/>
  <path class="st0" d="M365.6,1438.8c-.49.86-3.39-.06-3.16,3.47.29,4.52,3.38,12.49,5.59,16.68,3.61,6.85,9.62,10.04,13.26,14.74,1.89,2.43,1.62,6.46,3.19,8.4,4.71,5.81,14.34,9.29,18.01,14.39,5.82,8.08-14.94,9.9-20.81,13.31-7.62,4.43-2.48,8.5-3.26,9.61-.41.58-8.1,1.7-10.37,2.75-8.51,3.91-12.05,10.55-22.36,5.11-9.68-5.1-10.67-17.62-27.3-12.89l-1.78,8.99c8.6.29,6.49,4.86,8.98,7.91,3.02,3.69,6.8,2.33,7.08,9.26.22,5.21-2.89,7.3-3.27,9.98s1.81,6.42,1.14,9.63c-.15.72-10.82,8.78-11.52,8.99-13.55,4.18-36.7-6.43-50.62-7.6l2-11.98-11.99,3.97c2.43-5.41,9.25-7.98,11.47-13.51,1.18-2.92,4.68-24.47,4.47-27.38-.52-7.21-9.38-14.46,6.05-19.13-2.82-5.72-7.4-14.39-6.14-20.87.39-2.01,4.13-.45,5.48-1.6,3.02-2.58,3.06-8.73,10.61-7.57l.04-5.88c-3.11.4-6.35-1.93-9.11-1.89-2.51.04-7.78,6.55-8.88.82-.75-3.93,5.86-5.28,8.09-7.95,1.5-1.8,1.36-5.03,2.57-6.34,8.7-9.51,26.21-7.02,36.28-.66,3.29-.7,4.78-13.18,7.58-15.52,3.19-2.67,9.94-.3,13.92-.87,2.81-.4,5.63-3.71,8.61-3.64,3.62.09,4.85,4.01,7.1,4.93,5.64,2.31,15.8.44,9,12.34h.05Z"/>
  <path class="st0" d="M735.87,1488.98l-1.97,7.88c6.58-.98,20.34,4.83,25.55,1.42.93-.61-.54-5.11,4.41-3.4,1.45,1.1,5.77,18.18,7.92,21.11,2.53,3.44,14.57,12.08,18.27,16.23-9.63,18.02,17.55,11.39,19.83,21.69,1.13,5.1-8.06,4.04-11.79,8.15-3.36,3.7-5.72,10.78-.24,13.82-4.67,2.71-15.53,9.97-18.07,14.39-2.82,4.9-1.04,13.47-3.71,17.33-3.43,4.95-20.48-.75-18.21,11.29-8.66-2.39-18.28-5.68-26.93-2.07l-2.1-1.93c-.19-11.39-11.67-12.97-4.93-28.01-9.43,4.03-19.95-10.95-25.38-11.77-3.82-.57-7.22,9.86-14.1,3.21-6.58-6.36-3.35-14.01,5.47-15.49-9.95-12.44-6.55-34.06-3.89-48.85l-4.1-3.09c12.26-3.98,21.43,7.93,33.98,5.97l-7.99-11.97c9.49,1.65,9.21-13.53,14.29-19.75l13.68,3.85h0Z"/>
  <path class="st0" d="M250.05,1576.63c-.12,10.34,18.4,16.42,19.95,23.1,1.73,7.48-7.01,16.9-4.62,24.62l-2.02,1.92c-3.12-2.57-13.7-3.51-14.52.98-.18,9.97,6.58,13.08,9.48,21.08-9.94-.72-14.25,5.34-22.18,8.78-3.16,1.37-8.11.86-9.91,2.13-2.83,1.99-1,9.85-4.8,10.62-16.77-4.73-30.3-.67-45.09,6.51l11.98,13.97c-5.8-1.67-10.39-4.97-16.51-6.66-3.18-.88-5.44.22-8.11-.11-4.79-.6-7.63-5.35-15.35.79l-.02-6.02-5.99.02,1.99,5.97-7.99-2.01,4-7.96c-5.28-.07-13.32-2.25-12.11-8.92.21-1.17,4.78-1.96,6.62-5.56,8.32-16.3,3.77-33.38,31.49-29.55,2.32-6.73-4.12-9.31-5.39-13.28-1.43-4.49,2.41-16.06,1.48-21.73-.63-3.85-9.9-6.89-6.09-10.96,2.67-2.85,8.98,10.79,13.97,1.98l1.22,6.13c6.2-1.57,10.58,2.81,15.95,3.68,2.48.4,22.37-3.02,25.45-3.75,2.03-.48,1.89-4.07,3.4-4.95,3.27-1.91,7.81-.81,11.49-2.6,6.67-3.24,11.98-11.42,22.22-8.21h.01Z"/>
  <path class="st0" d="M480.23,1196.35c-.82-6.92,9.55-3.68,14.72-3.65,13.27,11.12,21.53,29.73,40.8,29.2,2.54-.07,13.66-7.53,23.96-6.99,1.21.06,16.94,7.77,11.6-2.56-1.18-2.28-9.89-8.48.35-6.38,6.97,3.03,5.03,12.64,7.11,18.9,1.53,4.62,8.46,5.65,3.34,12.32-3.78,4.92-9.98,2.95-14.48,5.55-6.72,3.88-2.75,3.5-12.75,7.22-12.78,4.75-11.5,19.38-12.63,31.03l18.06,24.4-.03,2.98c-9.51-2.34-9.89,12.72-7.76,18.79,1.25,3.53,6.11,1.83,5.74,5.21-5.07-1.07-7.73,4.04-10.98,5.02-10.34,3.11-14.4-4.47-22.16-4.86-6.39-.32-20.94,1.41-19.05,9.77l-7.54-.22-10.27-19.67h8.02c-.38-13.46-4.65-28.6,7.02-38.09l8.96,4.06c-.16-15.98-16.22-7.09-25-7.81-13.47-1.1-2.9-11.37-3.68-17.26-.6-4.51-9.95-1.95-7.26-13.82,1.59-7.01,11.47-10.03,11.95-18.25.82-14.35-21.26-22.19-13.97-38.84l5.94,3.98v-.03h0Z"/>
  <path class="st0" d="M874.22,1242.75c-5.85-.15-12.43.96-17.99-.99,8.27-5.73,18.51-3.08,20.98-15,5,6.58,3.32,11.71-2.99,15.99,2,.05,4.01-.09,6,0l.07,6.71c-15.96,6.5-9.27,5-12.16,16.17-.93,3.61-3.42,5.59-4.02,10-.56,4.08-2.29,33.72-1.6,35.84,1.14,4.88,6.27.77,8.69,3.14,4.08,4.01,12.44,24.34,17.03,27.11,4.87,2.94,13.54-.54,18.74,1.32,2.31.83,2.42,3.96,3.94,5.12,1.34,1.03,4.46.18,5,.77.63.69,2.47,16.91,2.31,18.63-.25,2.66-7.97,16.15-9.94,18.23-3,3.18-7.05,3.63-9.93,6.07s-3.52,6.44-7.34,8.66c-10.26,5.97-21.79-2.17-32.78,2.2l-.1-17.91c-15.62,1.48-14.68-11.58-17.94-23.06,19.8-3.61,5.39-9.3,4.47-14.24-.6-3.23,3.65-8.75.63-12.86-3.37-5.08-16.95,6.33-25.08,2.81-1.05-.45-15.28-9.13-15.94-9.79-2.34-2.39-3.26-6.57-3.92-9.8.71-3.36,7.99-2.83,11.04-5.05,2.42-1.76,1.68-5.83,6.64-7.23,2.64-.74,13.02-2.23,15.25-1.93,3.3.45,7.07,6.95,11.03,4.2,8.6-10.08.79-25.04,1.91-33.97.88-7.03,10.83-16.65,6.06-27.09l20.72-2.02,1.22-2.06v.03h0Z"/>
  <path class="st0" d="M193.8,1581.79c-3.72-1.37-3.52-5.49-7.42-7.54-6.43-3.38-15.59-.15-16.28-.62-1.69-1.15-.88-8.38-9.1-7.86-1.86.12-18.41,6.63-20.26,7.94-3.88,2.75-15.23,23.53-18.9,20.07-.38-14.95-6.59-29.92.05-44.42.89-1.95,8.27-6.07,11.02-9.49,2.47-3.08,12.13-20.54,12.54-23.5.43-3.13-6.03-6.51-2.74-10.59,11.74-13.69,17.37-3,28.27-2.13,3.08.25,6.08-1.88,9.4-1.47,2.57.31,18.94,7.63,20.33,9.72,13.36,20.14-10.82,47.68-6.9,69.89h-.01Z"/>
  <path class="st0" d="M794.8,1200.61c8.02,4.06,19.6,11.3,28.52,14.47,3.01,1.07,8.62.22,9.78,1.21.74.63.62,4.69,2.23,6.68,3.5,4.31,8.03,5.18,8.2,11.88.04,1.53-2.01,14.62-2.46,15.82-1.1,2.93-5.17,2.58-5.68,4.7-.78,3.18,1.48,9.41-1.82,11.74-8.89,6.26-22.71-19.85-27.55-25.17-12.44.19-66.22,6.82-71.61-3.94-5.57-9.8,3.09-14.53,4.6-19.44,2.06-6.7,1.78-23.4,10.39-27.59,9.85-4.8,16.45,2.56,23.6,4.42,7.04,1.83,14.77,1.69,21.79,5.25v-.03h.01Z"/>
  <path class="st0" d="M778.85,1344.06c.11,9.39,8.23,11.19,16.19,11.83,3.95,4.66-15.22,16.06-9.05,26.02l10.73,7.13c-7.31,20.26,7.91,13.23,14.41,17.79,2.11,1.48,1.08,5.78,3.16,7.24,2.54,1.77,8.75.02,8.73,3.79-13.45-2.96-8.26,4.56-12.78,8.21-3.17,2.56-9.43.77-10.95,5.05-5.61,18.01,9.75,17.92,11.75,30.74-13.43-.25-26.4,5.03-37.96,11l3.07,7.17c-4.86,13.23-15.38-1.59-23.08-5.15l7.98-13.02,5.96,2.02c-.68-15.24-11.99-27.83-11.76-43.12.02-1.39,3.66-1.2,4.71-2.84,2.19-3.42,1.62-13.06,6.86-17.34l-5.8-6.67,7.98,1.99v-11.99c8.73.6,8.65-4.57,8-12.01l-7.98,1.98,1.92-6.77c-11.26-5.19-5.27-25.61,7.89-23.02l.02-.03h0Z"/>
  <path class="st0" d="M780.65,1269.32c1.08,1.33,3.19,10.39,2.47,11.35-14.84,1.25-7.08,11.78-8.14,16.98-.65,3.2-6.56,2.22-7.99,4.39-2.78,4.2-4.07,16.58-5.97,21.2-2.28,5.53-7.28,13.56-10.63,19.73-1.42,2.61-1.11,6.45-3.06,8.95-8.66,11.14-25.03-3.09-36.14,2.84,1.59-6.4,6.23-11.17,5.55-18.54-.64-6.91-9.47-17.27-9.09-22.12.89-11.44,24.97-16.46,7.4-26.56l2.16-6.77,7.97,3.99-3.98-9.98c6.05.31,17.31,1.26,22.58.03,1.87-.44,2.46-5.62,7.26-7.18,5.67-1.84,25.49-3.38,29.61,1.69h0Z"/>
  <path class="st0" d="M223.13,1702.24l13.41,22.9c-5.87,7.14-8.12,16.73-11.44,25.34-3.69,9.57-6.04,15.99-5.79,26.59.68,28.65-5.63,15.67-28.68,18.7-3.57-9.82-28.56-18.07-28.82-26.24-.34-10.66,12.44-15.2,18.37-23.58,5.47-7.72,9.9-19.74,15.19-28.42,1.16-1.91,7.98-2.07,1.94-8.4l-3.98.95.87-6.1c2.8-3.88,22.37,1.64,28.93-1.74h0Z"/>
  <path class="st0" d="M824.69,1482.88c.77,1.21,6.77,2.87,8.41,2.61,1.3-.2,1.18-3.38,1.57-3.59.46-.25,9.11-.53,10.47-.51,1.46.02,1,3.49,3.6,4.62,5.53,2.41,15.85,5.27,20.94,8.02.9.48,3.91,5.73,6.63,6.34l-6.01,1c-.64,5.37-.15,5.1,4.01,6.98l-4,4.99c14.53-2.96,18.56,11.31,10.05,21.07-5.61,6.43-33.51,11.27-41.14,10.11-13.46-2.05.92-27.26-.92-29.15-7.5,2.74-48.73,7.91-42.69-7.46.99-2.51,5.14-3.9,7.2-6.99,2.9-4.34,5.66-12.15,8.11-14.97,2.89-3.31,7.81-2.64,9.42-3.82,2.17-1.59.99-5.64,3.94-4.77.15,1.69-.46,4.17.4,5.51h.01Z"/>
  <path class="st0" d="M926.27,1460.98c9.68-1.16,6.61,27.83-1.03,16.11l-4.21,8.11c-7.22-1.24-11.74.29-17.74,3.88-6.18-4.38.44-11.51-1.04-18.01l-8.02-.02c11.65-16.04,12.08-36.42,16.46-54.52.99-4.07,7.51-5.31,3.52-13.46,15.76-4.83,17.09,13.06,28.03,19.04-9.69,11.59-10.62,25.49-15.98,38.87h0Z"/>
</svg>