<?xml version="1.0" encoding="UTF-8"?>
<svg id="Layer_1" xmlns="http://www.w3.org/2000/svg" version="1.1" viewBox="0 0 329.48 507.69">
  <!-- Generator: Adobe Illustrator 29.8.1, SVG Export Plug-In . SVG Version: 2.1.1 Build 2)  -->
  <defs>
    <style>
      .st0 {
        fill: none;
        stroke: #010101;
        stroke-miterlimit: 10;
      }
    </style>
  </defs>
  <path class="st0" d="M157.47,39.97l-3.96-20,21.78,6.19c1.33,5.78-1.63,14.66,1.21,19.79,3.42,6.18,23.12,8.62,26.53,25.48,3.3,16.28-12.95,13.67-21.51,23.53l11.81,8.28c-1.85,7.83-.36,18.35-1.92,25.67-.22,1.03-8.28,18.22-8.92,19.06-4.53,5.95-14.19,2.73-11.02,15.98,4,.49,8.88-.86,12.65.04,1.53.37,1.24,3.65,2.73,3.99,1.94.44,16.98-1.7,19.16-2.5,11.2-4.09,2.4-13.37.48-19.52-4.64-14.82-.77-9.5,2.82-14.29,1.03-1.37-3.02-5.72-.96-9.7,1.32-2.54,6.77-4.6,9.27-6.93,2.1-1.96,2.74-4.73,4.52-6.45,1.56-1.51,5.18-.06,6.99-3.97,8.58-18.55-7.88-21.02-13.44-29.87-4.2-6.7-4.44-33.86-.38-39.51,4.54-6.33,24.1,1.88,31.35-2.67,3.17.46,12.05,15.62,13.41,16.82,1.49,1.32,6.23,1.95,8.93,3.83,9.38,6.55,3.7,16.81,4.87,25.19,1.06,7.6,6,17.69,5.8,26.25-.56,2.85-16.81,4.27-14.2,12.27.35,1.75,12.4,2.06,11.94,13.82-.25,6.32-5.77,20.03-13.91,15.21,1.23,2.69,3.05,3.83,3.87,7.15.56,2.25,2.13,24.22,1.85,25.47-1.47,6.51-10.51,3.07-9.77,8.4,10.37,11.55,15.72,27.15,32.09,30.01-3.76,4.89-3.41,11.37-5.89,16.11-8.5,16.27-16.78,13.08-13.64,37.34,3.19,24.62,5.25,18.92,22.84,27.15,11.68,5.46,23,11.86,34.63,17.35l-8.02,17.01-11.52-6.43c-2.05-11.2-7.03-5.63-16.45-7.58l-.02,8.01-5.97-1.99.07,11.92c20.69.9,20.42,9.19,18.05,26.86-13.22.81-7.51,18.84-12.07,22.28-1.76,1.33-6.68,1.16-9.49,2.51-4.92,2.37-15.4,10.85-20.51,7.5-2.95-1.94-8.86-11.49-11.88-14.19s-7.57-3.38-11.32-6.73c-6.14-5.49-10.68-15.23-15.86-20.15-7.17-6.82-35.59-23.65-36.45-5.42-.07,1.43,3.93,24.4,4.57,25.53.89,1.59,11.1,7.4,14.75,11.51,1.01,1.13,11.39,11.59,5.08,12.4-5.19.66-19.35-12.35-25.95,3.99-20.47-27.41-19.23,15.22-39,18-1.33-7.62,6.53-8.63,7.95-15.08,2.18-9.92-5.83-7.88-3.96-16.93-4.29-.96-7.31,2.56-10.93,3.1s-10.58-4.57-5.72,4.95c4.41.55,11.21,2.03,10.63,7.96-7.3-4.52-14.84-10.65-23.98-9.98l1.88,5.72c-17.13,7.1,4.3,15.2,5.79,19.6,1.4,4.16-.86,10.18,2.33,14.65-1.86,1.49-11.93-7.55-17.1-7.88-3.72-.24-23.16,4.74-25.07,7.23-5.06,11.9,6.23,12.29,12.69,16.63,2.57,1.72,2.3,4.66,7.43,7.09,3.75,1.77,10.49,2.42,14.77,4.68l11.26-11.71c-.82,6.44-1.61,21.55-4.33,26.66-2.1,3.95-5.7,2.46-7.11,3.87-1.27,1.28-.63,5.25-2.4,6.55-3.32,2.43-22.67.32-29.03,1.02-4.66.52-18.5,3.24-23.64,4.36-11.77,2.56-22.11,13.19-30.94,15.04-5.89,1.24-28.88-3.87-33.45-7.59-8.43-6.87-4.57-24.16,6.67-22.14.68-3.61,1.14-6.55,3.33-9.71,6.94-10.01,16.65-7.09,11.05-21.9,5.94-2.4,15.79-4.77,13.87-12.16l-11.97,3.99-8.02-23.09,3.83-1.8-1.84-5.1c8.06-1.55,17.67.72,21-7.97,6.73,4.1,5.48,13.84,12.22,17.74s12.86,1.33,19.68,2.31c3.75.54,6.72,3.59,10.2,3.86,6.49.5,13.02-4.1,16.89-8.96-8.88.38-18.21-.38-26.9-3.07-18.03-5.58-14.14-14.77-19.66-30.35-.98-2.76-3.81-4.39-4.88-7.1-3.53-8.95-1.98-18.77,1.38-27.63,7.5-2.14,17,3.01,22.79,3.04,8.08.05,20.34-8.57,23.9-7.64,4.47,1.37,5.99,9.23,9.26,10.69,1.68.75,5.16-1.17,9.45.57,12.85,5.2,24.16,17.47,35.96,22.37,3.36,1.39,10.75,3.36,12.22-1.05l.36-16.71c-7.69,2.03-10.76-7.26-13.04-7.8-1.72-.41-5.49,1.95-9.32,1.38-2.64-.39-26.99-8.51-31.86-10.22-10.32-3.62-15.54-12.84-29.49-7.17l-.17,5.72c-7.88,1.3-7.15-5.77-8.58-7.29-4.12-4.38-11.4-8.91-12.52-16.61-.39-2.68,2.88-4.5,3.14-7.2.45-4.73-3.57-7.63-3.77-11.78s3.59-11.31,3.11-14.25-8.82-3.39-7.35-8.87l34.17,4.96,7.71-1.08.2-6.73c-7.76-3.8-15.31-4.9-19.52-13.23l-24.06,4.74c-7.12-2.99-2.59-20.41,3.37-21.88,7.04-1.73,9.36,4.7,16.36,4.18,1.87-.14,21.73-4.71,24.26-5.43,8.42-2.39,23.76-7.55,21.15-18.39-.61-2.52-5.14-3.02-6.59-5.25-1.81-2.79-.45-7.64-4.12-9.89-4.24-.95-10.46,10.26-13.09,12.91-3.92,3.93-11.1,2.01-9.9,13.07-13.25-10.87-.56-14.55,3.89-21.67,5.84-9.35,4.28-16.11,6.64-24.82,3.19-11.8,7.34-23.44,9.52-35.5l19.97,3.99c2.61-3.02-.21-50.16-15.73-45.71l-19.26,27.68c-14.21-15.05-32.06-23.66-33.1-46.91-.46-10.35.12-25.78,12.05-28.15,3.51-.7,6.49,1.69,9.96.19,6.7-2.89,12.59-23.56,11.93-30.99l-5.84-1.09c5.66-11.05,19.34-14.55,16.01-29.01l55.96,40,.03-.03h0Z"/>
</svg>